<svg width="89" height="89" viewBox="0 0 89 89" fill="none" xmlns="http://www.w3.org/2000/svg">
<g opacity="0.2">
<path d="M7.37393 8.30474C7.37393 7.69722 7.86641 7.20474 8.47393 7.20474H67.8739C68.4814 7.20474 68.9739 7.69722 68.9739 8.30474V52.3047C68.9739 54.1273 70.4514 55.6047 72.2739 55.6047C74.0965 55.6047 75.5739 54.1273 75.5739 52.3047V8.30474C75.5739 4.05214 72.1265 0.604736 67.8739 0.604736H8.47393C4.22133 0.604736 0.773926 4.05214 0.773926 8.30474V80.9047C0.773926 85.1573 4.22133 88.6047 8.47393 88.6047H39.2739C41.0965 88.6047 42.5739 87.1273 42.5739 85.3047C42.5739 83.4822 41.0965 82.0047 39.2739 82.0047H8.47393C7.86642 82.0047 7.37393 81.5123 7.37393 80.9047V8.30474Z" fill="#F36B09"/>
<path d="M19.4739 22.6047C17.6514 22.6047 16.1739 24.0822 16.1739 25.9047C16.1739 27.7273 17.6514 29.2047 19.4739 29.2047H56.8739C58.6965 29.2047 60.1739 27.7273 60.1739 25.9047C60.1739 24.0822 58.6965 22.6047 56.8739 22.6047H19.4739Z" fill="#F36B09"/>
<path d="M16.1739 43.5047C16.1739 41.6822 17.6514 40.2047 19.4739 40.2047H39.2739C41.0965 40.2047 42.5739 41.6822 42.5739 43.5047C42.5739 45.3273 41.0965 46.8047 39.2739 46.8047H19.4739C17.6514 46.8047 16.1739 45.3273 16.1739 43.5047Z" fill="#F36B09"/>
<path d="M87.8074 63.4382C89.0961 62.1495 89.0961 60.06 87.8074 58.7713C86.5187 57.4826 84.4292 57.4826 83.1405 58.7713L61.2739 80.6378L52.6074 71.9713C51.3186 70.6826 49.2292 70.6826 47.9405 71.9713C46.6517 73.26 46.6517 75.3495 47.9405 76.6382L58.9405 87.6382C60.2292 88.9269 62.3186 88.9269 63.6074 87.6382L87.8074 63.4382Z" fill="#F36B09"/>
</g>
</svg>
