<svg width="76" height="78" viewBox="0 0 76 78" fill="none" xmlns="http://www.w3.org/2000/svg">
<path opacity="0.1" d="M16.3573 40.6047C14.8385 40.6047 13.6073 41.8359 13.6073 43.3547C13.6073 44.8735 14.8385 46.1047 16.3573 46.1047H18.1906C19.7094 46.1047 20.9406 44.8735 20.9406 43.3547C20.9406 41.8359 19.7094 40.6047 18.1906 40.6047H16.3573Z" fill="#F36B09"/>
<path opacity="0.1" d="M13.6073 30.5214C13.6073 29.0026 14.8385 27.7714 16.3573 27.7714H18.1906C19.7094 27.7714 20.9406 29.0026 20.9406 30.5214C20.9406 32.0401 19.7094 33.2714 18.1906 33.2714H16.3573C14.8385 33.2714 13.6073 32.0401 13.6073 30.5214Z" fill="#F36B09"/>
<path opacity="0.1" d="M16.3573 14.938C14.8385 14.938 13.6073 16.1692 13.6073 17.688C13.6073 19.2068 14.8385 20.438 16.3573 20.438H18.1906C19.7094 20.438 20.9406 19.2068 20.9406 17.688C20.9406 16.1692 19.7094 14.938 18.1906 14.938H16.3573Z" fill="#F36B09"/>
<path opacity="0.1" d="M26.4406 43.3547C26.4406 41.8359 27.6718 40.6047 29.1906 40.6047H31.0239C32.5427 40.6047 33.7739 41.8359 33.7739 43.3547C33.7739 44.8735 32.5427 46.1047 31.0239 46.1047H29.1906C27.6718 46.1047 26.4406 44.8735 26.4406 43.3547Z" fill="#F36B09"/>
<path opacity="0.1" d="M29.1906 27.7714C27.6718 27.7714 26.4406 29.0026 26.4406 30.5214C26.4406 32.0401 27.6718 33.2714 29.1906 33.2714H31.0239C32.5427 33.2714 33.7739 32.0401 33.7739 30.5214C33.7739 29.0026 32.5427 27.7714 31.0239 27.7714H29.1906Z" fill="#F36B09"/>
<path opacity="0.1" d="M26.4406 17.688C26.4406 16.1692 27.6718 14.938 29.1906 14.938H31.0239C32.5427 14.938 33.7739 16.1692 33.7739 17.688C33.7739 19.2068 32.5427 20.438 31.0239 20.438H29.1906C27.6718 20.438 26.4406 19.2068 26.4406 17.688Z" fill="#F36B09"/>
<path opacity="0.1" d="M42.0239 40.6047C40.5051 40.6047 39.2739 41.8359 39.2739 43.3547C39.2739 44.8735 40.5051 46.1047 42.0239 46.1047H43.8573C45.376 46.1047 46.6073 44.8735 46.6073 43.3547C46.6073 41.8359 45.376 40.6047 43.8573 40.6047H42.0239Z" fill="#F36B09"/>
<path opacity="0.1" d="M39.2739 30.5214C39.2739 29.0026 40.5051 27.7714 42.0239 27.7714H43.8573C45.376 27.7714 46.6073 29.0026 46.6073 30.5214C46.6073 32.0401 45.376 33.2714 43.8573 33.2714H42.0239C40.5051 33.2714 39.2739 32.0401 39.2739 30.5214Z" fill="#F36B09"/>
<path opacity="0.1" d="M42.0239 14.938C40.5051 14.938 39.2739 16.1692 39.2739 17.688C39.2739 19.2068 40.5051 20.438 42.0239 20.438H43.8573C45.376 20.438 46.6073 19.2068 46.6073 17.688C46.6073 16.1692 45.376 14.938 43.8573 14.938H42.0239Z" fill="#F36B09"/>
<path opacity="0.1" fill-rule="evenodd" clip-rule="evenodd" d="M0.773926 69.938C0.773926 73.9881 4.05717 77.2714 8.10726 77.2714H21.8573C23.376 77.2714 24.6073 76.0402 24.6073 74.5214V66.2714H35.6073V74.5214C35.6073 76.0402 36.8385 77.2714 38.3573 77.2714H52.1073C52.4456 77.2714 52.7785 77.2485 53.1046 77.2041C53.2999 77.2481 53.5029 77.2713 53.7114 77.2713H68.6083C72.6592 77.2713 75.9406 73.9872 75.9406 69.938V41.9796C75.9406 39.6714 74.8538 37.4979 73.0073 36.113L69.3406 33.363C68.1256 32.4517 66.4019 32.6979 65.4906 33.913C64.5793 35.128 64.8256 36.8517 66.0406 37.763L69.7073 40.513C70.1689 40.8592 70.4406 41.4026 70.4406 41.9796V69.938C70.4406 70.9513 69.62 71.7713 68.6083 71.7713H59.2096C59.3604 71.1853 59.4406 70.5711 59.4406 69.938V7.6047C59.4406 3.55461 56.1574 0.271362 52.1073 0.271362H8.10726C4.05717 0.271362 0.773926 3.55461 0.773926 7.6047V69.938ZM8.10726 71.7714C7.09474 71.7714 6.27393 70.9506 6.27393 69.938V7.6047C6.27393 6.59218 7.09474 5.77136 8.10726 5.77136H52.1073C53.1198 5.77136 53.9406 6.59218 53.9406 7.6047V69.938C53.9406 70.9506 53.1198 71.7714 52.1073 71.7714H41.1073V63.5214C41.1073 62.0026 39.876 60.7714 38.3573 60.7714H21.8573C20.3385 60.7714 19.1073 62.0026 19.1073 63.5214V71.7714H8.10726Z" fill="#F36B09"/>
</svg>
