<svg width="89" height="89" viewBox="0 0 89 89" fill="none" xmlns="http://www.w3.org/2000/svg">
<path opacity="0.1" d="M62.1901 31.7714C64.7214 31.7714 66.7734 29.7194 66.7734 27.1881C66.7734 24.6568 64.7214 22.6047 62.1901 22.6047C59.6588 22.6047 57.6068 24.6568 57.6068 27.1881C57.6068 29.7194 59.6588 31.7714 62.1901 31.7714Z" fill="#F36B09"/>
<path opacity="0.1" fill-rule="evenodd" clip-rule="evenodd" d="M58.5234 0.604736C41.8168 0.604736 28.2734 14.1481 28.2734 30.8547C28.2734 34.1014 28.7859 37.233 29.7358 40.1704L2.65283 67.2533C1.44948 68.4567 0.773438 70.0888 0.773438 71.7906V82.1885C0.773438 85.7323 3.64628 88.6051 7.1901 88.6051H12.6901C16.2339 88.6051 19.1068 85.7323 19.1068 82.1885V78.5209C19.1068 78.0146 19.5172 77.6042 20.0234 77.6042H30.0528C30.7872 77.6186 31.5127 77.3383 32.0518 76.7992L32.8337 76.0173C33.4354 75.4156 33.7734 74.5995 33.7734 73.7486V68.4376C33.7734 67.9313 34.1838 67.5209 34.6901 67.5209H38.6722C40.374 67.5209 42.0061 66.8449 43.2095 65.6415L49.2084 59.6426C52.1455 60.5924 55.277 61.1047 58.5234 61.1047C75.23 61.1047 88.7734 47.5613 88.7734 30.8547C88.7734 14.1481 75.23 0.604736 58.5234 0.604736ZM33.7734 30.8547C33.7734 17.1857 44.8544 6.10474 58.5234 6.10474C72.1925 6.10474 83.2734 17.1857 83.2734 30.8547C83.2734 44.5238 72.1925 55.6047 58.5234 55.6047C55.3331 55.6047 52.29 55.0025 49.4969 53.9079C48.4792 53.5091 47.3219 53.7509 46.549 54.5238L39.3204 61.7524C39.1485 61.9243 38.9153 62.0209 38.6722 62.0209H34.6901C31.1463 62.0209 28.2734 64.8937 28.2734 68.4376V72.1042H20.0234C16.4796 72.1042 13.6068 74.9771 13.6068 78.5209V82.1885C13.6068 82.6947 13.1964 83.1051 12.6901 83.1051H7.1901C6.68384 83.1051 6.27344 82.6947 6.27344 82.1885V71.7906C6.27344 71.5475 6.37002 71.3143 6.54192 71.1424L34.8546 42.8297C35.6275 42.0568 35.8693 40.8995 35.4704 39.8817C34.3758 37.0886 33.7734 34.0453 33.7734 30.8547Z" fill="#F36B09"/>
</svg>
