<svg width="32" height="31" viewBox="0 0 32 31" fill="none" xmlns="http://www.w3.org/2000/svg">
<path d="M20.6043 15.4293C20.6043 16.7024 20.0986 17.9233 19.1985 18.8235C18.2983 19.7236 17.0774 20.2293 15.8043 20.2293C14.5313 20.2293 13.3104 19.7236 12.4102 18.8235C11.51 17.9233 11.0043 16.7024 11.0043 15.4293C11.0043 15.1557 11.0331 14.8885 11.0827 14.6293H9.40434V21.0245C9.40434 21.4693 9.76434 21.8293 10.2091 21.8293H21.4011C21.6143 21.8289 21.8186 21.7439 21.9692 21.5931C22.1198 21.4422 22.2043 21.2377 22.2043 21.0245V14.6293H20.5259C20.5755 14.8885 20.6043 15.1557 20.6043 15.4293ZM15.8043 18.6293C16.2247 18.6292 16.6409 18.5463 17.0292 18.3854C17.4175 18.2244 17.7703 17.9886 18.0674 17.6913C18.3646 17.394 18.6002 17.0411 18.761 16.6527C18.9218 16.2643 19.0044 15.8481 19.0043 15.4277C19.0042 15.0074 18.9213 14.5912 18.7604 14.2029C18.5994 13.8146 18.3636 13.4618 18.0663 13.1647C17.769 12.8675 17.4161 12.6318 17.0277 12.4711C16.6393 12.3103 16.2231 12.2276 15.8027 12.2277C14.9538 12.2279 14.1398 12.5654 13.5397 13.1658C12.9395 13.7662 12.6025 14.5804 12.6027 15.4293C12.6029 16.2782 12.9404 17.0923 13.5408 17.6924C14.1412 18.2925 14.9554 18.6295 15.8043 18.6293ZM19.6443 12.0693H21.5627C21.6902 12.0693 21.8124 12.0188 21.9027 11.9288C21.993 11.8389 22.0439 11.7168 22.0443 11.5893V9.67094C22.0443 9.54321 21.9936 9.42071 21.9033 9.33039C21.813 9.24008 21.6905 9.18934 21.5627 9.18934H19.6443C19.5166 9.18934 19.3941 9.24008 19.3038 9.33039C19.2135 9.42071 19.1627 9.54321 19.1627 9.67094V11.5893C19.1643 11.8533 19.3803 12.0693 19.6443 12.0693ZM15.8043 0.0693359C11.7306 0.0693359 7.82373 1.68762 4.94318 4.56818C2.06262 7.44873 0.444336 11.3556 0.444336 15.4293C0.444336 19.5031 2.06262 23.4099 4.94318 26.2905C7.82373 29.1711 11.7306 30.7893 15.8043 30.7893C17.8214 30.7893 19.8188 30.392 21.6824 29.6201C23.5459 28.8482 25.2392 27.7168 26.6655 26.2905C28.0918 24.8642 29.2232 23.1709 29.9951 21.3074C30.767 19.4438 31.1643 17.4464 31.1643 15.4293C31.1643 13.4122 30.767 11.4149 29.9951 9.55132C29.2232 7.68776 28.0918 5.99448 26.6655 4.56818C25.2392 3.14187 23.5459 2.01046 21.6824 1.23855C19.8188 0.466634 17.8214 0.0693359 15.8043 0.0693359ZM23.8043 21.6517C23.8043 22.6293 23.0043 23.4293 22.0267 23.4293H9.58194C8.60434 23.4293 7.80434 22.6293 7.80434 21.6517V9.20694C7.80434 8.22934 8.60434 7.42934 9.58194 7.42934H22.0267C23.0043 7.42934 23.8043 8.22934 23.8043 9.20694V21.6517Z" fill="#3F729B"/>
</svg>
