<svg width="32" height="31" viewBox="0 0 32 31" fill="none" xmlns="http://www.w3.org/2000/svg">
<path d="M15.8043 0.0693359C7.32114 0.0693359 0.444336 6.94614 0.444336 15.4293C0.444336 23.9125 7.32114 30.7893 15.8043 30.7893C24.2875 30.7893 31.1643 23.9125 31.1643 15.4293C31.1643 6.94614 24.2875 0.0693359 15.8043 0.0693359ZM12.0443 21.7957H8.93394V11.7861H12.0443V21.7957ZM10.4699 10.5573C9.48754 10.5573 8.85234 9.86134 8.85234 9.00054C8.85234 8.12214 9.50674 7.44694 10.5099 7.44694C11.5131 7.44694 12.1275 8.12214 12.1467 9.00054C12.1467 9.86134 11.5131 10.5573 10.4699 10.5573ZM23.4043 21.7957H20.2939V16.2485C20.2939 14.9573 19.8427 14.0805 18.7179 14.0805C17.8587 14.0805 17.3483 14.6741 17.1227 15.2453C17.0395 15.4485 17.0187 15.7365 17.0187 16.0229V21.7941H13.9067V14.9781C13.9067 13.7285 13.8667 12.6837 13.8251 11.7845H16.5275L16.6699 13.1749H16.7323C17.1419 12.5221 18.1451 11.5589 19.8235 11.5589C21.8699 11.5589 23.4043 12.9301 23.4043 15.8773V21.7957Z" fill="#0077B5"/>
</svg>
