<svg width="51" height="42" viewBox="0 0 51 42" fill="none" xmlns="http://www.w3.org/2000/svg">
<path fill-rule="evenodd" clip-rule="evenodd" d="M0.122803 29.2288H7.84319L11.406 25.124V33.176C11.406 33.547 11.6114 33.8875 11.9396 34.0606L25.1926 41.0492C25.4845 41.2031 25.8336 41.2031 26.1255 41.0492L39.3785 34.0606C39.7067 33.8875 39.9121 33.547 39.9121 33.176V30.4315H39.9126L40.012 26.6066L42.288 29.2288H48.8207H50.0084L40.2318 18.1519L40.5065 7.58303H35.7554L35.6166 12.9231L25.0656 0.968872L0.122803 29.2288ZM35.0273 20.8636L25.0656 9.38672L16.5051 19.2493L16.1289 30.4165L26.3539 35.5292L35.0273 30.4165L35.0273 20.8636ZM22.0962 20.811H25.0656V23.8174H22.0962V20.811ZM25.0657 24.4186H22.0963V27.425H25.0657V24.4186ZM25.6596 20.811H28.629V23.8173H25.6596V20.811ZM28.629 24.4186H25.6596V27.425H28.629V24.4186Z" fill="white"/>
</svg>
