<svg width="46" height="35" viewBox="0 0 46 35" fill="none" xmlns="http://www.w3.org/2000/svg">
<path fill-rule="evenodd" clip-rule="evenodd" d="M36 6.5H32L31.8063 13.8602L31.3873 13.6419V25.4877L24.0849 29.7392L15.4763 25.4877L15.8852 13.5L12.0381 15.5037C11.7074 15.6759 11.5 16.0178 11.5 16.3906V27.6773C11.5 28.0501 11.7074 28.392 12.0381 28.5642L23.0381 34.2934C23.3276 34.4442 23.6724 34.4442 23.9619 34.2934L34.9619 28.5642C35.2926 28.392 35.5 28.0501 35.5 27.6773V25.5L36 6.5Z" fill="#F5811E"/>
<path d="M8.5 24.5H2L23 1L44 24.5H43H37.5L23 8L8.5 24.5Z" fill="#595959" stroke="white"/>
<rect x="20.5" y="17.5" width="2.5" height="2.5" fill="#595959"/>
<rect x="20.5" y="20.5" width="2.5" height="2.5" fill="#595959"/>
<rect x="23.5" y="17.5" width="2.5" height="2.5" fill="#595959"/>
<rect x="23.5" y="20.5" width="2.5" height="2.5" fill="#595959"/>
</svg>
