<svg width="33" height="33" viewBox="0 0 33 33" fill="none" xmlns="http://www.w3.org/2000/svg">
<path d="M16.8047 0.429199C7.97269 0.429199 0.804688 7.5972 0.804688 16.4292C0.804688 25.2612 7.97269 32.4292 16.8047 32.4292C25.6367 32.4292 32.8047 25.2612 32.8047 16.4292C32.8047 7.5972 25.6367 0.429199 16.8047 0.429199ZM16.8047 25.9012C11.5727 25.9012 7.33269 21.6612 7.33269 16.4292C7.33269 11.1972 11.5727 6.9572 16.8047 6.9572C22.0367 6.9572 26.2767 11.1972 26.2767 16.4292C26.2767 21.6612 22.0367 25.9012 16.8047 25.9012ZM16.8047 8.1252C12.2287 8.1252 8.50069 11.8532 8.50069 16.4292C8.50069 21.0052 12.2287 24.7332 16.8047 24.7332C21.3807 24.7332 25.1087 21.0052 25.1087 16.4292C25.1087 11.8532 21.3807 8.1252 16.8047 8.1252ZM13.7167 21.1492V11.7092L21.8927 16.4292L13.7167 21.1492Z" fill="#FF0000"/>
</svg>
