<svg width="32" height="31" viewBox="0 0 32 31" fill="none" xmlns="http://www.w3.org/2000/svg">
<path d="M15.8043 0.0693359C7.32114 0.0693359 0.444336 6.94614 0.444336 15.4293C0.444336 23.9125 7.32114 30.7893 15.8043 30.7893C24.2875 30.7893 31.1643 23.9125 31.1643 15.4293C31.1643 6.94614 24.2875 0.0693359 15.8043 0.0693359ZM22.0523 12.6517C22.0587 12.7829 22.0603 12.9141 22.0603 13.0421C22.0603 17.0421 19.0187 21.6517 13.4539 21.6517C11.8096 21.6545 10.1995 21.1822 8.81714 20.2917C9.05234 20.3205 9.29394 20.3317 9.53874 20.3317C10.9563 20.3317 12.2603 19.8501 13.2955 19.0373C12.6647 19.0249 12.0534 18.8161 11.5469 18.4398C11.0404 18.0635 10.6639 17.5385 10.4699 16.9381C10.923 17.0243 11.3897 17.0062 11.8347 16.8853C11.15 16.7469 10.5343 16.3759 10.0919 15.8352C9.64948 15.2945 9.40771 14.6175 9.40754 13.9189V13.8821C9.81554 14.1077 10.2827 14.2453 10.7787 14.2613C10.1368 13.834 9.68239 13.1776 9.50841 12.4263C9.33442 11.6751 9.45402 10.8857 9.84274 10.2197C10.6027 11.1541 11.5504 11.9185 12.6244 12.4634C13.6985 13.0083 14.8751 13.3216 16.0779 13.3829C15.925 12.7338 15.9908 12.0524 16.2652 11.4445C16.5395 10.8367 17.0069 10.3365 17.5949 10.0218C18.1828 9.707 18.8582 9.59529 19.5162 9.70401C20.1741 9.81273 20.7777 10.1358 21.2331 10.6229C21.9102 10.489 22.5595 10.2406 23.1531 9.88854C22.9275 10.5896 22.455 11.1848 21.8235 11.5637C22.4233 11.4915 23.0089 11.3303 23.5611 11.0853C23.1555 11.6932 22.6446 12.2236 22.0523 12.6517Z" fill="#00ACEE"/>
</svg>
