<svg width="41" height="41" viewBox="0 0 41 41" fill="none" xmlns="http://www.w3.org/2000/svg">
<circle cx="20.5322" cy="20.2356" r="19.5" fill="white" stroke="#F36B09"/>
<path d="M26.522 9.83159C25.5133 9.72458 24.4994 9.6725 23.485 9.67559C20.122 9.67559 18.032 11.8176 18.032 15.2656V17.6066H15.207C15.0744 17.6066 14.9472 17.6593 14.8535 17.753C14.7597 17.8468 14.707 17.974 14.707 18.1066V21.9566C14.707 22.0892 14.7597 22.2164 14.8535 22.3101C14.9472 22.4039 15.0744 22.4566 15.207 22.4566H18.032V30.1766C18.032 30.3092 18.0847 30.4364 18.1785 30.5301C18.2722 30.6239 18.3994 30.6766 18.532 30.6766H22.51C22.6426 30.6766 22.7698 30.6239 22.8636 30.5301C22.9574 30.4364 23.01 30.3092 23.01 30.1766V22.4566H25.826C25.9474 22.4567 26.0647 22.4125 26.156 22.3325C26.2472 22.2525 26.3063 22.142 26.322 22.0216L26.819 18.1716C26.8283 18.101 26.8224 18.0293 26.8017 17.9612C26.781 17.8931 26.746 17.8302 26.699 17.7767C26.6521 17.7232 26.5942 17.6804 26.5294 17.6511C26.4646 17.6217 26.3942 17.6066 26.323 17.6066H23.01V15.6476C23.01 14.6776 23.205 14.2726 24.418 14.2726H26.457C26.5896 14.2726 26.7168 14.2199 26.8106 14.1261C26.9044 14.0324 26.957 13.9052 26.957 13.7726V10.3276C26.9571 10.2062 26.913 10.0889 26.8329 9.99767C26.7529 9.9064 26.6424 9.84737 26.522 9.83159ZM25.957 13.2716L24.417 13.2726C22.26 13.2726 22.01 14.6286 22.01 15.6476V18.1076C22.01 18.24 22.0626 18.3671 22.1561 18.4608C22.2497 18.5545 22.3766 18.6073 22.509 18.6076H25.755L25.386 21.4576H22.51C22.3774 21.4576 22.2502 21.5103 22.1565 21.604C22.0627 21.6978 22.01 21.825 22.01 21.9576V29.6756H19.032V21.9576C19.032 21.825 18.9794 21.6978 18.8856 21.604C18.7918 21.5103 18.6646 21.4576 18.532 21.4576H15.708V18.6076H18.532C18.6646 18.6076 18.7918 18.5549 18.8856 18.4611C18.9794 18.3674 19.032 18.2402 19.032 18.1076V15.2656C19.032 12.3916 20.697 10.6756 23.485 10.6756C24.494 10.6756 25.405 10.7306 25.957 10.7786V13.2716Z" fill="#2461FD" fill-opacity="0.87"/>
</svg>
