<svg width="41" height="41" viewBox="0 0 41 41" fill="none" xmlns="http://www.w3.org/2000/svg">
<circle cx="20.5322" cy="20.2356" r="19.5" fill="white" stroke="#F36B09"/>
<path d="M22.5452 19.7901C22.5452 18.3081 24.9527 18.1791 24.9527 15.2818C24.9527 13.1841 23.494 12.1791 23.3447 12.0883H24.7982L26.251 11.2356H21.5432C16.753 11.2356 15.9857 14.5873 15.9857 15.6981C15.9857 17.3526 17.2802 19.4091 19.885 19.4091C20.122 19.4091 20.374 19.3941 20.641 19.3656C20.596 19.4886 20.4085 19.9101 20.4085 20.2911C20.4085 21.0883 20.9185 21.5946 21.0947 21.9028C18.2447 21.8766 14.8135 23.1126 14.8135 25.8628C14.8135 26.8678 15.6775 29.2356 19.738 29.2356C24.37 29.2356 25.7732 26.3758 25.7732 24.7731C25.7702 21.7123 22.5452 21.2053 22.5452 19.7901ZM20.9717 18.7678C19.3517 18.7678 17.9837 16.7286 17.9837 14.5491C17.9837 13.9018 18.2942 12.0208 20.0867 12.0208C22.3952 12.0208 22.9577 15.4423 22.9577 16.3746C22.9577 16.5913 23.11 18.7678 20.9717 18.7678ZM20.8607 28.2456C19.375 28.2456 16.8115 27.6126 16.8115 25.3626C16.8115 24.5826 17.266 22.5471 21.2087 22.5471C21.4112 22.5471 21.5867 22.5561 21.736 22.5703C22.5565 23.1831 24.256 24.0673 24.256 25.6963C24.256 26.4351 23.8165 28.2456 20.8607 28.2456Z" fill="#FF3B3B"/>
</svg>
