<svg width="25" height="22" viewBox="0 0 25 22" fill="none" xmlns="http://www.w3.org/2000/svg">
<path d="M12.5645 0.873047C9.81641 0.873047 7.42578 2.86279 6.76367 5.59717C5.14649 5.84741 3.86328 7.19019 3.61133 8.93579C1.81836 9.57056 0.564453 11.3528 0.564453 13.373C0.564453 15.9548 2.58594 18.0605 5.06445 18.0605H9.56445V16.498H5.06445C3.41211 16.498 2.06445 15.0942 2.06445 13.373C2.06445 11.8899 3.07812 10.6021 4.4668 10.3091L5.08203 10.126L5.06445 9.4668C5.06445 8.17285 6.07227 7.12305 7.23828 7.11694L7.39062 7.13525H8.04102L8.13477 6.45776C8.44531 4.16284 10.3496 2.43555 12.5645 2.43555C14.375 2.43555 16.0039 3.55859 16.7129 5.29199L16.9766 5.96338L17.6328 5.73145C17.9727 5.61548 18.2773 5.56055 18.5645 5.56055C20.2168 5.56055 21.5645 6.96436 21.5645 8.68555C21.5645 9.05176 21.4941 9.42407 21.3535 9.79639L21.1426 10.3945L21.6582 10.7363C22.5371 11.3162 23.0645 12.2988 23.0645 13.373C23.0645 15.0942 21.7168 16.498 20.0645 16.498H14.0645V18.0605H20.0645C22.543 18.0605 24.5645 15.9548 24.5645 13.373C24.5645 11.9692 23.9668 10.657 22.9355 9.77197C23.0234 9.41187 23.0645 9.04565 23.0645 8.68555C23.0645 5.84131 20.6504 3.52197 17.8027 4.07129C16.748 2.11206 14.7617 0.873047 12.5645 0.873047ZM11.8145 10.248L8.06445 14.9355H11.0645V21.1855H12.5645V14.9355H15.5645L11.8145 10.248Z" fill="#414346"/>
</svg>
