<svg width="23" height="23" viewBox="0 0 23 23" fill="none" xmlns="http://www.w3.org/2000/svg">
<g clip-path="url(#clip0_1217_10327)">
<path d="M11.0844 1.2832C5.25221 1.2832 0.524414 6.011 0.524414 11.8432C0.524414 17.6754 5.25221 22.4032 11.0844 22.4032C16.9166 22.4032 21.6444 17.6754 21.6444 11.8432C21.6444 6.011 16.9166 1.2832 11.0844 1.2832ZM13.5858 8.5806H11.9985C11.8104 8.5806 11.6014 8.8281 11.6014 9.157V10.3032H13.5869L13.2866 11.9378H11.6014V16.8449H9.72812V11.9378H8.02861V10.3032H9.72812V9.3418C9.72812 7.9624 10.6851 6.8415 11.9985 6.8415H13.5858V8.5806Z" fill="#3B5998"/>
</g>
<defs>
<clipPath id="clip0_1217_10327">
<rect width="22" height="22" fill="white" transform="translate(0.0839844 0.84375)"/>
</clipPath>
</defs>
</svg>
