<svg width="23" height="23" viewBox="0 0 23 23" fill="none" xmlns="http://www.w3.org/2000/svg">
<g clip-path="url(#clip0_1217_10335)">
<path d="M14.4606 11.6166C14.4606 12.4919 14.1129 13.3312 13.494 13.9501C12.8752 14.569 12.0358 14.9166 11.1606 14.9166C10.2854 14.9166 9.446 14.569 8.82713 13.9501C8.20826 13.3312 7.86059 12.4919 7.86059 11.6166C7.86059 11.4285 7.88039 11.2448 7.91449 11.0666H6.76059V15.4633C6.76059 15.7691 7.00809 16.0166 7.31389 16.0166H15.0084C15.1549 16.0163 15.2954 15.9579 15.3989 15.8542C15.5024 15.7505 15.5606 15.6099 15.5606 15.4633V11.0666H14.4067C14.4408 11.2448 14.4606 11.4285 14.4606 11.6166ZM11.1606 13.8166C11.4496 13.8166 11.7357 13.7596 12.0027 13.6489C12.2696 13.5383 12.5122 13.3761 12.7164 13.1717C12.9207 12.9673 13.0828 12.7247 13.1933 12.4577C13.3038 12.1907 13.3607 11.9045 13.3606 11.6155C13.3605 11.3266 13.3035 11.0404 13.1929 10.7735C13.0822 10.5065 12.9201 10.264 12.7157 10.0597C12.5113 9.85539 12.2687 9.69336 12.0016 9.58284C11.7346 9.47232 11.4485 9.41547 11.1595 9.41554C10.5759 9.41569 10.0162 9.64767 9.60362 10.0605C9.19104 10.4732 8.95934 11.033 8.95949 11.6166C8.95963 12.2003 9.19162 12.7599 9.6044 13.1725C10.0172 13.5851 10.577 13.8168 11.1606 13.8166ZM13.8006 9.30664H15.1195C15.2071 9.30664 15.2912 9.27191 15.3532 9.21005C15.4153 9.1482 15.4503 9.06426 15.4506 8.97664V7.65774C15.4506 7.56993 15.4157 7.48571 15.3536 7.42362C15.2915 7.36152 15.2073 7.32664 15.1195 7.32664H13.8006C13.7128 7.32664 13.6286 7.36152 13.5665 7.42362C13.5044 7.48571 13.4695 7.56993 13.4695 7.65774V8.97664C13.4706 9.15814 13.6191 9.30664 13.8006 9.30664ZM11.1606 1.05664C8.3599 1.05664 5.67392 2.16921 3.69354 4.14959C1.71315 6.12998 0.600586 8.81596 0.600586 11.6166C0.600586 14.4173 1.71315 17.1033 3.69354 19.0837C5.67392 21.0641 8.3599 22.1766 11.1606 22.1766C12.5473 22.1766 13.9205 21.9035 15.2017 21.3728C16.4829 20.8421 17.647 20.0643 18.6276 19.0837C19.6082 18.1031 20.3861 16.939 20.9168 15.6578C21.4474 14.3766 21.7206 13.0034 21.7206 11.6166C21.7206 10.2299 21.4474 8.8567 20.9168 7.5755C20.3861 6.29431 19.6082 5.13018 18.6276 4.14959C17.647 3.16901 16.4829 2.39116 15.2017 1.86047C13.9205 1.32978 12.5473 1.05664 11.1606 1.05664ZM16.6606 15.8945C16.6606 16.5666 16.1106 17.1166 15.4385 17.1166H6.88269C6.21059 17.1166 5.66059 16.5666 5.66059 15.8945V7.33874C5.66059 6.66664 6.21059 6.11664 6.88269 6.11664H15.4385C16.1106 6.11664 16.6606 6.66664 16.6606 7.33874V15.8945Z" fill="#3F729B"/>
</g>
<defs>
<clipPath id="clip0_1217_10335">
<rect width="22" height="22" fill="white" transform="translate(0.160156 0.617188)"/>
</clipPath>
</defs>
</svg>
