<svg width="99" height="105" viewBox="0 0 99 105" fill="none" xmlns="http://www.w3.org/2000/svg">
<path d="M49.6882 104.249C48.0768 104.243 46.4724 104.036 44.9127 103.631L44.6052 103.546L44.32 103.403C34.0098 98.2336 25.3117 91.4056 18.4671 83.1086C12.8013 76.2001 8.38389 68.3562 5.41366 59.9296C1.86173 49.841 0.152905 39.1958 0.368756 28.5023C0.373104 28.2779 0.376802 28.1045 0.376802 27.9851C0.376802 22.787 3.2622 18.2259 7.72764 16.3653C11.1453 14.9413 42.1758 2.19582 44.4178 1.27492C48.6402 -0.840751 53.1447 0.925131 53.8656 1.23391C55.4825 1.89498 84.1683 13.6278 90.3673 16.5796C96.756 19.6218 98.4605 25.0871 98.4605 27.8367C98.4605 40.2853 96.3046 51.9195 92.0525 62.4161C88.6185 70.9124 83.7515 78.7561 77.6635 85.6055C65.9173 98.8241 54.168 103.51 54.0546 103.551C52.6504 104.035 51.173 104.27 49.6882 104.249ZM46.9251 97.4044C47.9438 97.6328 50.289 97.9754 51.8176 97.4177C53.7594 96.7096 63.5934 91.6101 72.7829 81.2686C85.4797 66.9803 91.9221 49.0187 91.9315 27.8827C91.9088 27.4545 91.6047 24.4004 87.5602 22.4746C81.4815 19.5798 51.665 7.38792 51.3645 7.26504L51.2821 7.23011C50.6573 6.96826 48.6687 6.41673 47.2979 7.13505L47.0234 7.26301C46.6911 7.3995 13.7518 20.9284 10.2388 22.3921C7.78139 23.416 6.90582 25.9527 6.90582 27.9851C6.90582 28.1337 6.90198 28.3497 6.89654 28.629C6.6158 43.091 9.96239 78.6777 46.9251 97.4044Z" fill="#3F3D56"/>
<path d="M45.7835 4.24303C45.7835 4.24303 12.5448 17.8946 8.98356 19.3785C5.42228 20.8624 3.64163 24.4236 3.64163 27.9849C3.64163 31.5462 0.97065 78.0162 45.7835 100.484C45.7835 100.484 49.8507 101.61 52.9364 100.484C56.0222 99.359 95.1963 80.3655 95.1963 27.8365C95.1963 27.8365 95.1963 22.4946 88.9641 19.5269C82.7318 16.5591 52.5999 4.24303 52.5999 4.24303C52.5999 4.24303 48.8996 2.61077 45.7835 4.24303Z" fill="#F36B09"/>
<path opacity="0.2" d="M49.3447 14.9258V87.7522C49.3447 87.7522 82.8802 71.6096 82.5834 29.1709L49.3447 14.9258Z" fill="black"/>
</svg>
