<svg width="22" height="23" viewBox="0 0 22 23" fill="none" xmlns="http://www.w3.org/2000/svg">
<path d="M11.001 0.347656C4.92577 0.347656 0.000976562 5.27245 0.000976562 11.3477C0.000976562 17.4229 4.92577 22.3477 11.001 22.3477C17.0762 22.3477 22.001 17.4229 22.001 11.3477C22.001 5.27245 17.0762 0.347656 11.001 0.347656ZM15.4755 9.35849C15.48 9.45245 15.4812 9.54641 15.4812 9.63807C15.4812 12.5027 13.303 15.8038 9.31775 15.8038C8.14017 15.8058 6.98708 15.4676 5.99712 14.8298C6.16556 14.8505 6.33858 14.8585 6.51389 14.8585C7.5291 14.8585 8.46296 14.5136 9.20431 13.9315C8.75253 13.9226 8.31477 13.773 7.95204 13.5036C7.58932 13.2341 7.3197 12.8582 7.18077 12.4282C7.50522 12.4899 7.83945 12.4769 8.15816 12.3904C7.6678 12.2912 7.22683 12.0255 6.91002 11.6383C6.59321 11.2511 6.42006 10.7663 6.41993 10.266V10.2396C6.71212 10.4012 7.04671 10.4997 7.40191 10.5112C6.9422 10.2052 6.61677 9.73509 6.49217 9.19708C6.36757 8.65907 6.45322 8.09378 6.7316 7.61682C7.27582 8.28599 7.9545 8.83341 8.72371 9.22364C9.49292 9.61387 10.3355 9.83821 11.1969 9.88214C11.0874 9.41728 11.1345 8.92927 11.331 8.49396C11.5274 8.05866 11.8622 7.70046 12.2832 7.47504C12.7043 7.24963 13.188 7.16963 13.6592 7.24749C14.1304 7.32535 14.5626 7.5567 14.8888 7.90557C15.3737 7.80964 15.8387 7.63178 16.2638 7.37964C16.1022 7.88166 15.7638 8.30796 15.3116 8.57932C15.7411 8.52759 16.1605 8.41212 16.556 8.23672C16.2655 8.67201 15.8996 9.05191 15.4755 9.35849Z" fill="#00ACEE"/>
</svg>
