<svg width="23" height="23" viewBox="0 0 23 23" fill="none" xmlns="http://www.w3.org/2000/svg">
<g clip-path="url(#clip0_1217_10343)">
<path d="M11.1191 0.761719C5.04714 0.761719 0.119141 5.68972 0.119141 11.7617C0.119141 17.8337 5.04714 22.7617 11.1191 22.7617C17.1911 22.7617 22.1191 17.8337 22.1191 11.7617C22.1191 5.68972 17.1911 0.761719 11.1191 0.761719ZM11.1191 18.2737C7.52214 18.2737 4.60714 15.3587 4.60714 11.7617C4.60714 8.16472 7.52214 5.24972 11.1191 5.24972C14.7161 5.24972 17.6311 8.16472 17.6311 11.7617C17.6311 15.3587 14.7161 18.2737 11.1191 18.2737ZM11.1191 6.05272C7.97314 6.05272 5.41014 8.61572 5.41014 11.7617C5.41014 14.9077 7.97314 17.4707 11.1191 17.4707C14.2651 17.4707 16.8281 14.9077 16.8281 11.7617C16.8281 8.61572 14.2651 6.05272 11.1191 6.05272ZM8.99614 15.0067V8.51672L14.6171 11.7617L8.99614 15.0067Z" fill="#FF0000"/>
</g>
<defs>
<clipPath id="clip0_1217_10343">
<rect width="22" height="22" fill="white" transform="translate(0.119141 0.761719)"/>
</clipPath>
</defs>
</svg>
