<svg width="121" height="18" viewBox="0 0 121 18" fill="none" xmlns="http://www.w3.org/2000/svg">
<path d="M10.1158 0.386928C10.0151 0.182888 9.80729 0.0537109 9.57975 0.0537109C9.35222 0.0537109 9.14441 0.182888 9.04371 0.386928L6.60616 5.32595L1.15563 6.11796C0.930455 6.15068 0.743386 6.30839 0.673073 6.52479C0.602761 6.74119 0.6614 6.97875 0.824335 7.13757L4.76838 10.9821L3.83732 16.4106C3.79885 16.6348 3.89104 16.8615 4.07512 16.9952C4.2592 17.129 4.50325 17.1466 4.70465 17.0407L9.57975 14.4777L14.4549 17.0407C14.6563 17.1466 14.9003 17.129 15.0844 16.9952C15.2685 16.8615 15.3607 16.6348 15.3222 16.4106L14.3911 10.9821L18.3352 7.13757C18.4981 6.97875 18.5567 6.74119 18.4864 6.52479C18.4161 6.30839 18.2291 6.15068 18.0039 6.11796L12.5533 5.32595L10.1158 0.386928Z" fill="#03A66D"/>
<path d="M35.6207 0.386928C35.52 0.182888 35.3122 0.0537109 35.0846 0.0537109C34.8571 0.0537109 34.6493 0.182888 34.5486 0.386928L32.111 5.32595L26.6605 6.11796C26.4353 6.15068 26.2483 6.30839 26.178 6.52479C26.1076 6.74119 26.1663 6.97875 26.3292 7.13757L30.2733 10.9821L29.3422 16.4106C29.3037 16.6348 29.3959 16.8615 29.58 16.9952C29.7641 17.129 30.0081 17.1466 30.2095 17.0407L35.0846 14.4777L39.9597 17.0407C40.1611 17.1466 40.4052 17.129 40.5893 16.9952C40.7733 16.8615 40.8655 16.6348 40.8271 16.4106L39.896 10.9821L43.8401 7.13757C44.003 6.97875 44.0616 6.74119 43.9913 6.52479C43.921 6.30839 43.7339 6.15068 43.5088 6.11796L38.0582 5.32595L35.6207 0.386928Z" fill="#03A66D"/>
<path d="M61.1256 0.386928C61.0249 0.182888 60.8171 0.0537109 60.5895 0.0537109C60.362 0.0537109 60.1542 0.182888 60.0535 0.386928L57.6159 5.32595L52.1654 6.11796C51.9402 6.15068 51.7532 6.30839 51.6828 6.52479C51.6125 6.74119 51.6712 6.97875 51.8341 7.13757L55.7781 10.9821L54.8471 16.4106C54.8086 16.6348 54.9008 16.8615 55.0849 16.9952C55.269 17.129 55.513 17.1466 55.7144 17.0407L60.5895 14.4777L65.4646 17.0407C65.666 17.1466 65.9101 17.129 66.0942 16.9952C66.2782 16.8615 66.3704 16.6348 66.332 16.4106L65.4009 10.9821L69.3449 7.13757C69.5079 6.97875 69.5665 6.74119 69.4962 6.52479C69.4259 6.30839 69.2388 6.15068 69.0136 6.11796L63.5631 5.32595L61.1256 0.386928Z" fill="#03A66D"/>
<path d="M86.63 0.386928C86.5293 0.182888 86.3214 0.0537109 86.0939 0.0537109C85.8664 0.0537109 85.6586 0.182888 85.5579 0.386928L83.1203 5.32595L77.6698 6.11796C77.4446 6.15068 77.2575 6.30839 77.1872 6.52479C77.1169 6.74119 77.1756 6.97875 77.3385 7.13757L81.2825 10.9821L80.3515 16.4106C80.313 16.6348 80.4052 16.8615 80.5893 16.9952C80.7734 17.129 81.0174 17.1466 81.2188 17.0407L86.0939 14.4777L90.969 17.0407C91.1704 17.1466 91.4145 17.129 91.5985 16.9952C91.7826 16.8615 91.8748 16.6348 91.8364 16.4106L90.9053 10.9821L94.8493 7.13757C95.0123 6.97875 95.0709 6.74119 95.0006 6.52479C94.9303 6.30839 94.7432 6.15068 94.518 6.11796L89.0675 5.32595L86.63 0.386928Z" fill="#03A66D"/>
<path fill-rule="evenodd" clip-rule="evenodd" d="M111.599 0.0537109C111.826 0.0537109 112.034 0.182888 112.135 0.386928L114.572 5.32595L120.023 6.11796C120.248 6.15068 120.435 6.30839 120.505 6.52479C120.576 6.74119 120.517 6.97875 120.354 7.13757L116.41 10.9821L117.341 16.4106C117.38 16.6348 117.288 16.8615 117.103 16.9952C116.919 17.129 116.675 17.1466 116.474 17.0407L111.599 14.4777L106.724 17.0407C106.522 17.1466 106.278 17.129 106.094 16.9952C105.91 16.8615 105.818 16.6348 105.856 16.4106L106.787 10.9821L102.843 7.13757C102.68 6.97875 102.622 6.74119 102.692 6.52479C102.762 6.30839 102.949 6.15068 103.175 6.11796L108.625 5.32595L111.063 0.386928C111.163 0.182888 111.371 0.0537109 111.599 0.0537109ZM111.599 2.00217L109.558 6.13687C109.471 6.31329 109.303 6.43558 109.108 6.46387L104.545 7.1269L107.847 10.3453C107.988 10.4826 108.052 10.6805 108.019 10.8744L107.239 15.4189L111.321 13.2733C111.495 13.1817 111.703 13.1817 111.877 13.2733L115.958 15.4189L115.179 10.8744C115.145 10.6805 115.21 10.4826 115.351 10.3453L118.652 7.1269L114.089 6.46387C113.895 6.43558 113.726 6.31329 113.639 6.13687L111.599 2.00217Z" fill="#03A66D"/>
<path fill-rule="evenodd" clip-rule="evenodd" d="M111.599 0.0537109C111.599 0.0537109 111.599 0.0537109 111.599 0.0537109C111.371 0.0537109 111.163 0.182888 111.063 0.386928L108.625 5.32595L103.175 6.11796C102.949 6.15068 102.762 6.30839 102.692 6.52479C102.622 6.74119 102.68 6.97875 102.843 7.13757L106.787 10.9821L105.856 16.4106C105.818 16.6348 105.91 16.8615 106.094 16.9952C106.278 17.129 106.522 17.1466 106.724 17.0407L111.599 14.4777L111.599 14.4778V0.0537109Z" fill="#03A66D"/>
</svg>
