<svg width="75" height="65" viewBox="0 0 75 65" fill="none" xmlns="http://www.w3.org/2000/svg">
<path d="M2.71249 23.5488C2.36074 23.5492 2.02352 23.6892 1.7748 23.9379C1.52608 24.1866 1.38616 24.5238 1.38574 24.8756V39.6245C1.38616 39.9762 1.52608 40.3134 1.7748 40.5622C2.02352 40.8109 2.36074 40.9508 2.71249 40.9512H73.3298C73.6815 40.9508 74.0187 40.8109 74.2674 40.5622C74.5162 40.3134 74.6561 39.9762 74.6565 39.6245V24.8756C74.6561 24.5238 74.5162 24.1866 74.2674 23.9379C74.0187 23.6892 73.6815 23.5492 73.3298 23.5488L2.71249 23.5488Z" fill="#E6E6E6"/>
<path d="M3.18929 24.584C2.98533 24.5842 2.78978 24.6653 2.64554 24.8095C2.5013 24.9537 2.42016 25.1492 2.41992 25.3532V39.148C2.42017 39.3519 2.50131 39.5475 2.64554 39.6917C2.78977 39.8359 2.98531 39.917 3.18927 39.9172H72.8524C73.0564 39.917 73.2519 39.8359 73.3961 39.6917C73.5402 39.5474 73.6213 39.3519 73.6215 39.148V25.3532C73.6213 25.1493 73.5402 24.9538 73.3961 24.8095C73.2519 24.6653 73.0564 24.5842 72.8524 24.584H3.18929Z" fill="white"/>
<path d="M68.4781 36.1345C68.8087 36.1337 69.1256 36.0019 69.3593 35.7679C69.593 35.534 69.7244 35.217 69.7248 34.8863C69.7253 34.5557 69.5947 34.2383 69.3617 34.0037C69.1286 33.7691 68.8121 33.6365 68.4814 33.6348C68.4803 33.6348 68.4792 33.6348 68.4781 33.6348H9.55536C9.22475 33.6361 8.90814 33.7684 8.67484 34.0026C8.44153 34.2369 8.31055 34.554 8.31055 34.8846C8.31055 35.2153 8.44153 35.5324 8.67484 35.7667C8.90814 36.0009 9.22475 36.1332 9.55536 36.1345H68.4781Z" fill="#E6E6E6"/>
<path d="M34.9107 30.7039C35.075 30.7041 35.2377 30.6719 35.3895 30.6092C35.5413 30.5464 35.6793 30.4544 35.7955 30.3383C35.9117 30.2222 36.0039 30.0844 36.0668 29.9326C36.1297 29.7809 36.1621 29.6182 36.1621 29.454C36.1621 29.2897 36.1297 29.1271 36.0668 28.9753C36.0039 28.8236 35.9117 28.6857 35.7955 28.5696C35.6793 28.4536 35.5413 28.3615 35.3895 28.2988C35.2377 28.2361 35.075 28.2039 34.9107 28.2041H9.5561C9.39184 28.2039 9.22914 28.2361 9.07732 28.2988C8.9255 28.3615 8.78754 28.4536 8.67131 28.5696C8.55509 28.6857 8.46289 28.8236 8.39998 28.9753C8.33707 29.1271 8.30469 29.2897 8.30469 29.454C8.30469 29.6182 8.33707 29.7809 8.39998 29.9326C8.46289 30.0844 8.55509 30.2222 8.67131 30.3383C8.78754 30.4544 8.9255 30.5464 9.07732 30.6092C9.22914 30.6719 9.39184 30.7041 9.5561 30.7039H34.9107Z" fill="#F36B09"/>
<path d="M13.0336 52.0068C12.7847 52.0071 12.5461 52.1061 12.3701 52.2822C12.194 52.4582 12.095 52.6968 12.0947 52.9458V63.3833C12.095 63.6323 12.194 63.8709 12.3701 64.0469C12.5461 64.2229 12.7847 64.322 13.0336 64.3223H63.0085C63.2574 64.322 63.496 64.2229 63.6721 64.0469C63.8481 63.8709 63.9471 63.6323 63.9474 63.3833V52.9458C63.9471 52.6968 63.8481 52.4582 63.6721 52.2822C63.496 52.1061 63.2574 52.0071 63.0085 52.0068H13.0336Z" fill="#E6E6E6"/>
<path d="M13.3716 52.7393C13.2273 52.7394 13.0889 52.7968 12.9868 52.8989C12.8847 53.0009 12.8273 53.1393 12.8271 53.2836V63.046C12.8273 63.1903 12.8847 63.3287 12.9868 63.4308C13.0889 63.5328 13.2273 63.5902 13.3716 63.5904H62.6712C62.8155 63.5902 62.9539 63.5328 63.0559 63.4307C63.158 63.3287 63.2154 63.1903 63.2155 63.046V53.2836C63.2154 53.1393 63.158 53.0009 63.0559 52.8989C62.9539 52.7968 62.8155 52.7394 62.6712 52.7393H13.3716Z" fill="white"/>
<path d="M59.5761 60.9126C59.8106 60.9128 60.0356 60.8198 60.2016 60.6542C60.3676 60.4886 60.4611 60.2638 60.4614 60.0293C60.4617 59.7948 60.3689 59.5697 60.2033 59.4036C60.0378 59.2376 59.813 59.144 59.5785 59.1436C59.5777 59.1436 59.5769 59.1436 59.5761 59.1436H17.8774C17.643 59.1439 17.4184 59.2372 17.2528 59.4031C17.0872 59.5689 16.9941 59.7937 16.9941 60.0281C16.9941 60.2624 17.0872 60.4872 17.2528 60.6531C17.4184 60.8189 17.643 60.9123 17.8774 60.9126H59.5761Z" fill="#E6E6E6"/>
<path d="M35.8201 57.0708C35.9364 57.071 36.0515 57.0482 36.159 57.0038C36.2665 56.9595 36.3641 56.8943 36.4464 56.8122C36.5287 56.73 36.5939 56.6325 36.6385 56.5251C36.683 56.4177 36.7059 56.3025 36.7059 56.1863C36.7059 56.07 36.683 55.9549 36.6385 55.8475C36.5939 55.7401 36.5287 55.6425 36.4464 55.5604C36.3641 55.4782 36.2665 55.4131 36.159 55.3687C36.0515 55.3243 35.9364 55.3016 35.8201 55.3018H17.877C17.7608 55.3016 17.6456 55.3243 17.5381 55.3687C17.4307 55.4131 17.333 55.4782 17.2507 55.5604C17.1685 55.6425 17.1032 55.7401 17.0587 55.8475C17.0141 55.9549 16.9912 56.07 16.9912 56.1863C16.9912 56.3025 17.0141 56.4177 17.0587 56.5251C17.1032 56.6325 17.1685 56.73 17.2507 56.8122C17.333 56.8943 17.4307 56.9595 17.5381 57.0038C17.6456 57.0482 17.7608 57.071 17.877 57.0708H35.8201Z" fill="#E4E4E4"/>
<path d="M13.0336 0.178711C12.7847 0.179003 12.5461 0.278019 12.3701 0.454037C12.194 0.630055 12.095 0.868702 12.0947 1.11763V11.5552C12.095 11.8041 12.194 12.0428 12.3701 12.2188C12.5461 12.3948 12.7847 12.4938 13.0336 12.4941H63.0085C63.2574 12.4938 63.496 12.3948 63.6721 12.2188C63.8481 12.0428 63.9471 11.8041 63.9474 11.5552V1.11763C63.9471 0.868702 63.8481 0.630055 63.6721 0.454037C63.496 0.278019 63.2574 0.179003 63.0085 0.178711H13.0336Z" fill="#E6E6E6"/>
<path d="M13.3716 0.911133C13.2273 0.911278 13.0889 0.968672 12.9868 1.07073C12.8847 1.17278 12.8273 1.31116 12.8271 1.4555V11.2179C12.8273 11.3622 12.8847 11.5006 12.9868 11.6026C13.0889 11.7047 13.2273 11.7621 13.3716 11.7622H62.6712C62.8155 11.7621 62.9539 11.7047 63.0559 11.6026C63.158 11.5006 63.2154 11.3622 63.2155 11.2179V1.4555C63.2154 1.31118 63.158 1.17281 63.0559 1.07075C62.9539 0.968695 62.8155 0.91129 62.6712 0.911133H13.3716Z" fill="white"/>
<path d="M59.5761 9.08545C59.8106 9.08564 60.0356 8.99269 60.2016 8.82705C60.3676 8.66141 60.4611 8.43663 60.4614 8.20212C60.4617 7.96762 60.3689 7.74258 60.2033 7.57649C60.0378 7.4104 59.813 7.31685 59.5785 7.31641C59.5777 7.31641 59.5769 7.31641 59.5761 7.31641H17.8774C17.643 7.31675 17.4184 7.41009 17.2528 7.57593C17.0872 7.74178 16.9941 7.96656 16.9941 8.20093C16.9941 8.43529 17.0872 8.66008 17.2528 8.82592C17.4184 8.99176 17.643 9.08511 17.8774 9.08545H59.5761Z" fill="#E6E6E6"/>
<path d="M35.8201 5.24267C35.9364 5.24284 36.0515 5.22009 36.159 5.17571C36.2665 5.13134 36.3641 5.06621 36.4464 4.98406C36.5287 4.90191 36.5939 4.80434 36.6385 4.69694C36.683 4.58954 36.7059 4.47442 36.7059 4.35815C36.7059 4.24189 36.683 4.12676 36.6385 4.01936C36.5939 3.91196 36.5287 3.8144 36.4464 3.73225C36.3641 3.65009 36.2665 3.58497 36.159 3.54059C36.0515 3.49622 35.9364 3.47346 35.8201 3.47363H17.877C17.7608 3.47346 17.6456 3.49622 17.5381 3.54059C17.4307 3.58497 17.333 3.65009 17.2507 3.73225C17.1685 3.8144 17.1032 3.91196 17.0587 4.01936C17.0141 4.12676 16.9912 4.24189 16.9912 4.35815C16.9912 4.47442 17.0141 4.58954 17.0587 4.69694C17.1032 4.80434 17.1685 4.90191 17.2507 4.98406C17.333 5.06621 17.4307 5.13134 17.5381 5.17571C17.6456 5.22009 17.7608 5.24284 17.877 5.24267H35.8201Z" fill="#E4E4E4"/>
<path d="M3.29872 28.2742C5.06177 28.2742 6.491 26.845 6.491 25.0819C6.491 23.3189 5.06177 21.8896 3.29872 21.8896C1.53568 21.8896 0.106445 23.3189 0.106445 25.0819C0.106445 26.845 1.53568 28.2742 3.29872 28.2742Z" fill="#F36B09"/>
</svg>
