<svg width="75" height="75" viewBox="0 0 75 75" fill="none" xmlns="http://www.w3.org/2000/svg">
<path d="M74.8564 37.1718C74.8564 37.4473 74.8531 37.7222 74.8466 37.9967C74.8439 38.1761 74.8383 38.3556 74.8314 38.535C74.83 38.5865 74.8286 38.6365 74.8258 38.688C74.8216 38.7868 74.8174 38.8841 74.8133 38.9801C74.7827 39.6213 74.7354 40.2579 74.6714 40.8899C74.6686 40.9205 74.6658 40.9511 74.663 40.9803C74.6561 41.0429 74.6505 41.1055 74.6422 41.1681C74.6227 41.3559 74.6018 41.5437 74.5782 41.7287C74.5629 41.8539 74.5476 41.9777 74.5309 42.1028C74.5226 42.1627 74.5142 42.2225 74.5072 42.2809C74.4975 42.3463 74.4892 42.4103 74.4794 42.4742C74.4753 42.5021 74.4711 42.5299 74.4669 42.5591C74.453 42.6537 74.4391 42.7496 74.4238 42.8442C74.4057 42.968 74.3862 43.0904 74.3654 43.2142C74.3459 43.3366 74.325 43.459 74.3028 43.5814C74.2819 43.7039 74.2597 43.8263 74.2374 43.9487C74.2151 44.0725 74.1915 44.1949 74.1679 44.3173C74.0482 44.9237 73.9147 45.5251 73.7673 46.1214C73.7088 46.3537 73.649 46.5855 73.5878 46.8169C73.4863 47.1924 73.3792 47.5661 73.2665 47.938C73.2345 48.0409 73.2025 48.1438 73.1705 48.2454C73.1344 48.3622 73.0968 48.4791 73.0592 48.5945C73.0217 48.7114 72.9841 48.8268 72.9452 48.9423C72.9062 49.0577 72.8673 49.1732 72.827 49.2886C72.788 49.4027 72.7477 49.5181 72.7059 49.6322C72.6656 49.7476 72.6239 49.8617 72.5821 49.9758C72.539 50.0898 72.4973 50.2039 72.4542 50.3165C72.3679 50.5447 72.2794 50.7705 72.1885 50.994C72.144 51.1066 72.0981 51.2193 72.0508 51.3306C71.8658 51.7785 71.672 52.2213 71.4694 52.659C71.4249 52.7563 71.3803 52.8537 71.3344 52.9497C71.3038 53.0137 71.2746 53.0762 71.244 53.1402C71.1926 53.2459 71.1425 53.3503 71.091 53.4546C71.0396 53.5603 70.9867 53.6674 70.9324 53.7745C70.8253 53.9859 70.7164 54.1969 70.6056 54.4074C70.4957 54.6174 70.383 54.8275 70.2676 55.0347C70.1521 55.242 70.0353 55.4493 69.917 55.6537C69.8572 55.7567 69.7974 55.8596 69.7376 55.9611C69.497 56.3687 69.2484 56.7716 68.992 57.1699C68.7375 57.5663 68.4746 57.9581 68.2034 58.3453C68.0684 58.5386 67.9307 58.732 67.7916 58.9225C67.736 58.999 67.6803 59.0741 67.6247 59.1492C67.5566 59.2438 67.4856 59.337 67.4147 59.4302C64.4001 63.4399 60.6011 66.7941 56.249 69.2888C51.8968 71.7835 47.0825 73.3665 42.0991 73.9414C37.1157 74.5163 32.0675 74.0711 27.2616 72.6329C22.4558 71.1946 17.9928 68.7935 14.1445 65.5755C13.7383 65.2362 13.3396 64.8884 12.9482 64.5323C10.4371 62.2456 8.25105 59.6257 6.451 56.7456C6.22705 56.3854 6.00728 56.0209 5.79585 55.6537C2.55013 50.0357 0.846188 43.66 0.856492 37.1718C0.856492 16.737 17.4216 0.171882 37.8564 0.171882C44.0053 0.168155 50.058 1.69819 55.4664 4.62343C60.8749 7.54867 65.4683 11.7767 68.8307 16.9248C68.8919 17.018 68.9531 17.1126 69.0143 17.2072C72.3575 22.4101 74.3347 28.372 74.7632 34.5415C74.8258 35.4095 74.8569 36.2862 74.8564 37.1718Z" fill="#F2F2F2"/>
<path d="M69.0143 17.2072H17.7638C17.7269 17.2063 17.6919 17.191 17.6661 17.1646C17.6404 17.1383 17.626 17.1028 17.626 17.066C17.626 17.0291 17.6404 16.9937 17.6661 16.9673C17.6919 16.941 17.7269 16.9257 17.7638 16.9248H68.8307C68.8919 17.018 68.9531 17.1126 69.0143 17.2072Z" fill="#CACACA"/>
<path d="M20.8732 15.2302C21.7125 15.2302 22.3929 14.5346 22.3929 13.6766C22.3929 12.8186 21.7125 12.123 20.8732 12.123C20.0339 12.123 19.3535 12.8186 19.3535 13.6766C19.3535 14.5346 20.0339 15.2302 20.8732 15.2302Z" fill="#3F3D56"/>
<path d="M26.1232 15.2302C26.9625 15.2302 27.6429 14.5346 27.6429 13.6766C27.6429 12.8186 26.9625 12.123 26.1232 12.123C25.2839 12.123 24.6035 12.8186 24.6035 13.6766C24.6035 14.5346 25.2839 15.2302 26.1232 15.2302Z" fill="#3F3D56"/>
<path d="M31.3732 15.2302C32.2125 15.2302 32.8929 14.5346 32.8929 13.6766C32.8929 12.8186 32.2125 12.123 31.3732 12.123C30.5339 12.123 29.8535 12.8186 29.8535 13.6766C29.8535 14.5346 30.5339 15.2302 31.3732 15.2302Z" fill="#3F3D56"/>
<path d="M74.7634 34.541C73.4267 35.1489 72.2291 36.1309 71.1831 37.4815C69.9743 39.0436 68.6793 40.1439 67.3565 40.8894C67.2939 40.9242 67.2327 40.9576 67.1701 40.991C65.9842 41.63 64.6838 42.0285 63.3435 42.1636C62.9387 42.2044 62.5319 42.2239 62.125 42.222C61.9553 42.2206 61.7856 42.2164 61.6173 42.2081C61.2181 42.1886 60.8231 42.1497 60.435 42.094C58.2066 41.7769 56.1911 40.92 54.6986 40.1147C52.6536 38.9868 50.4339 38.21 48.1318 37.8168C47.7201 37.7486 47.3093 37.6953 46.8994 37.6568C46.7297 37.6401 46.5614 37.6276 46.3931 37.6165C45.98 37.5887 45.5673 37.5757 45.1551 37.5775C44.9437 37.5789 44.7337 37.5831 44.5222 37.5914C40.9697 37.7305 36.3363 38.7432 32.1815 42.2804C32.1259 42.3277 32.0716 42.375 32.016 42.4223C31.9645 42.4668 31.913 42.5127 31.8616 42.5586C31.2039 43.1432 30.5842 43.769 30.006 44.4323C29.3432 45.1919 28.7299 45.9934 28.1699 46.8317C27.5049 47.8132 26.7282 48.7141 25.8553 49.5163C24.5643 50.7077 23.5303 52.1505 22.8171 53.756C22.1038 55.3614 21.7262 57.0958 21.7074 58.8525V58.9221C21.7061 58.9972 21.7061 59.0737 21.7061 59.1488H67.6263C67.682 59.0737 67.7376 58.9986 67.7919 58.9221C67.931 58.7315 68.0687 58.5381 68.2036 58.3448C68.4748 57.9581 68.7377 57.5663 68.9923 57.1694C69.2496 56.7716 69.4981 56.3687 69.7378 55.9607C69.7976 55.8591 69.8575 55.7562 69.9173 55.6533C70.0355 55.4488 70.1523 55.2415 70.2678 55.0343C70.3832 54.827 70.4959 54.617 70.6058 54.4069C70.7171 54.1969 70.826 53.9859 70.9327 53.774C70.9869 53.6669 71.0398 53.5598 71.0913 53.4541C71.1427 53.3498 71.1928 53.2455 71.2443 53.1398C71.2749 53.0758 71.3041 53.0132 71.3347 52.9492C71.3806 52.8532 71.4251 52.7559 71.4696 52.6585C71.6727 52.2203 71.8665 51.7775 72.051 51.3301C72.0983 51.2188 72.1442 51.1062 72.1887 50.9935C72.2791 50.7695 72.3677 50.5437 72.4544 50.3161C72.4975 50.2034 72.5393 50.0894 72.5824 49.9753C72.6241 49.8612 72.6658 49.7472 72.7062 49.6317C72.7479 49.5177 72.7882 49.4022 72.8272 49.2882C72.8675 49.1727 72.9065 49.0573 72.9454 48.9418C72.9844 48.8263 73.0219 48.7109 73.0595 48.5941C73.097 48.4786 73.1346 48.3618 73.1708 48.2449C73.2028 48.1434 73.2347 48.0404 73.2667 47.9375C73.3794 47.5661 73.4865 47.1924 73.5881 46.8164C73.6493 46.5855 73.7091 46.3537 73.7675 46.1209C73.9149 45.5256 74.0485 44.9242 74.1681 44.3168C74.1917 44.1944 74.2154 44.072 74.2376 43.9482C74.2599 43.8258 74.2822 43.7034 74.303 43.581C74.3253 43.4586 74.3461 43.3362 74.3656 43.2138C74.3865 43.09 74.406 42.9676 74.424 42.8438C74.4393 42.7492 74.4532 42.6532 74.4672 42.5586C74.4713 42.5294 74.4755 42.5016 74.4797 42.4738C74.4894 42.4084 74.4977 42.3444 74.5061 42.2804C74.5144 42.2206 74.5228 42.1608 74.5311 42.1024C74.5478 41.9772 74.5631 41.8534 74.5784 41.7282C74.6021 41.5432 74.6229 41.3554 74.6424 41.1676H74.6438C74.6494 41.105 74.6563 41.0425 74.6633 40.9799C74.6661 40.9506 74.6688 40.92 74.6716 40.8894C74.7356 40.2579 74.7829 39.6213 74.8135 38.9796C74.8177 38.8837 74.8219 38.7863 74.826 38.6875C74.8288 38.6361 74.8302 38.586 74.8316 38.5345C74.8385 38.3551 74.8441 38.1757 74.8469 37.9962C74.8538 37.7222 74.8571 37.4472 74.8566 37.1714C74.8566 36.2867 74.8256 35.4099 74.7634 34.541Z" fill="#FF881B"/>
<path d="M31.7067 43.8701H31.1992V58.7451H31.7067V43.8701Z" fill="#3F3D56"/>
<path d="M46.9001 36.9229H46.3926V58.745H46.9001V36.9229Z" fill="#3F3D56"/>
<path d="M62.1247 41.4902H61.6172V58.7449H62.1247V41.4902Z" fill="#3F3D56"/>
<path d="M46.6775 38.8257C47.5349 38.8257 48.23 38.1306 48.23 37.2732C48.23 36.4158 47.5349 35.7207 46.6775 35.7207C45.8201 35.7207 45.125 36.4158 45.125 37.2732C45.125 38.1306 45.8201 38.8257 46.6775 38.8257Z" fill="#3F3D56"/>
<path d="M61.9021 43.1392C62.7595 43.1392 63.4546 42.4441 63.4546 41.5867C63.4546 40.7293 62.7595 40.0342 61.9021 40.0342C61.0447 40.0342 60.3496 40.7293 60.3496 41.5867C60.3496 42.4441 61.0447 43.1392 61.9021 43.1392Z" fill="#3F3D56"/>
<path d="M31.1746 44.1704C32.032 44.1704 32.7271 43.4753 32.7271 42.6179C32.7271 41.7605 32.032 41.0654 31.1746 41.0654C30.3171 41.0654 29.6221 41.7605 29.6221 42.6179C29.6221 43.4753 30.3171 44.1704 31.1746 44.1704Z" fill="#3F3D56"/>
<path d="M67.7912 58.9229C67.7355 58.9994 67.6799 59.0745 67.6242 59.1496C67.5561 59.2442 67.4851 59.3374 67.4142 59.4306H21.6553V58.9229H67.7912Z" fill="#3F3D56"/>
<path d="M32.2076 42.2812H31.373V42.5594H32.2076V42.2812Z" fill="#3F3D56"/>
<path d="M33.8926 42.2812V42.5594H35.5784V42.2812H33.8926ZM37.2643 42.2812V42.5594H38.9488V42.2812H37.2643ZM40.6346 42.2812V42.5594H42.3205V42.2812H40.6346ZM44.005 42.2812V42.5594H45.6908V42.2812H44.005ZM47.3767 42.2812V42.5594H49.0612V42.2812H47.3767ZM50.747 42.2812V42.5594H52.4329V42.2812H50.747ZM54.1174 42.2812V42.5594H55.8032V42.2812H54.1174ZM57.4891 42.2812V42.5594H59.1736V42.2812H57.4891ZM60.8594 42.2812V42.5594H62.5453V42.2812H60.8594ZM64.2298 42.2812V42.5594H65.9156V42.2812H64.2298ZM67.6001 42.2812V42.5594H69.286V42.2812H67.6001ZM70.9718 42.2812V42.5594H72.6563V42.2812H70.9718ZM74.3422 42.2812V42.5594H74.4673C74.4715 42.5302 74.4757 42.5024 74.4799 42.4746C74.4896 42.4106 74.4979 42.3466 74.5077 42.2812H74.3422Z" fill="#3F3D56"/>
<path d="M46.6735 36.7168H45.8389V36.995H46.6735V36.7168Z" fill="#3F3D56"/>
<path d="M48.3584 36.7168V36.995H50.0443V36.7168H48.3584ZM51.7301 36.7168V36.995H53.4146V36.7168H51.7301ZM55.1005 36.7168V36.995H56.7863V36.7168H55.1005ZM58.4708 36.7168V36.995H60.1567V36.7168H58.4708ZM61.8425 36.7168V36.995H63.527V36.7168H61.8425ZM65.2128 36.7168V36.995H66.8987V36.7168H65.2128ZM68.5832 36.7168V36.995H70.2691V36.7168H68.5832ZM71.9549 36.7168V36.995H73.6394V36.7168H71.9549Z" fill="#3F3D56"/>
<path d="M62.1129 40.8896H61.2783V41.1678H62.1129V40.8896Z" fill="#3F3D56"/>
<path d="M63.7979 40.8896V41.1678H65.4837V40.8896H63.7979ZM67.1696 40.8896V41.1678H68.854V40.8896H67.1696ZM70.5399 40.8896V41.1678H72.2258V40.8896H70.5399ZM73.9102 40.8896V41.1678H74.6433C74.6488 41.1052 74.6558 41.0427 74.6628 40.9801C74.6655 40.9509 74.6683 40.9202 74.6711 40.8896H73.9102Z" fill="#3F3D56"/>
</svg>
