<svg width="75" height="77" viewBox="0 0 75 77" fill="none" xmlns="http://www.w3.org/2000/svg">
<path d="M3.61384 34.3644C3.1669 34.5043 2.69096 34.524 2.23398 34.4215C1.77699 34.319 1.35508 34.0979 1.01077 33.7804C0.666459 33.4629 0.411897 33.0603 0.272725 32.6131C0.133553 32.1659 0.114688 31.6899 0.218031 31.2331C1.7686 24.7823 7.66459 9.00683 29.1439 2.37169C38.4479 -0.502415 47.3706 -0.55148 55.6532 2.22478C62.4669 4.49928 66.9903 8.05858 69.154 9.77891C69.7037 10.2138 70.0582 10.8493 70.1394 11.5456C70.2206 12.2419 70.0218 12.9419 69.5869 13.4916C69.5815 13.4984 69.5761 13.5052 69.5706 13.512C69.124 14.0634 68.4786 14.4173 67.7735 14.4973C67.0684 14.5774 66.3601 14.3772 65.8012 13.9399C61.8811 10.8511 49.9849 1.46759 30.7044 7.4235C11.8782 13.2391 6.76431 26.8421 5.43789 32.4075C5.33716 32.8672 5.1147 33.2914 4.79381 33.6357C4.47291 33.9799 4.06537 34.2316 3.61385 34.3644L3.61384 34.3644Z" fill="#F36B09"/>
<path d="M62.1577 70.9023C61.9443 70.9712 61.7231 71.0128 61.4992 71.0261C44.7189 71.9298 34.0426 57.9892 33.6043 57.408L33.523 57.2739C33.2555 56.8588 26.7955 47.0302 29.6394 39.2244C30.9457 35.6558 33.8346 33.151 38.2504 31.7869C42.3573 30.5183 45.7179 30.8935 48.5783 32.9361C50.9238 34.6003 52.4269 37.082 53.8838 39.4785C56.914 44.4546 58.7709 46.9863 64.5304 45.5256C67.0593 44.8838 68.2401 42.9066 68.7795 41.3665C70.2319 37.1755 68.9447 31.462 65.5392 27.1393C61.1394 21.5314 48.8266 12.2168 33.6348 16.9097C27.1474 18.9137 21.8382 22.8629 18.2827 28.3007C15.3372 32.8136 13.6249 38.4186 13.5874 43.6455C13.5283 53.3779 21.5045 66.1819 21.5802 66.2979C21.7638 66.5917 21.8878 66.9187 21.9451 67.2604C22.0024 67.6021 21.9918 67.9517 21.9139 68.2893C21.8361 68.6268 21.6925 68.9458 21.4914 69.2279C21.2903 69.51 21.0356 69.7497 20.7418 69.9333C20.7337 69.9385 20.7255 69.9435 20.7173 69.9485C20.1154 70.3239 19.3901 70.4474 18.6979 70.2925C18.0057 70.1376 17.4022 69.7167 17.0178 69.1206C16.6578 68.5351 8.14078 54.8829 8.2094 43.6347C8.30492 31.4426 15.7139 16.8918 32.0686 11.8397C39.6282 9.50446 47.5725 9.89696 55.0486 12.9622C60.8431 15.3525 66.2059 19.3094 69.7514 23.8276C74.28 29.5948 75.8755 37.144 73.8139 43.0361C72.4395 46.9641 69.5942 49.6744 65.8128 50.6435C55.9574 53.1504 52.0966 46.8385 49.2808 42.2341C46.3894 37.5138 44.7901 35.3006 39.7928 36.8443C37.0488 37.692 35.3584 39.0502 34.6474 41.0017C33.6799 43.6693 34.5968 47.0886 35.5364 49.4857C35.5461 49.5108 35.5559 49.5358 35.5656 49.5607C36.7702 52.6075 38.6499 55.3415 41.0635 57.557C44.9298 61.1274 52.1075 66.2175 61.2556 65.7266C61.955 65.6832 62.643 65.9194 63.1682 66.3832C63.6935 66.847 64.0129 67.5004 64.0564 68.1998C64.0569 68.2082 64.0574 68.2167 64.0578 68.2251C64.0793 68.8182 63.9048 69.4017 63.5614 69.8857C63.2179 70.3696 62.7246 70.7269 62.1577 70.9023Z" fill="#F36B09"/>
<path d="M41.8094 75.9138C41.4597 76.022 41.0916 76.0582 40.7274 76.0202C40.3632 75.9821 40.0106 75.8706 39.6907 75.6924C31.4144 71.0032 25.6044 64.6962 21.4206 55.8565L21.4037 55.802C18.7669 49.9081 17.1796 40.9033 20.6809 33.2925C23.2658 27.6768 28.1178 23.7295 35.0777 21.5795C43.3096 19.0366 50.9745 20.9089 57.2653 26.9678C60.1263 29.7642 62.4528 33.0593 64.1307 36.6911C64.3981 37.3446 64.3976 38.077 64.1292 38.7301C63.8608 39.3832 63.3461 39.9043 62.6965 40.1809C62.0469 40.4574 61.3145 40.4671 60.6577 40.2079C60.001 39.9486 59.4727 39.4412 59.1871 38.7955C57.7665 35.7643 55.805 33.0176 53.3988 30.6903C48.5499 26.077 42.9132 24.7129 36.6256 26.6552C31.1922 28.3336 27.4508 31.3008 25.5355 35.4755C22.7735 41.4844 24.1956 48.9876 26.259 53.6054C29.9481 61.4235 35.0652 66.9692 42.3494 71.089C42.6503 71.2587 42.9148 71.486 43.1279 71.7579C43.341 72.0298 43.4984 72.3411 43.5911 72.6738C43.6839 73.0066 43.7102 73.3544 43.6686 73.6973C43.627 74.0402 43.5182 74.3716 43.3485 74.6725C43.3418 74.6844 43.335 74.6963 43.3281 74.7081C42.9888 75.2843 42.4476 75.714 41.8094 75.9138Z" fill="#F36B09"/>
</svg>
