<svg width="75" height="104" viewBox="0 0 75 104" fill="none" xmlns="http://www.w3.org/2000/svg">
<path d="M67.3153 0.178711H0.152344V72.9446H67.3153V0.178711Z" fill="white"/>
<path d="M33.1588 25.9355H11.5352V28.0644H33.1588V25.9355Z" fill="#E6E6E6"/>
<path d="M44.171 32.3154H11.5352V34.4443H44.171V32.3154Z" fill="#F36B09"/>
<path d="M56.985 44.9854H11.5352V47.1142H56.985V44.9854Z" fill="#F36B09"/>
<path d="M49.0484 50.9375H12.0078V53.0664H49.0484V50.9375Z" fill="#E6E6E6"/>
<path d="M33.7338 4.48828C32.1504 4.4882 30.6026 4.94 29.2859 5.78654C27.9693 6.63308 26.9431 7.83635 26.3371 9.24417C25.7311 10.652 25.5725 12.2012 25.8813 13.6957C26.1901 15.1903 26.9525 16.5632 28.0721 17.6408C29.1917 18.7184 30.6182 19.4522 32.1712 19.7496C33.7241 20.047 35.3339 19.8945 36.7968 19.3114C38.2597 18.7283 39.5101 17.7409 40.3899 16.4739C41.2696 15.2069 41.7393 13.7173 41.7393 12.1934V12.193C41.7393 11.1812 41.5323 10.1793 41.1299 9.24454C40.7276 8.30976 40.1379 7.46039 39.3945 6.74494C38.651 6.02949 37.7685 5.46197 36.7972 5.07477C35.8258 4.68757 34.7848 4.48828 33.7334 4.48828H33.7338ZM33.7338 6.79949C34.2088 6.79949 34.6731 6.93504 35.0681 7.189C35.463 7.44295 35.7708 7.80392 35.9526 8.22623C36.1344 8.64855 36.1819 9.11326 36.0893 9.56159C35.9966 10.0099 35.7679 10.4217 35.432 10.745C35.0962 11.0682 34.6682 11.2883 34.2024 11.3775C33.7365 11.4667 33.2537 11.4209 32.8148 11.246C32.376 11.0711 32.0009 10.7748 31.737 10.3948C31.4732 10.0147 31.3323 9.56783 31.3323 9.11072C31.3323 8.49774 31.5853 7.90988 32.0357 7.47644C32.4861 7.043 33.0969 6.7995 33.7338 6.79949ZM33.7338 17.9267C32.7851 17.9225 31.8516 17.6956 31.0146 17.2657C30.1775 16.8358 29.4621 16.2159 28.9303 15.4596C28.9689 13.9187 32.1327 13.0705 33.7338 13.0705C35.335 13.0705 38.4988 13.9187 38.5374 15.4596C38.005 16.2153 37.2895 16.8348 36.4525 17.2647C35.6156 17.6945 34.6825 17.9218 33.7338 17.9267Z" fill="#F36B09"/>
<path d="M23.1765 59.542C25.1894 55.2842 30.0112 52.5878 33.9556 55.0183C35.7311 56.1121 37.1424 58.0469 37.5904 60.3338C38.1104 62.9904 37.0148 65.5235 35.8839 67.7554C35.2701 68.9668 34.5975 70.1536 34.0895 71.4314C33.5635 72.7546 33.1875 74.284 33.5835 75.7234C33.94 77.0203 34.834 77.9635 35.8129 78.6568C36.8934 79.3929 38.0426 79.9854 39.2386 80.4229C41.7005 81.3681 44.2973 81.7559 46.8866 81.5651C48.1734 81.4642 49.4495 81.2261 50.6983 80.8538C52.0268 80.4629 53.3304 79.9673 54.6611 79.585C56.8828 78.9479 59.416 78.6312 61.5227 79.9107C63.5694 81.1542 64.4854 83.7549 64.7686 86.285C65.2918 90.9569 63.6871 95.805 60.7896 99.0767C59.3995 100.646 57.6502 101.943 55.7449 102.474C54.0825 102.937 51.9479 102.907 50.6249 101.472C49.1487 99.8714 49.496 97.3042 50.6685 95.615C52.1651 93.4598 54.7005 92.9421 56.963 92.8897C59.5368 92.83 62.1081 93.2724 64.6804 92.9974C65.9359 92.8846 67.1679 92.5416 68.3299 91.9812C69.3515 91.4625 70.2833 90.7347 71.0803 89.8329C72.6683 88.052 73.7393 85.6795 74.2718 83.2128C74.9131 80.2463 74.7733 77.1286 74.2756 74.149C74.0102 72.6126 73.6686 71.095 73.2524 69.6038C73.0805 68.9746 72.2197 69.2438 72.3929 69.8773C73.9259 75.4885 74.7806 81.9768 71.8187 87.1866C70.593 89.3959 68.6835 90.9825 66.4795 91.623C63.916 92.3585 61.2261 91.9949 58.6199 91.8855C56.1419 91.7815 53.4208 91.8938 51.2965 93.5598C49.5539 94.9262 48.3351 97.5254 48.8618 99.9791C49.3697 102.345 51.3397 103.546 53.3101 103.731C55.3774 103.925 57.4118 103.124 59.148 101.872C62.7597 99.2665 65.1611 94.6848 65.6636 89.8272C65.9255 87.2961 65.659 84.5698 64.6647 82.2724C64.1407 81.0288 63.3251 79.9796 62.3106 79.2441C61.299 78.5282 60.1305 78.1758 58.957 78.0512C56.2909 77.7677 53.7293 78.8243 51.2001 79.6326C49.9081 80.0653 48.5838 80.3571 47.2446 80.5042C45.9448 80.6285 44.6375 80.6039 43.3419 80.4308C42.0563 80.2557 40.7894 79.9311 39.5603 79.462C38.356 79.0322 37.2028 78.4305 36.1277 77.6707C35.1792 76.9706 34.3589 75.9678 34.3123 74.6013C34.2616 73.1197 34.9089 71.7337 35.5244 70.4845C36.7406 68.0169 38.2429 65.6033 38.56 62.7145C38.8378 60.1876 37.9569 57.697 36.4358 55.8946C35.6734 54.9798 34.7557 54.2566 33.7399 53.7702C32.7242 53.2838 31.6324 53.0447 30.5329 53.068C28.276 53.1425 26.1151 54.2754 24.4551 56.0154C23.6318 56.8788 22.9389 57.8947 22.4051 59.0212C22.1302 59.6027 22.8995 60.1224 23.1748 59.5404L23.1765 59.542Z" fill="#3F3D56"/>
</svg>
