<svg width="75" height="55" viewBox="0 0 75 55" fill="none" xmlns="http://www.w3.org/2000/svg">
<g clip-path="url(#clip0_1570_10979)">
<path d="M74.6269 22.6887H74.501V18.6543C74.501 18.3477 74.4494 18.0441 74.3491 17.7608C74.2488 17.4775 74.1017 17.2201 73.9164 17.0032C73.731 16.7864 73.5109 16.6144 73.2687 16.4971C73.0265 16.3797 72.7669 16.3193 72.5048 16.3193H65.1974C64.9353 16.3193 64.6757 16.3797 64.4335 16.4971C64.1913 16.6144 63.9712 16.7864 63.7859 17.0032C63.6005 17.2201 63.4534 17.4775 63.3531 17.7608C63.2528 18.0441 63.2012 18.3477 63.2012 18.6543V40.7872C63.2012 41.0939 63.2528 41.3975 63.3531 41.6808C63.4534 41.9641 63.6005 42.2215 63.7859 42.4383C63.9712 42.6551 64.1913 42.8271 64.4335 42.9445C64.6757 43.0618 64.9353 43.1222 65.1974 43.1222H72.5048C72.7669 43.1222 73.0265 43.0618 73.2687 42.9445C73.5109 42.8271 73.731 42.6551 73.9164 42.4383C74.1017 42.2215 74.2488 41.9641 74.3491 41.6808C74.4494 41.3975 74.501 41.0939 74.501 40.7872V25.5604H74.6269V22.6887Z" fill="#3F3D56"/>
<path d="M74.0757 18.792V40.8927C74.0757 41.3553 73.9186 41.7988 73.639 42.1259C73.3594 42.453 72.9802 42.6367 72.5847 42.6367H65.2423C65.0465 42.6367 64.8527 42.5916 64.6718 42.5039C64.491 42.4162 64.3267 42.2878 64.1883 42.1258C64.0499 41.9639 63.9401 41.7716 63.8652 41.56C63.7904 41.3485 63.7519 41.1217 63.752 40.8927V18.792C63.752 18.3297 63.909 17.8863 64.1885 17.5594C64.4679 17.2325 64.847 17.0488 65.2423 17.0488H66.1331C66.0893 17.1746 66.0727 17.311 66.0846 17.4461C66.0966 17.5811 66.1367 17.7107 66.2014 17.8234C66.2662 17.9361 66.3536 18.0284 66.456 18.0923C66.5584 18.1562 66.6727 18.1897 66.7888 18.1898H70.9752C71.0914 18.1901 71.2059 18.1569 71.3085 18.0931C71.4111 18.0293 71.4987 17.9369 71.5635 17.8241C71.6283 17.7113 71.6684 17.5816 71.6801 17.4463C71.6919 17.3111 71.675 17.1746 71.6309 17.0488H72.5847C72.9801 17.0488 73.3592 17.2324 73.6388 17.5593C73.9184 17.8862 74.0756 18.3296 74.0757 18.792Z" fill="#D0CDE1"/>
<path d="M72.6858 28.3633H64.1504V31.0573H72.6858V28.3633Z" fill="#F36B09"/>
<path d="M73.0243 30.582H64.7599C64.706 30.5819 64.6543 30.5569 64.6162 30.5123C64.5781 30.4677 64.5567 30.4073 64.5566 30.3443V27.9672C64.5567 27.9042 64.5781 27.8438 64.6162 27.7992C64.6543 27.7546 64.706 27.7296 64.7599 27.7295H73.0243C73.0782 27.7296 73.1299 27.7546 73.168 27.7992C73.2061 27.8438 73.2275 27.9042 73.2276 27.9672V30.3443C73.2275 30.4073 73.2061 30.4677 73.168 30.5123C73.1299 30.5569 73.0782 30.5819 73.0243 30.582ZM64.7599 27.888C64.7419 27.888 64.7247 27.8963 64.712 27.9112C64.6993 27.9261 64.6921 27.9462 64.6921 27.9672V30.3443C64.6921 30.3653 64.6993 30.3855 64.712 30.4003C64.7247 30.4152 64.7419 30.4235 64.7599 30.4235H73.0243C73.0423 30.4235 73.0595 30.4152 73.0722 30.4003C73.0849 30.3855 73.0921 30.3653 73.0921 30.3443V27.9672C73.0921 27.9462 73.0849 27.9261 73.0722 27.9112C73.0595 27.8963 73.0423 27.888 73.0243 27.888H64.7599Z" fill="#3F3D56"/>
<path d="M66.1825 29.8691H65.0986V30.0276H66.1825V29.8691Z" fill="#3F3D56"/>
<path d="M67.6727 29.8691H66.5889V30.0276H67.6727V29.8691Z" fill="#3F3D56"/>
<path d="M69.163 29.8691H68.0791V30.0276H69.163V29.8691Z" fill="#3F3D56"/>
<path d="M70.6542 29.8691H69.5703V30.0276H70.6542V29.8691Z" fill="#3F3D56"/>
<path d="M72.1444 29.8691H71.0605V30.0276H72.1444V29.8691Z" fill="#3F3D56"/>
<path opacity="0.1" d="M74.0757 38.6457V40.8929C74.0757 41.3554 73.9186 41.799 73.639 42.126C73.3594 42.4531 72.9802 42.6368 72.5847 42.6369H65.2423C65.0465 42.6368 64.8527 42.5917 64.6718 42.504C64.491 42.4164 64.3267 42.2879 64.1883 42.126C64.0499 41.964 63.9401 41.7718 63.8652 41.5602C63.7904 41.3486 63.7519 41.1219 63.752 40.8929V30.5557L74.0757 38.6457Z" fill="black"/>
<path d="M38.8825 36.6045H6.84082V54.9874H38.8825V36.6045Z" fill="#D0CDE1"/>
<path opacity="0.1" d="M30.7366 54.9874H6.9763C6.9404 54.9873 6.906 54.9705 6.88062 54.9409C6.85523 54.9112 6.84093 54.8709 6.84082 54.8289V36.763C6.84093 36.721 6.85523 36.6807 6.88062 36.651C6.906 36.6214 6.9404 36.6046 6.9763 36.6045H7.27708L30.7366 54.9874Z" fill="black"/>
<path d="M71.3312 39.0605H21.6768V39.219H71.3312V39.0605Z" fill="#3F3D56"/>
<path d="M37.3756 0.520836H23.1844V0.178711H16.7496V0.520836H2.49996C2.3739 0.520835 2.24908 0.549878 2.13262 0.606305C2.01615 0.662732 1.91033 0.745437 1.82119 0.849701C1.73206 0.953964 1.66135 1.07774 1.61311 1.21397C1.56487 1.35019 1.54004 1.4962 1.54004 1.64365V24.3731C1.54004 24.6709 1.64117 24.9565 1.82119 25.1671C2.00121 25.3777 2.24538 25.496 2.49996 25.496H37.3756C37.6302 25.496 37.8743 25.3777 38.0543 25.1671C38.2344 24.9565 38.3355 24.6709 38.3355 24.3731V1.64365C38.3355 1.4962 38.3107 1.35019 38.2624 1.21397C38.2142 1.07774 38.1435 0.953964 38.0543 0.849701C37.9652 0.745437 37.8594 0.662732 37.7429 0.606305C37.6265 0.549878 37.5016 0.520835 37.3756 0.520836Z" fill="#3F3D56"/>
<path d="M37.0481 2.50488H2.82715V25.0858H37.0481V2.50488Z" fill="#D0CDE1"/>
<path d="M19.9076 1.88946C20.1015 1.88946 20.2586 1.70565 20.2586 1.47891C20.2586 1.25217 20.1015 1.06836 19.9076 1.06836C19.7138 1.06836 19.5566 1.25217 19.5566 1.47891C19.5566 1.70565 19.7138 1.88946 19.9076 1.88946Z" fill="#F36B09"/>
<path d="M13.0054 10.9321H12.1925C12.1386 10.9321 12.0869 10.907 12.0488 10.8624C12.0107 10.8179 11.9893 10.7574 11.9893 10.6944V9.74357C11.9893 9.68055 12.0107 9.62012 12.0488 9.57556C12.0869 9.53099 12.1386 9.50593 12.1925 9.50586H13.0054C13.0593 9.50593 13.1109 9.53099 13.149 9.57556C13.1871 9.62012 13.2085 9.68055 13.2086 9.74357V10.6944C13.2085 10.7574 13.1871 10.8179 13.149 10.8624C13.1109 10.907 13.0593 10.9321 13.0054 10.9321ZM12.1925 9.66433C12.1745 9.66436 12.1573 9.67272 12.1446 9.68757C12.1319 9.70243 12.1248 9.72256 12.1247 9.74357V10.6944C12.1248 10.7154 12.1319 10.7356 12.1446 10.7504C12.1573 10.7653 12.1745 10.7736 12.1925 10.7736H13.0054C13.0233 10.7736 13.0406 10.7653 13.0533 10.7504C13.066 10.7356 13.0731 10.7154 13.0731 10.6944V9.74357C13.0731 9.72256 13.066 9.70243 13.0533 9.68757C13.0406 9.67272 13.0233 9.66436 13.0054 9.66433H12.1925Z" fill="#3F3D56"/>
<path d="M27.5027 10.7734H12.0576V10.9319H27.5027V10.7734Z" fill="#3F3D56"/>
<path d="M27.0962 15.1309H23.5059V16.3986H27.0962V15.1309Z" fill="#F36B09"/>
<path d="M27.3673 16.0825H24.048C23.9941 16.0824 23.9424 16.0574 23.9043 16.0128C23.8662 15.9682 23.8448 15.9078 23.8447 15.8448V14.894C23.8448 14.8309 23.8662 14.7705 23.9043 14.7259C23.9424 14.6814 23.9941 14.6563 24.048 14.6562H27.3673C27.4212 14.6563 27.4728 14.6814 27.5109 14.7259C27.549 14.7705 27.5705 14.8309 27.5705 14.894V15.8448C27.5705 15.9078 27.549 15.9682 27.5109 16.0128C27.4728 16.0574 27.4212 16.0824 27.3673 16.0825ZM24.048 14.8147C24.03 14.8148 24.0128 14.8231 24.0001 14.838C23.9874 14.8528 23.9802 14.873 23.9802 14.894V15.8448C23.9802 15.8658 23.9874 15.8859 24.0001 15.9008C24.0128 15.9157 24.03 15.924 24.048 15.924H27.3673C27.3852 15.924 27.4025 15.9157 27.4152 15.9008C27.4279 15.8859 27.435 15.8658 27.435 15.8448V14.894C27.435 14.873 27.4279 14.8528 27.4152 14.838C27.4025 14.8231 27.3852 14.8148 27.3673 14.8147H24.048Z" fill="#3F3D56"/>
<path d="M54.531 16.5576H47.7568V22.1042H54.531V16.5576Z" fill="#F36B09"/>
<path d="M55.2087 21.6682H48.7055C48.6337 21.6681 48.5648 21.6347 48.514 21.5753C48.4632 21.5158 48.4346 21.4353 48.4346 21.3512V16.1216C48.4346 16.0376 48.4632 15.957 48.514 15.8976C48.5648 15.8382 48.6337 15.8048 48.7055 15.8047H55.2087C55.2806 15.8048 55.3494 15.8382 55.4002 15.8976C55.451 15.957 55.4796 16.0376 55.4797 16.1216V21.3512C55.4796 21.4353 55.451 21.5158 55.4002 21.5753C55.3494 21.6347 55.2806 21.6681 55.2087 21.6682ZM48.7055 16.1216V21.3512H55.2089L55.2087 16.1216H48.7055Z" fill="#3F3D56"/>
<path d="M54.4631 15.9239H54.1921C54.1921 15.2305 53.9566 14.5654 53.5373 14.075C53.1181 13.5846 52.5495 13.3091 51.9566 13.3091C51.3637 13.3091 50.7951 13.5846 50.3759 14.075C49.9567 14.5654 49.7212 15.2305 49.7212 15.9239H49.4502C49.4502 15.1464 49.7143 14.4007 50.1843 13.8509C50.6544 13.3011 51.2919 12.9922 51.9566 12.9922C52.6214 12.9922 53.2589 13.3011 53.7289 13.8509C54.199 14.4007 54.4631 15.1464 54.4631 15.9239Z" fill="#3F3D56"/>
<path d="M52.6342 18.1029C52.6343 17.9649 52.6036 17.8293 52.5452 17.7094C52.4868 17.5895 52.4026 17.4896 52.301 17.4195C52.1994 17.3494 52.0839 17.3115 51.9659 17.3096C51.848 17.3078 51.7316 17.342 51.6285 17.4088C51.5253 17.4757 51.4388 17.5729 51.3776 17.6909C51.3164 17.8088 51.2826 17.9434 51.2795 18.0814C51.2765 18.2193 51.3042 18.3558 51.3601 18.4773C51.416 18.5988 51.498 18.7012 51.5981 18.7742V19.6247C51.5981 19.6798 51.6074 19.7343 51.6254 19.7852C51.6434 19.8361 51.6699 19.8823 51.7032 19.9213C51.7365 19.9602 51.776 19.9911 51.8195 20.0122C51.863 20.0333 51.9097 20.0442 51.9567 20.0442C52.0519 20.0442 52.1431 20 52.2103 19.9213C52.2776 19.8426 52.3154 19.7359 52.3154 19.6247V18.7742C52.4129 18.7032 52.4933 18.6043 52.5491 18.4868C52.6049 18.3694 52.6341 18.2372 52.6342 18.1029Z" fill="#3F3D56"/>
<path d="M20.4237 44.7656H19.3398V44.9241H20.4237V44.7656Z" fill="#3F3D56"/>
<path d="M21.9139 44.7656H20.8301V44.9241H21.9139V44.7656Z" fill="#3F3D56"/>
<path d="M23.4042 44.7656H22.3203V44.9241H23.4042V44.7656Z" fill="#3F3D56"/>
<path d="M24.8944 44.7656H23.8105V44.9241H24.8944V44.7656Z" fill="#3F3D56"/>
<path d="M26.3846 44.7656H25.3008V44.9241H26.3846V44.7656Z" fill="#3F3D56"/>
<path d="M40.3054 53.6403H8.53464C8.4628 53.6402 8.39392 53.6068 8.34312 53.5473C8.29232 53.4879 8.26375 53.4074 8.26367 53.3233V35.2574C8.26375 35.1733 8.29232 35.0928 8.34312 35.0334C8.39392 34.9739 8.4628 34.9405 8.53464 34.9404H40.3054C40.3772 34.9405 40.4461 34.9739 40.4969 35.0334C40.5477 35.0928 40.5763 35.1733 40.5764 35.2574V53.3233C40.5763 53.4074 40.5477 53.4879 40.4969 53.5473C40.4461 53.6068 40.3772 53.6402 40.3054 53.6403ZM8.53464 35.2574V53.3233H40.3056L40.3054 35.2574H8.53464Z" fill="#3F3D56"/>
<path d="M9.95723 37.9518C10.1817 37.9518 10.3637 37.739 10.3637 37.4764C10.3637 37.2138 10.1817 37.001 9.95723 37.001C9.73275 37.001 9.55078 37.2138 9.55078 37.4764C9.55078 37.739 9.73275 37.9518 9.95723 37.9518Z" fill="#3F3D56"/>
<path d="M11.3801 37.9518C11.6046 37.9518 11.7865 37.739 11.7865 37.4764C11.7865 37.2138 11.6046 37.001 11.3801 37.001C11.1556 37.001 10.9736 37.2138 10.9736 37.4764C10.9736 37.739 11.1556 37.9518 11.3801 37.9518Z" fill="#3F3D56"/>
<path d="M12.8029 37.9518C13.0274 37.9518 13.2094 37.739 13.2094 37.4764C13.2094 37.2138 13.0274 37.001 12.8029 37.001C12.5785 37.001 12.3965 37.2138 12.3965 37.4764C12.3965 37.739 12.5785 37.9518 12.8029 37.9518Z" fill="#3F3D56"/>
<path d="M27.4343 45.8745H18.2892C18.2353 45.8745 18.1836 45.8494 18.1455 45.8048C18.1074 45.7603 18.086 45.6999 18.0859 45.6368V42.9428C18.086 42.8798 18.1074 42.8193 18.1455 42.7748C18.1836 42.7302 18.2353 42.7051 18.2892 42.7051H27.4343C27.4881 42.7051 27.5398 42.7302 27.5779 42.7748C27.616 42.8193 27.6374 42.8798 27.6375 42.9428V45.6368C27.6374 45.6999 27.616 45.7603 27.5779 45.8048C27.5398 45.8494 27.4881 45.8745 27.4343 45.8745ZM18.2892 42.8636C18.2712 42.8636 18.254 42.8719 18.2413 42.8868C18.2286 42.9016 18.2214 42.9218 18.2214 42.9428V45.6368C18.2214 45.6578 18.2286 45.678 18.2413 45.6928C18.254 45.7077 18.2712 45.7161 18.2892 45.7161H27.4343C27.4522 45.7161 27.4694 45.7077 27.4821 45.6928C27.4948 45.678 27.502 45.6578 27.502 45.6368V42.9428C27.502 42.9218 27.4948 42.9016 27.4821 42.8868C27.4694 42.8719 27.4522 42.8636 27.4343 42.8636H18.2892Z" fill="#3F3D56"/>
<path d="M29.7379 45.9541C30.4113 45.9541 30.9572 45.3155 30.9572 44.5278C30.9572 43.7401 30.4113 43.1016 29.7379 43.1016C29.0645 43.1016 28.5186 43.7401 28.5186 44.5278C28.5186 45.3155 29.0645 45.9541 29.7379 45.9541Z" fill="#F36B09"/>
<path d="M30.1445 45.7961C29.8899 45.7961 29.6411 45.7078 29.4294 45.5424C29.2178 45.377 29.0528 45.1419 28.9554 44.8668C28.858 44.5917 28.8325 44.289 28.8822 43.9969C28.9318 43.7049 29.0544 43.4367 29.2344 43.2261C29.4144 43.0156 29.6437 42.8722 29.8934 42.8141C30.1431 42.756 30.4019 42.7858 30.6371 42.8998C30.8722 43.0137 31.0733 43.2067 31.2147 43.4542C31.3561 43.7018 31.4316 43.9929 31.4316 44.2907C31.4312 44.6898 31.2955 45.0725 31.0542 45.3547C30.8129 45.6369 30.4857 45.7957 30.1445 45.7961ZM30.1445 42.9436C29.9167 42.9436 29.6941 43.0226 29.5047 43.1706C29.3153 43.3187 29.1677 43.529 29.0806 43.7752C28.9934 44.0213 28.9706 44.2921 29.015 44.5534C29.0595 44.8147 29.1691 45.0548 29.3302 45.2431C29.4913 45.4315 29.6965 45.5598 29.9198 45.6118C30.1432 45.6638 30.3748 45.6371 30.5852 45.5351C30.7956 45.4332 30.9755 45.2605 31.102 45.039C31.2286 44.8175 31.2961 44.5571 31.2961 44.2907C31.2958 43.9335 31.1743 43.5911 30.9584 43.3386C30.7425 43.0861 30.4498 42.944 30.1445 42.9436Z" fill="#3F3D56"/>
<path d="M30.1626 44.8529L29.5068 44.0858L29.6984 43.8617L30.1265 44.3623L31.3209 42.377L31.5425 42.5594L30.1626 44.8529Z" fill="#3F3D56"/>
<path opacity="0.1" d="M29.4611 25.086H2.82715V4.21582L29.4611 25.086Z" fill="black"/>
<path d="M39.2959 24.6752H35.9561V24.3937C35.9561 24.3864 35.9549 24.3791 35.9525 24.3723C35.9501 24.3656 35.9466 24.3594 35.9422 24.3542C35.9377 24.3491 35.9325 24.3449 35.9267 24.3421C35.9209 24.3393 35.9147 24.3379 35.9084 24.3379H34.7633C34.7571 24.3379 34.7509 24.3393 34.7451 24.3421C34.7393 24.3449 34.734 24.3491 34.7296 24.3542C34.7252 24.3594 34.7217 24.3656 34.7193 24.3723C34.7169 24.3791 34.7156 24.3864 34.7156 24.3937V24.6752H34V24.3937C34 24.3864 33.9987 24.3791 33.9963 24.3723C33.9939 24.3656 33.9904 24.3594 33.986 24.3542C33.9816 24.3491 33.9763 24.3449 33.9705 24.3421C33.9647 24.3393 33.9585 24.3379 33.9523 24.3379H32.8072C32.8009 24.3379 32.7947 24.3393 32.7889 24.3421C32.7831 24.3449 32.7779 24.3491 32.7734 24.3542C32.769 24.3594 32.7655 24.3656 32.7631 24.3723C32.7607 24.3791 32.7595 24.3864 32.7595 24.3937V24.6752H32.0438V24.3937C32.0438 24.3864 32.0426 24.3791 32.0402 24.3723C32.0378 24.3656 32.0343 24.3594 32.0298 24.3542C32.0254 24.3491 32.0201 24.3449 32.0143 24.3421C32.0086 24.3393 32.0024 24.3379 31.9961 24.3379H30.851C30.8447 24.3379 30.8385 24.3393 30.8328 24.3421C30.827 24.3449 30.8217 24.3491 30.8173 24.3542C30.8128 24.3594 30.8093 24.3656 30.8069 24.3723C30.8045 24.3791 30.8033 24.3864 30.8033 24.3937V24.6752H30.0876V24.3937C30.0876 24.3864 30.0864 24.3791 30.084 24.3723C30.0816 24.3656 30.0781 24.3594 30.0737 24.3542C30.0692 24.3491 30.064 24.3449 30.0582 24.3421C30.0524 24.3393 30.0462 24.3379 30.0399 24.3379H28.8948C28.8886 24.3379 28.8824 24.3393 28.8766 24.3421C28.8708 24.3449 28.8655 24.3491 28.8611 24.3542C28.8567 24.3594 28.8532 24.3656 28.8508 24.3723C28.8484 24.3791 28.8471 24.3864 28.8471 24.3937V24.6752H28.1315V24.3937C28.1315 24.3864 28.1302 24.3791 28.1278 24.3723C28.1254 24.3656 28.1219 24.3594 28.1175 24.3542C28.1131 24.3491 28.1078 24.3449 28.102 24.3421C28.0962 24.3393 28.09 24.3379 28.0838 24.3379H26.9387C26.9324 24.3379 26.9262 24.3393 26.9204 24.3421C26.9146 24.3449 26.9094 24.3491 26.9049 24.3542C26.9005 24.3594 26.897 24.3656 26.8946 24.3723C26.8922 24.3791 26.891 24.3864 26.891 24.3937V24.6752H26.1753V24.3937C26.1753 24.3864 26.1741 24.3791 26.1717 24.3723C26.1693 24.3656 26.1658 24.3594 26.1613 24.3542C26.1569 24.3491 26.1516 24.3449 26.1458 24.3421C26.1401 24.3393 26.1338 24.3379 26.1276 24.3379H24.9825C24.9762 24.3379 24.97 24.3393 24.9643 24.3421C24.9585 24.3449 24.9532 24.3491 24.9488 24.3542C24.9443 24.3594 24.9408 24.3656 24.9384 24.3723C24.936 24.3791 24.9348 24.3864 24.9348 24.3937V24.6752H24.2191V24.3937C24.2191 24.3864 24.2179 24.3791 24.2155 24.3723C24.2131 24.3656 24.2096 24.3594 24.2052 24.3542C24.2007 24.3491 24.1955 24.3449 24.1897 24.3421C24.1839 24.3393 24.1777 24.3379 24.1714 24.3379H15.2017C15.1954 24.3379 15.1892 24.3393 15.1834 24.3421C15.1776 24.3449 15.1724 24.3491 15.1679 24.3542C15.1635 24.3594 15.16 24.3656 15.1576 24.3723C15.1552 24.3791 15.154 24.3864 15.154 24.3937V24.6752H14.4383V24.3937C14.4383 24.3864 14.4371 24.3791 14.4347 24.3723C14.4323 24.3656 14.4287 24.3594 14.4243 24.3542C14.4199 24.3491 14.4146 24.3449 14.4088 24.3421C14.403 24.3393 14.3968 24.3379 14.3906 24.3379H13.2455C13.2392 24.3379 13.233 24.3393 13.2272 24.3421C13.2215 24.3449 13.2162 24.3491 13.2118 24.3542C13.2073 24.3594 13.2038 24.3656 13.2014 24.3723C13.199 24.3791 13.1978 24.3864 13.1978 24.3937V24.6752H12.4821V24.3937C12.4821 24.3864 12.4809 24.3791 12.4785 24.3723C12.4761 24.3656 12.4726 24.3594 12.4681 24.3542C12.4637 24.3491 12.4585 24.3449 12.4527 24.3421C12.4469 24.3393 12.4407 24.3379 12.4344 24.3379H11.2893C11.2831 24.3379 11.2769 24.3393 11.2711 24.3421C11.2653 24.3449 11.26 24.3491 11.2556 24.3542C11.2512 24.3594 11.2476 24.3656 11.2453 24.3723C11.2429 24.3791 11.2416 24.3864 11.2416 24.3937V24.6752H10.5259V24.3937C10.5259 24.3864 10.5247 24.3791 10.5223 24.3723C10.5199 24.3656 10.5164 24.3594 10.512 24.3542C10.5075 24.3491 10.5023 24.3449 10.4965 24.3421C10.4907 24.3393 10.4845 24.3379 10.4782 24.3379H9.33317C9.3269 24.3379 9.32069 24.3393 9.31491 24.3421C9.30912 24.3449 9.30386 24.3491 9.29943 24.3542C9.295 24.3594 9.29148 24.3656 9.28909 24.3723C9.28669 24.3791 9.28545 24.3864 9.28545 24.3937V24.6752H8.56978V24.3937C8.56978 24.3864 8.56855 24.3791 8.56615 24.3723C8.56375 24.3656 8.56024 24.3594 8.55581 24.3542C8.55138 24.3491 8.54612 24.3449 8.54033 24.3421C8.53454 24.3393 8.52834 24.3379 8.52207 24.3379H7.37699C7.37073 24.3379 7.36452 24.3393 7.35874 24.3421C7.35295 24.3449 7.34769 24.3491 7.34326 24.3542C7.33883 24.3594 7.33531 24.3656 7.33291 24.3723C7.33052 24.3791 7.32928 24.3864 7.32928 24.3937V24.6752H6.61362V24.3937C6.61362 24.3864 6.61238 24.3791 6.60998 24.3723C6.60759 24.3656 6.60407 24.3594 6.59964 24.3542C6.59521 24.3491 6.58995 24.3449 6.58416 24.3421C6.57837 24.3393 6.57217 24.3379 6.5659 24.3379H5.42083C5.41456 24.3379 5.40836 24.3393 5.40257 24.3421C5.39678 24.3449 5.39152 24.3491 5.38709 24.3542C5.38266 24.3594 5.37915 24.3656 5.37675 24.3723C5.37435 24.3791 5.37312 24.3864 5.37312 24.3937V24.6752H4.65744V24.3937C4.65744 24.3864 4.65621 24.3791 4.65381 24.3723C4.65141 24.3656 4.6479 24.3594 4.64347 24.3542C4.63904 24.3491 4.63378 24.3449 4.62799 24.3421C4.6222 24.3393 4.616 24.3379 4.60973 24.3379H3.46466C3.45839 24.3379 3.45219 24.3393 3.4464 24.3421C3.44061 24.3449 3.43535 24.3491 3.43092 24.3542C3.42649 24.3594 3.42298 24.3656 3.42058 24.3723C3.41818 24.3791 3.41695 24.3864 3.41695 24.3937V24.6752H1.22222C1.07185 24.6752 0.922948 24.7098 0.784021 24.7771C0.645094 24.8444 0.518862 24.9431 0.412532 25.0675C0.306203 25.1918 0.221857 25.3395 0.164312 25.502C0.106766 25.6645 0.0771483 25.8387 0.0771484 26.0146V26.6202C0.0771492 26.9754 0.197791 27.3161 0.412534 27.5673C0.627277 27.8185 0.91853 27.9596 1.22222 27.9596H39.2959C39.4463 27.9596 39.5952 27.9249 39.7341 27.8576C39.8731 27.7903 39.9993 27.6917 40.1056 27.5673C40.212 27.4429 40.2963 27.2953 40.3538 27.1328C40.4114 26.9703 40.441 26.7961 40.441 26.6202V26.0146C40.441 25.8387 40.4114 25.6645 40.3538 25.502C40.2963 25.3395 40.212 25.1918 40.1056 25.0675C39.9993 24.9431 39.8731 24.8444 39.7341 24.7771C39.5952 24.7098 39.4463 24.6752 39.2959 24.6752Z" fill="#3F3D56"/>
<path d="M28.8575 17.4288H10.9737C10.9199 17.4287 10.8682 17.4036 10.8301 17.3591C10.792 17.3145 10.7706 17.2541 10.7705 17.191V8.47501C10.7706 8.41199 10.792 8.35157 10.8301 8.307C10.8682 8.26244 10.9199 8.23737 10.9737 8.2373H28.8575C28.9114 8.23737 28.963 8.26244 29.0011 8.307C29.0392 8.35157 29.0607 8.41199 29.0607 8.47501V17.191C29.0607 17.2541 29.0392 17.3145 29.0011 17.3591C28.963 17.4036 28.9114 17.4287 28.8575 17.4288ZM10.9737 8.39578C10.9558 8.39581 10.9386 8.40416 10.9259 8.41902C10.9132 8.43387 10.906 8.45401 10.906 8.47501V17.191C10.906 17.2121 10.9132 17.2322 10.9259 17.247C10.9386 17.2619 10.9558 17.2703 10.9737 17.2703H28.8575C28.8754 17.2703 28.8927 17.2619 28.9054 17.247C28.9181 17.2322 28.9252 17.2121 28.9252 17.191V8.47501C28.9252 8.45401 28.9181 8.43387 28.9054 8.41902C28.8927 8.40416 28.8754 8.39581 28.8575 8.39578H10.9737Z" fill="#3F3D56"/>
<path d="M13.0054 13.3091H12.1925C12.1386 13.309 12.0869 13.2839 12.0488 13.2394C12.0107 13.1948 11.9893 13.1344 11.9893 13.0714V12.1205C11.9893 12.0575 12.0107 11.9971 12.0488 11.9525C12.0869 11.9079 12.1386 11.8829 12.1925 11.8828H13.0054C13.0593 11.8829 13.1109 11.9079 13.149 11.9525C13.1871 11.9971 13.2085 12.0575 13.2086 12.1205V13.0714C13.2085 13.1344 13.1871 13.1948 13.149 13.2394C13.1109 13.2839 13.0593 13.309 13.0054 13.3091ZM12.1925 12.0413C12.1745 12.0413 12.1573 12.0497 12.1446 12.0645C12.1319 12.0794 12.1248 12.0995 12.1247 12.1205V13.0714C12.1248 13.0924 12.1319 13.1125 12.1446 13.1274C12.1573 13.1422 12.1745 13.1506 12.1925 13.1506H13.0054C13.0233 13.1506 13.0406 13.1422 13.0533 13.1274C13.066 13.1125 13.0731 13.0924 13.0731 13.0714V12.1205C13.0731 12.0995 13.066 12.0794 13.0533 12.0645C13.0406 12.0497 13.0233 12.0413 13.0054 12.0413H12.1925Z" fill="#3F3D56"/>
<path d="M27.5027 13.1504H12.0576V13.3089H27.5027V13.1504Z" fill="#3F3D56"/>
<path d="M67.673 21.5498H18.0186V21.7083H67.673V21.5498Z" fill="#3F3D56"/>
<path d="M18.0187 22.6591C18.5425 22.6591 18.9671 22.1624 18.9671 21.5497C18.9671 20.9371 18.5425 20.4404 18.0187 20.4404C17.4949 20.4404 17.0703 20.9371 17.0703 21.5497C17.0703 22.1624 17.4949 22.6591 18.0187 22.6591Z" fill="#3F3D56"/>
<path d="M67.6729 22.5791C68.0844 22.5791 68.418 22.1889 68.418 21.7075C68.418 21.2262 68.0844 20.8359 67.6729 20.8359C67.2613 20.8359 66.9277 21.2262 66.9277 21.7075C66.9277 22.1889 67.2613 22.5791 67.6729 22.5791Z" fill="#3F3D56"/>
<path d="M71.3311 40.0909C71.7426 40.0909 72.0763 39.7006 72.0763 39.2193C72.0763 38.7379 71.7426 38.3477 71.3311 38.3477C70.9196 38.3477 70.5859 38.7379 70.5859 39.2193C70.5859 39.7006 70.9196 40.0909 71.3311 40.0909Z" fill="#3F3D56"/>
<path d="M21.8799 40.0909C22.2915 40.0909 22.6251 39.7006 22.6251 39.2193C22.6251 38.7379 22.2915 38.3477 21.8799 38.3477C21.4684 38.3477 21.1348 38.7379 21.1348 39.2193C21.1348 39.7006 21.4684 40.0909 21.8799 40.0909Z" fill="#3F3D56"/>
</g>
<defs>
<clipPath id="clip0_1570_10979">
<rect width="74.5496" height="54.8085" fill="white" transform="translate(0.0771484 0.178711)"/>
</clipPath>
</defs>
</svg>
