<svg width="36" height="36" viewBox="0 0 36 36" fill="none" xmlns="http://www.w3.org/2000/svg">
<path d="M8.00032 18.4977C7.30997 18.4977 6.75032 19.0573 6.75032 19.7477C6.75032 20.438 7.30997 20.9977 8.00032 20.9977H8.83366C9.52401 20.9977 10.0837 20.438 10.0837 19.7477C10.0837 19.0573 9.52401 18.4977 8.83366 18.4977H8.00032Z" fill="#F36B09"/>
<path d="M6.75032 13.9143C6.75032 13.224 7.30997 12.6643 8.00032 12.6643H8.83366C9.52401 12.6643 10.0837 13.224 10.0837 13.9143C10.0837 14.6047 9.52401 15.1643 8.83366 15.1643H8.00032C7.30997 15.1643 6.75032 14.6047 6.75032 13.9143Z" fill="#F36B09"/>
<path d="M8.00032 6.831C7.30997 6.831 6.75032 7.39065 6.75032 8.081C6.75032 8.77136 7.30997 9.33101 8.00032 9.33101H8.83366C9.52401 9.33101 10.0837 8.77136 10.0837 8.081C10.0837 7.39065 9.52401 6.831 8.83366 6.831H8.00032Z" fill="#F36B09"/>
<path d="M12.5837 19.7477C12.5837 19.0573 13.1433 18.4977 13.8337 18.4977H14.667C15.3573 18.4977 15.917 19.0573 15.917 19.7477C15.917 20.438 15.3573 20.9977 14.667 20.9977H13.8337C13.1433 20.9977 12.5837 20.438 12.5837 19.7477Z" fill="#F36B09"/>
<path d="M13.8337 12.6643C13.1433 12.6643 12.5837 13.224 12.5837 13.9143C12.5837 14.6047 13.1433 15.1643 13.8337 15.1643H14.667C15.3573 15.1643 15.917 14.6047 15.917 13.9143C15.917 13.224 15.3573 12.6643 14.667 12.6643H13.8337Z" fill="#F36B09"/>
<path d="M12.5837 8.081C12.5837 7.39065 13.1433 6.831 13.8337 6.831H14.667C15.3573 6.831 15.917 7.39065 15.917 8.081C15.917 8.77136 15.3573 9.33101 14.667 9.33101H13.8337C13.1433 9.33101 12.5837 8.77136 12.5837 8.081Z" fill="#F36B09"/>
<path d="M19.667 18.4977C18.9766 18.4977 18.417 19.0573 18.417 19.7477C18.417 20.438 18.9766 20.9977 19.667 20.9977H20.5003C21.1907 20.9977 21.7503 20.438 21.7503 19.7477C21.7503 19.0573 21.1907 18.4977 20.5003 18.4977H19.667Z" fill="#F36B09"/>
<path d="M18.417 13.9143C18.417 13.224 18.9766 12.6643 19.667 12.6643H20.5003C21.1907 12.6643 21.7503 13.224 21.7503 13.9143C21.7503 14.6047 21.1907 15.1643 20.5003 15.1643H19.667C18.9766 15.1643 18.417 14.6047 18.417 13.9143Z" fill="#F36B09"/>
<path d="M19.667 6.831C18.9766 6.831 18.417 7.39065 18.417 8.081C18.417 8.77136 18.9766 9.33101 19.667 9.33101H20.5003C21.1907 9.33101 21.7503 8.77136 21.7503 8.081C21.7503 7.39065 21.1907 6.831 20.5003 6.831H19.667Z" fill="#F36B09"/>
<path fill-rule="evenodd" clip-rule="evenodd" d="M0.916992 31.831C0.916992 33.672 2.40938 35.1643 4.25032 35.1643H10.5003C11.1907 35.1643 11.7503 34.6047 11.7503 33.9143V30.1643H16.7503V33.9143C16.7503 34.6047 17.31 35.1643 18.0003 35.1643H24.2503C24.4041 35.1643 24.5554 35.1539 24.7037 35.1338C24.7924 35.1538 24.8847 35.1643 24.9795 35.1643H31.7508C33.5921 35.1643 35.0836 33.6715 35.0836 31.831V19.1226C35.0836 18.0735 34.5897 17.0855 33.7503 16.456L32.0837 15.206C31.5314 14.7918 30.7479 14.9037 30.3336 15.456C29.9194 16.0083 30.0314 16.7918 30.5836 17.206L32.2503 18.456C32.4602 18.6134 32.5836 18.8603 32.5836 19.1226V31.831C32.5836 32.2916 32.2107 32.6643 31.7508 32.6643H27.4786C27.5472 32.398 27.5837 32.1187 27.5837 31.831V3.49767C27.5837 1.65672 26.0913 0.164337 24.2503 0.164337H4.25032C2.40938 0.164337 0.916992 1.65672 0.916992 3.49767V31.831ZM4.25032 32.6643C3.79009 32.6643 3.41699 32.2912 3.41699 31.831V3.49767C3.41699 3.03743 3.79009 2.66434 4.25032 2.66434H24.2503C24.7106 2.66434 25.0837 3.03743 25.0837 3.49767V31.831C25.0837 32.2912 24.7106 32.6643 24.2503 32.6643H19.2503V28.9143C19.2503 28.224 18.6907 27.6643 18.0003 27.6643H10.5003C9.80997 27.6643 9.25032 28.224 9.25032 28.9143V32.6643H4.25032Z" fill="#F36B09"/>
</svg>
