<svg width="41" height="40" viewBox="0 0 41 40" fill="none" xmlns="http://www.w3.org/2000/svg">
<path d="M29.6234 16.1397C30.1328 15.6303 30.1328 14.8045 29.6234 14.2951C29.114 13.7857 28.2882 13.7857 27.7788 14.2951L18.2663 23.8075L13.9712 19.5125C13.4618 19.0031 12.636 19.0031 12.1266 19.5125C11.6172 20.0218 11.6172 20.8477 12.1266 21.3571L17.344 26.5745C17.8534 27.0839 18.6792 27.0839 19.1886 26.5745L29.6234 16.1397Z" fill="#03A66D"/>
<path fill-rule="evenodd" clip-rule="evenodd" d="M24.5898 1.21718C22.3791 -0.405727 19.3709 -0.405728 17.1602 1.21718L14.7683 2.97313C14.2917 3.32301 13.7377 3.55252 13.1533 3.64211L10.2203 4.09178C7.50957 4.50738 5.38238 6.63456 4.96678 9.3453L4.51711 12.2783C4.42752 12.8627 4.19801 13.4167 3.84813 13.8933L2.09218 16.2852C0.469273 18.4959 0.469272 21.5041 2.09218 23.7148L3.84813 26.1067C4.19801 26.5833 4.42752 27.1373 4.51711 27.7217L4.96678 30.6547C5.38238 33.3654 7.50956 35.4926 10.2203 35.9082L13.1533 36.3579C13.7377 36.4475 14.2917 36.677 14.7683 37.0269L17.1602 38.7828C19.3709 40.4057 22.3791 40.4057 24.5898 38.7828L26.9817 37.0269C27.4583 36.677 28.0123 36.4475 28.5967 36.3579L31.5297 35.9082C34.2404 35.4926 36.3676 33.3654 36.7832 30.6547L37.2329 27.7217C37.3225 27.1373 37.552 26.5833 37.9019 26.1067L39.6578 23.7148C41.2807 21.5041 41.2807 18.4959 39.6578 16.2852L37.9019 13.8933C37.552 13.4167 37.3225 12.8627 37.2329 12.2783L36.7832 9.3453C36.3676 6.63457 34.2404 4.50738 31.5297 4.09178L28.5967 3.64211C28.0123 3.55252 27.4583 3.32301 26.9817 2.97313L24.5898 1.21718ZM18.704 3.32005C19.9959 2.37158 21.7541 2.37158 23.046 3.32005L25.4379 5.076C26.2534 5.67466 27.2015 6.06737 28.2014 6.22068L31.1344 6.67035C32.7186 6.91323 33.9618 8.15641 34.2047 9.74064L34.6543 12.6736C34.8076 13.6735 35.2003 14.6216 35.799 15.4371L37.555 17.829C38.5034 19.1209 38.5034 20.8791 37.555 22.171L35.799 24.5629C35.2003 25.3784 34.8076 26.3265 34.6543 27.3264L34.2047 30.2594C33.9618 31.8436 32.7186 33.0868 31.1344 33.3297L28.2014 33.7793C27.2015 33.9326 26.2534 34.3253 25.4379 34.924L23.046 36.68C21.7541 37.6284 19.9959 37.6284 18.704 36.68L16.3121 34.924C15.4966 34.3253 14.5485 33.9326 13.5486 33.7793L10.6156 33.3297C9.03141 33.0868 7.78823 31.8436 7.54535 30.2594L7.09568 27.3264C6.94237 26.3265 6.54966 25.3784 5.951 24.5629L4.19505 22.171C3.24658 20.8791 3.24658 19.1209 4.19505 17.829L5.951 15.4371C6.54966 14.6216 6.94237 13.6735 7.09568 12.6736L7.54535 9.74063C7.78823 8.15641 9.03141 6.91323 10.6156 6.67035L13.5486 6.22068C14.5485 6.06737 15.4966 5.67466 16.3121 5.076L18.704 3.32005Z" fill="#03A66D"/>
</svg>
