<svg width="38" height="33" viewBox="0 0 38 33" fill="none" xmlns="http://www.w3.org/2000/svg">
<path fill-rule="evenodd" clip-rule="evenodd" d="M10.4544 2.98123C6.98932 2.98123 3.39355 6.11528 3.39355 10.5038C3.39355 15.6827 7.26621 20.4375 11.4955 24.0382C13.5719 25.8059 15.6545 27.2277 17.221 28.2086C18.0029 28.6981 18.653 29.0758 19.1051 29.3298C19.1474 29.3536 19.1881 29.3763 19.2269 29.3979C19.2657 29.3763 19.3063 29.3536 19.3487 29.3298C19.8008 29.0758 20.4509 28.6981 21.2328 28.2086C22.7993 27.2277 24.8819 25.8059 26.9582 24.0382C31.1876 20.4375 35.0602 15.6827 35.0602 10.5038C35.0602 6.11528 31.4645 2.98123 27.9994 2.98123C24.4905 2.98123 21.6647 5.29621 20.4127 9.05219C20.2426 9.56262 19.7649 9.90691 19.2269 9.90691C18.6888 9.90691 18.2112 9.56262 18.041 9.05219C16.789 5.29621 13.9633 2.98123 10.4544 2.98123ZM19.2269 30.8191L19.7979 31.931C19.4395 32.1151 19.0143 32.1151 18.6559 31.931L19.2269 30.8191ZM0.893555 10.5038C0.893555 4.73457 5.6086 0.481232 10.4544 0.481232C14.2766 0.481232 17.3615 2.52492 19.2269 5.65594C21.0923 2.52492 24.1772 0.481232 27.9994 0.481232C32.8452 0.481232 37.5602 4.73457 37.5602 10.5038C37.5602 16.8676 32.8912 22.2704 28.5789 25.9418C26.3844 27.81 24.1962 29.3027 22.5595 30.3275C21.7399 30.8407 21.0553 31.2385 20.5732 31.5094C20.332 31.6449 20.1413 31.7487 20.0093 31.8194C19.9433 31.8548 19.892 31.8819 19.8564 31.9006L19.815 31.9222L19.8033 31.9282L19.7998 31.93C19.7994 31.9302 19.7979 31.931 19.2269 30.8191C18.6559 31.931 18.6563 31.9312 18.6559 31.931L18.6504 31.9282L18.6388 31.9222L18.5973 31.9006C18.5618 31.8819 18.5105 31.8548 18.4445 31.8194C18.3125 31.7487 18.1218 31.6449 17.8806 31.5094C17.3984 31.2385 16.7139 30.8407 15.8943 30.3275C14.2576 29.3027 12.0694 27.81 9.87491 25.9418C5.56256 22.2704 0.893555 16.8676 0.893555 10.5038Z" fill="#E63535"/>
</svg>
