<svg width="24" height="22" viewBox="0 0 24 22" fill="none" xmlns="http://www.w3.org/2000/svg">
<path d="M12.7026 0.668076C12.5762 0.412074 12.3155 0.25 12.03 0.25C11.7445 0.25 11.4838 0.412074 11.3575 0.668076L8.29913 6.8649L1.46053 7.85861C1.17802 7.89966 0.943308 8.09754 0.855089 8.36905C0.76687 8.64056 0.840443 8.93861 1.04487 9.13788L5.99333 13.9614L4.82516 20.7724C4.7769 21.0538 4.89257 21.3381 5.12353 21.5059C5.35449 21.6738 5.66068 21.6959 5.91337 21.563L12.03 18.3473L18.1466 21.563C18.3993 21.6959 18.7055 21.6738 18.9365 21.5059C19.1674 21.3381 19.2831 21.0538 19.2348 20.7724L18.0667 13.9614L23.0151 9.13788C23.2196 8.93861 23.2931 8.64056 23.2049 8.36905C23.1167 8.09754 22.882 7.89966 22.5995 7.85861L15.7609 6.8649L12.7026 0.668076Z" fill="url(#paint0_linear_1669_2216)"/>
<defs>
<linearGradient id="paint0_linear_1669_2216" x1="0.818359" y1="10.9496" x2="23.2416" y2="10.9496" gradientUnits="userSpaceOnUse">
<stop stop-color="#F5811E"/>
<stop offset="1" stop-color="#FFD200"/>
</linearGradient>
</defs>
</svg>
