<svg width="21" height="25" viewBox="0 0 21 25" fill="none" xmlns="http://www.w3.org/2000/svg">
<path d="M10.4872 13.9691C11.8089 13.9691 12.8803 12.8498 12.8803 11.4691C12.8803 10.0884 11.8089 8.96912 10.4872 8.96912C9.16546 8.96912 8.09401 10.0884 8.09401 11.4691C8.09401 12.8498 9.16546 13.9691 10.4872 13.9691Z" fill="#737373"/>
<path fill-rule="evenodd" clip-rule="evenodd" d="M17.256 3.89805C13.5177 -0.00719476 7.45664 -0.00719476 3.7183 3.89805C-0.0200338 7.80329 -0.0200338 14.1349 3.7183 18.0402L3.74482 18.0678L8.89068 23.4434C9.77244 24.3645 11.2021 24.3645 12.0838 23.4434L17.2561 18.0402C20.9944 14.1349 20.9943 7.80327 17.256 3.89805ZM4.73363 4.95871C7.91122 1.63925 13.0631 1.63925 16.2407 4.95871C19.4183 8.27815 19.4183 13.6601 16.2408 16.9795L11.0685 22.3827C10.7475 22.7181 10.227 22.7181 9.90601 22.3827L4.7582 17.0051L4.75625 17.0031L4.73363 16.9795C1.55605 13.6601 1.55605 8.27817 4.73363 4.95871Z" fill="#737373"/>
</svg>
