<svg width="19" height="21" viewBox="0 0 19 21" fill="none" xmlns="http://www.w3.org/2000/svg">
<path fill-rule="evenodd" clip-rule="evenodd" d="M18.0732 4.44189C18.0732 6.37489 16.5062 7.94189 14.5732 7.94189C13.5617 7.94189 12.6503 7.51275 12.0113 6.82659L6.89887 9.8479C7.01203 10.1921 7.07324 10.5598 7.07324 10.9419C7.07324 11.3239 7.01203 11.6917 6.89888 12.0359L12.0115 15.057C12.6505 14.371 13.5618 13.9419 14.5732 13.9419C16.5062 13.9419 18.0732 15.5089 18.0732 17.4419C18.0732 19.3749 16.5062 20.9419 14.5732 20.9419C12.6402 20.9419 11.0732 19.3749 11.0732 17.4419C11.0732 17.0598 11.1345 16.6921 11.2476 16.3479L6.13496 13.3268C5.49599 14.0128 4.58472 14.4419 3.57324 14.4419C1.64025 14.4419 0.0732422 12.8749 0.0732422 10.9419C0.0732422 9.0089 1.64025 7.44189 3.57324 7.44189C4.58472 7.44189 5.49598 7.87095 6.13496 8.557L11.2476 5.53589L11.248 5.53707C11.1346 5.19255 11.0732 4.82439 11.0732 4.44189C11.0732 2.5089 12.6402 0.941895 14.5732 0.941895C16.5062 0.941895 18.0732 2.5089 18.0732 4.44189ZM16.5732 4.44189C16.5732 5.54646 15.6778 6.44189 14.5732 6.44189C13.4687 6.44189 12.5732 5.54646 12.5732 4.44189C12.5732 3.33733 13.4687 2.44189 14.5732 2.44189C15.6778 2.44189 16.5732 3.33733 16.5732 4.44189ZM3.57324 12.9419C4.67781 12.9419 5.57324 12.0465 5.57324 10.9419C5.57324 9.83733 4.67781 8.94189 3.57324 8.94189C2.46867 8.94189 1.57324 9.83733 1.57324 10.9419C1.57324 12.0465 2.46867 12.9419 3.57324 12.9419ZM16.5732 17.4419C16.5732 18.5465 15.6778 19.4419 14.5732 19.4419C13.4687 19.4419 12.5732 18.5465 12.5732 17.4419C12.5732 16.3373 13.4687 15.4419 14.5732 15.4419C15.6778 15.4419 16.5732 16.3373 16.5732 17.4419Z" fill="#004FC4"/>
</svg>
