<svg width="27" height="16" viewBox="0 0 27 16" fill="none" xmlns="http://www.w3.org/2000/svg">
<path d="M1.23486 0.5C0.682579 0.5 0.234863 0.947715 0.234863 1.5C0.234863 2.05228 0.682579 2.5 1.23486 2.5H25.9015C26.4538 2.5 26.9015 2.05228 26.9015 1.5C26.9015 0.947715 26.4538 0.5 25.9015 0.5H1.23486Z" fill="#1E2329"/>
<path d="M5.5682 8.16667C5.5682 7.61438 6.01591 7.16667 6.5682 7.16667H20.5682C21.1205 7.16667 21.5682 7.61438 21.5682 8.16667C21.5682 8.71895 21.1205 9.16667 20.5682 9.16667H6.5682C6.01591 9.16667 5.5682 8.71895 5.5682 8.16667Z" fill="#1E2329"/>
<path d="M10.9015 14.75C10.9015 14.1977 11.3492 13.75 11.9015 13.75H15.2349C15.7871 13.75 16.2349 14.1977 16.2349 14.75C16.2349 15.3023 15.7871 15.75 15.2349 15.75H11.9015C11.3492 15.75 10.9015 15.3023 10.9015 14.75Z" fill="#1E2329"/>
</svg>
