<svg width="21" height="23" viewBox="0 0 21 23" fill="none" xmlns="http://www.w3.org/2000/svg">
<path fill-rule="evenodd" clip-rule="evenodd" d="M14.5186 2.00391V3.25391H19.7686C20.1828 3.25391 20.5186 3.58969 20.5186 4.00391C20.5186 4.41812 20.1828 4.75391 19.7686 4.75391H1.26855C0.854341 4.75391 0.518555 4.41812 0.518555 4.00391C0.518555 3.58969 0.854341 3.25391 1.26855 3.25391H6.51855V2.00391C6.51855 1.03741 7.30206 0.253906 8.26855 0.253906H12.7686C13.7351 0.253906 14.5186 1.03741 14.5186 2.00391ZM8.01855 2.00391C8.01855 1.86584 8.13048 1.75391 8.26855 1.75391H12.7686C12.9066 1.75391 13.0186 1.86583 13.0186 2.00391V3.25391H8.01855V2.00391Z" fill="#E63535"/>
<path d="M3.51512 6.43166C3.47522 6.01937 3.10865 5.71749 2.69636 5.75739C2.28408 5.79728 1.9822 6.16385 2.0221 6.57614L3.43464 21.1725C3.52145 22.0695 4.2753 22.7539 5.17651 22.7539H15.8607C16.7619 22.7539 17.5158 22.0695 17.6026 21.1725L19.0151 6.57614C19.055 6.16385 18.7531 5.79728 18.3409 5.75739C17.9286 5.71749 17.562 6.01937 17.5221 6.43166L16.1095 21.028C16.0971 21.1561 15.9895 21.2539 15.8607 21.2539H5.17651C5.04776 21.2539 4.94007 21.1561 4.92767 21.028L3.51512 6.43166Z" fill="#E63535"/>
<path d="M7.72454 7.75519C8.13803 7.73087 8.49296 8.04636 8.51728 8.45986L9.01728 16.9599C9.04161 17.3734 8.72612 17.7283 8.31262 17.7526C7.89912 17.7769 7.5442 17.4614 7.51987 17.0479L7.01987 8.54794C6.99555 8.13444 7.31104 7.77952 7.72454 7.75519Z" fill="#E63535"/>
<path d="M14.0173 8.54794C14.0416 8.13444 13.7261 7.77952 13.3126 7.75519C12.8991 7.73087 12.5442 8.04636 12.5199 8.45986L12.0199 16.9599C11.9955 17.3734 12.311 17.7283 12.7245 17.7526C13.138 17.7769 13.493 17.4614 13.5173 17.0479L14.0173 8.54794Z" fill="#E63535"/>
</svg>
