<svg width="96" height="63" viewBox="0 0 96 63" fill="none" xmlns="http://www.w3.org/2000/svg">
<g clip-path="url(#clip0_1002_12413)">
<path d="M75.786 49.6102C75.786 50.1464 72.6622 51.7096 68.9516 51.7096C65.2409 51.7096 62.3496 50.1464 62.3496 49.6102C62.3496 49.0741 65.3572 49.2467 69.0715 49.2467C72.7857 49.2467 75.786 49.0731 75.786 49.6102Z" fill="#504F60"/>
<path opacity="0.2" d="M75.786 49.6101C75.786 50.1463 72.6622 51.7094 68.9516 51.7094C65.2409 51.7094 62.3496 50.1463 62.3496 49.6101" fill="black"/>
<path d="M38.4171 39.7716C39.0193 39.8488 39.6443 39.8979 40.2211 39.7107C40.3119 39.6825 40.4118 39.6198 40.4028 39.5289C40.3963 39.4959 40.3823 39.4648 40.3619 39.438C40.1444 39.1118 39.9618 38.7636 39.8169 38.3993C39.8111 38.3803 39.7993 38.3637 39.7833 38.352C39.7645 38.3452 39.7439 38.3452 39.7251 38.352C39.459 38.422 39.2292 38.5938 38.9648 38.6674C38.83 38.7044 38.6894 38.7149 38.5506 38.6983C38.4307 38.6846 38.2672 38.5856 38.1582 38.5983C38.22 38.9955 38.3708 39.3662 38.4171 39.7716Z" fill="#F5811E"/>
<path d="M49.807 38.7655C50.204 38.4929 50.6155 38.2066 50.8498 37.7858C50.8666 37.7606 50.8763 37.7315 50.878 37.7013C50.874 37.6716 50.8624 37.6434 50.8444 37.6195C50.6211 37.2644 50.3337 36.9541 49.9969 36.7043C49.8211 36.8286 49.6623 36.9752 49.5245 37.1406C49.4246 37.246 49.1485 37.4132 49.1458 37.5741C49.1458 37.6649 49.2511 37.7704 49.3002 37.8467C49.3665 37.9449 49.4292 38.0448 49.4891 38.1466C49.5236 38.1966 49.8388 38.7455 49.807 38.7655Z" fill="#F5811E"/>
<path d="M40.778 40.9885C40.7851 41.0821 40.7594 41.1753 40.7053 41.252C40.6629 41.2947 40.6104 41.326 40.5527 41.3429C39.7106 41.6446 38.736 41.2684 37.8957 41.5656C37.7232 41.6265 37.5597 41.7146 37.3862 41.7728C37.1793 41.835 36.9659 41.8728 36.7503 41.8855C36.4533 41.9136 36.1544 41.9318 35.8565 41.94C35.6301 41.956 35.4026 41.9361 35.1825 41.8809C35.0724 41.8527 34.9695 41.8017 34.8804 41.7311C34.7914 41.6604 34.7182 41.5719 34.6656 41.4711C34.62 41.3807 34.6108 41.2762 34.6402 41.1793C34.6534 41.1461 34.6721 41.1154 34.6956 41.0885C34.7525 41.0246 34.8194 40.9702 34.8936 40.9276L35.2034 40.7277C35.3486 40.6249 35.5065 40.5412 35.673 40.4787C35.7956 40.4387 35.9255 40.4214 36.05 40.3878C36.4851 40.2606 36.8175 39.9152 37.1264 39.5835L37.5478 39.1337C37.5873 39.0842 37.6372 39.0441 37.6941 39.0164C37.7525 38.9969 37.8147 38.991 37.8758 38.9992C38.2852 39.0284 38.6805 39.161 39.0248 39.3845C39.1128 39.4505 39.2079 39.5066 39.3082 39.5517C39.5553 39.648 39.8723 39.5753 40.1003 39.4536C40.2084 39.3954 40.1848 39.3627 40.2302 39.2591C40.2756 39.1555 40.3865 39.0891 40.4827 39.1836C40.5118 39.2163 40.5324 39.2556 40.5427 39.2981C40.6335 39.598 40.599 39.9207 40.599 40.2351C40.5964 40.2843 40.6025 40.3335 40.6172 40.3805C40.6404 40.4279 40.668 40.4729 40.6998 40.515C40.7063 40.5262 40.7121 40.5377 40.7171 40.5496C40.7727 40.6888 40.7936 40.8394 40.778 40.9885Z" fill="#514E7F"/>
<path d="M40.778 40.9885C40.7851 41.0822 40.7594 41.1754 40.7053 41.2521C40.6629 41.2948 40.6104 41.326 40.5527 41.343C39.7106 41.6447 38.736 41.2685 37.8957 41.5656C37.7232 41.6265 37.5597 41.7147 37.3862 41.7728C37.1793 41.835 36.9659 41.8729 36.7503 41.8855C36.4533 41.9137 36.1544 41.9319 35.8565 41.9401C35.6301 41.9561 35.4026 41.9361 35.1825 41.881C35.0724 41.8528 34.9695 41.8017 34.8804 41.7311C34.7914 41.6605 34.7182 41.5719 34.6656 41.4711C34.62 41.3808 34.6108 41.2763 34.6402 41.1794C34.6534 41.1462 34.6721 41.1154 34.6956 41.0885C34.7447 41.1912 34.7801 41.3275 34.811 41.3766C34.8527 41.4493 34.9094 41.5123 34.9774 41.5614C35.0454 41.6104 35.123 41.6444 35.2052 41.6611C35.3281 41.6686 35.4514 41.6529 35.5685 41.6147C36.3316 41.4257 37.1427 41.4229 37.8758 41.1367C38.1274 41.0376 38.3672 40.9059 38.6315 40.8459C38.8958 40.7859 39.1765 40.8022 39.449 40.7795C39.8796 40.745 40.2965 40.615 40.7207 40.5469C40.7755 40.6872 40.7952 40.8389 40.778 40.9885Z" fill="#464353"/>
<path d="M51.7354 38.71C51.6955 39.0299 51.4929 39.3053 51.2704 39.5388C51.0478 39.7724 50.7962 39.9823 50.6191 40.2513C50.4011 40.5849 50.303 40.9984 50.0196 41.2801C49.9108 41.3826 49.7885 41.4697 49.6562 41.5391C49.508 41.6266 49.3512 41.6988 49.1884 41.7545C48.7651 41.8899 48.3091 41.859 47.8667 41.8263C47.7231 41.8249 47.5809 41.7975 47.4471 41.7454C47.3861 41.7144 47.3278 41.6786 47.2727 41.6382C47.1618 41.5698 47.0685 41.4765 47.0002 41.3655C46.9666 41.3052 46.9572 41.2344 46.9738 41.1674C46.9991 41.0936 47.0425 41.0274 47.1001 40.9747C47.1996 40.8712 47.3065 40.7749 47.4198 40.6867C47.5753 40.5862 47.7155 40.4638 47.8359 40.3231C47.9097 40.212 47.9641 40.0891 47.9966 39.9596C48.061 39.7329 48.1003 39.4997 48.1138 39.2644C48.1133 39.108 48.1295 38.952 48.162 38.7991C48.2292 38.5592 48.4072 38.3447 48.3872 38.0966C48.3791 38.0611 48.3823 38.0239 48.3963 37.9903C48.4175 37.964 48.4469 37.9457 48.4799 37.9385C48.6187 37.8831 48.7651 37.8491 48.9141 37.8376C48.9888 37.8324 49.0638 37.8439 49.1335 37.8713C49.2033 37.8986 49.2661 37.9411 49.3174 37.9957C49.3792 38.0702 49.42 38.1775 49.5109 38.2066C49.5559 38.2188 49.6031 38.2207 49.6489 38.212C49.8724 38.1893 50.1086 38.1611 50.2848 38.0166C50.3662 37.9435 50.4317 37.8544 50.477 37.7547C50.5224 37.6551 50.5466 37.5472 50.5482 37.4377C50.5482 37.355 50.511 37.2687 50.6391 37.256C50.7353 37.2432 50.8116 37.3468 50.8607 37.4104C51.0378 37.6476 51.2195 37.8957 51.2858 38.1847C51.3116 38.1747 51.339 38.1695 51.3666 38.1693C51.4233 38.1688 51.4792 38.182 51.5297 38.2078C51.5801 38.2336 51.6236 38.2712 51.6564 38.3174C51.7288 38.4347 51.7568 38.5739 51.7354 38.71Z" fill="#514E7F"/>
<path d="M51.7354 38.7101C51.6954 39.03 51.4929 39.3054 51.2703 39.539C51.0478 39.7725 50.7961 39.9825 50.619 40.2515C50.401 40.585 50.3029 40.9985 50.0195 41.2802C49.9107 41.3827 49.7885 41.4698 49.6562 41.5392C49.5079 41.6267 49.3512 41.6989 49.1884 41.7546C48.7651 41.89 48.3091 41.8591 47.8667 41.8264C47.7231 41.825 47.5809 41.7976 47.447 41.7455C47.3861 41.7145 47.3278 41.6787 47.2726 41.6383C47.1617 41.57 47.0684 41.4766 47.0001 41.3656C47.0853 41.3247 47.1782 41.3024 47.2726 41.3002C47.4688 41.3111 47.6124 41.4965 47.8004 41.5538C48.0684 41.6346 48.3354 41.4456 48.607 41.3811C48.7841 41.3393 48.9703 41.3502 49.1457 41.2902C49.2918 41.2337 49.4268 41.1519 49.5444 41.0485C49.7057 40.9331 49.8493 40.7947 49.9705 40.6377C50.0711 40.4807 50.1548 40.3134 50.2202 40.1388C50.3637 39.804 50.5325 39.4808 50.7253 39.1718C50.7538 39.1229 50.7883 39.0777 50.8279 39.0373C50.8706 38.9982 50.9188 38.971 50.9669 38.9364C51.1486 38.7992 51.224 38.5729 51.2876 38.3512C51.3048 38.2838 51.3288 38.2183 51.3593 38.1558C51.416 38.1553 51.4719 38.1685 51.5224 38.1943C51.5728 38.2201 51.6163 38.2577 51.6491 38.3039C51.7273 38.4239 51.758 38.5687 51.7354 38.7101Z" fill="#464353"/>
<path d="M32.688 10.3758C32.9141 10.5453 33.1002 10.7625 33.2331 11.0119C33.3602 11.2609 34.0933 13.193 34.0506 13.4738C34.2895 13.233 35.2314 13.1939 35.4731 12.9531C35.5739 12.8522 36.118 12.3488 36.1998 12.2315C36.2815 12.1143 36.8883 11.868 36.9546 11.7444C37.2026 11.3 35.196 9.61601 35.4531 9.17706C35.4673 9.15689 35.4746 9.13267 35.474 9.10799C35.4681 9.08727 35.4565 9.06867 35.4404 9.05437C35.276 8.88625 35.058 8.78173 34.8599 8.65723C34.6619 8.53272 34.4711 8.35914 34.4176 8.13013C34.2287 8.21709 34.0554 8.33436 33.9043 8.47729C33.5361 8.79294 33.1743 9.11496 32.8188 9.44334C32.6799 9.57239 32.411 9.74415 32.3465 9.92864C32.2702 10.1268 32.5554 10.2676 32.688 10.3758Z" fill="#A1616A"/>
<path d="M35.9364 9.6604C35.6285 9.86738 35.3408 10.1029 35.077 10.3638C34.8282 10.6101 34.592 10.8955 34.532 11.2399C34.5066 11.3753 34.5102 11.5125 34.4893 11.6498C34.3985 12.245 33.8844 12.6812 33.6573 13.2383C33.5915 13.4103 33.5431 13.5884 33.5129 13.77C33.449 14.1142 33.4141 14.4632 33.4084 14.8133C33.4029 15.1523 33.7354 15.3858 33.8571 15.7021C33.9788 16.0183 34.0115 16.3437 34.0733 16.6681C34.1896 17.2807 34.403 17.8714 34.6183 18.4585C35.0661 19.6962 36.5177 23.1179 36.9655 24.3565C38.3381 24.0121 41.9915 23.2205 43.2069 22.4944C43.612 22.2527 40.3955 19.5254 40.8288 19.3373C40.8535 19.3334 40.8771 19.3238 40.8975 19.3093C40.9179 19.2948 40.9347 19.2757 40.9465 19.2536C40.9583 19.2315 40.9648 19.2069 40.9655 19.1818C40.9662 19.1568 40.9611 19.1319 40.9505 19.1092C40.5172 17.2134 39.1619 15.6557 38.547 13.81C38.3335 13.1693 37.9502 12.6222 37.6595 12.0133C37.3961 11.4616 37.2553 10.8518 36.9401 10.3275C36.8807 10.2194 36.8029 10.1226 36.7103 10.0412C36.6317 9.98088 36.5467 9.92937 36.4568 9.8876C36.277 9.80036 36.1098 9.74855 35.9364 9.6604Z" fill="#514E7F"/>
<path d="M32.7607 10.1602C33.9471 10.1602 34.909 9.1979 34.909 8.01087C34.909 6.82385 33.9471 5.86157 32.7607 5.86157C31.5742 5.86157 30.6124 6.82385 30.6124 8.01087C30.6124 9.1979 31.5742 10.1602 32.7607 10.1602Z" fill="#A1616A"/>
<path d="M34.9463 9.02076C35.0534 8.92196 35.1878 8.85796 35.332 8.83719C35.4762 8.81642 35.6232 8.83987 35.7538 8.90443C35.8992 8.97986 36.0263 9.13254 35.9936 9.29249L37.0591 9.30885C37.2287 9.30421 37.3983 9.31977 37.5642 9.3552C37.7312 9.39157 37.8802 9.4851 37.9856 9.61966C37.9984 9.63692 38.0129 9.65783 38.0347 9.66055C38.0524 9.66083 38.0697 9.65506 38.0838 9.64419C38.2477 9.56195 38.4323 9.53032 38.6142 9.55331C39.1901 9.59058 39.7224 9.87866 40.1739 10.2385C40.2553 10.2945 40.3185 10.3732 40.3556 10.4648C40.3928 10.5857 40.3483 10.7375 40.4464 10.8238C40.4464 11.8235 40.7897 12.7577 41.0187 13.732C41.0595 13.9055 41.2258 14.0591 41.3411 14.1954C41.4836 14.3466 41.6 14.5204 41.6854 14.7098C41.8798 15.2151 41.6118 15.8095 41.8007 16.3166C41.8807 16.531 42.0351 16.7074 42.1641 16.8937C42.3341 17.1088 42.4416 17.3666 42.4747 17.6389C42.4829 17.7606 42.4675 17.8833 42.4747 18.0024C42.4869 18.1661 42.5174 18.328 42.5656 18.485C42.6431 18.7782 42.7242 19.0711 42.809 19.3638C42.9471 19.8363 43.1269 20.3462 43.5502 20.5979C42.5283 20.7715 41.451 20.9414 40.4773 20.5861C40.3414 20.5397 40.2125 20.4752 40.0939 20.3943C39.7424 20.1435 39.5725 19.7146 39.4208 19.3092C39.2519 18.8548 39.0802 18.3923 39.0457 17.9088C39.046 17.755 39.0243 17.602 38.9812 17.4544C38.8822 17.1908 38.6179 17.0318 38.3781 16.8855C38.1073 16.737 37.8619 16.5462 37.6514 16.3202C37.5469 16.2064 37.4669 16.0723 37.4162 15.9263C37.3656 15.7803 37.3455 15.6255 37.3571 15.4714C37.3752 15.3214 37.4343 15.1769 37.4397 15.0261C37.4452 14.8752 37.378 14.7026 37.2335 14.6626C36.4896 14.4372 36.1344 13.5557 35.9691 12.7959C35.8978 12.4032 35.8658 12.0044 35.8737 11.6054L35.8637 10.8302C35.7611 10.7367 35.6785 10.6234 35.621 10.497C35.5636 10.3706 35.5324 10.2338 35.5295 10.095C35.5393 10.014 35.5378 9.93197 35.5249 9.8514C35.489 9.75291 35.4305 9.66421 35.3541 9.59239C35.1899 9.42374 35.0523 9.23097 34.9463 9.02076Z" fill="#464353"/>
<path d="M32.6581 11.478C32.6336 11.7179 32.6881 11.9642 32.6345 12.1995C32.6136 12.2904 32.5773 12.3813 32.5509 12.4658C32.4704 12.8046 32.5053 13.1606 32.65 13.4773C32.7945 13.7909 32.9675 14.0906 33.1668 14.3725C33.2342 14.4687 33.2897 14.5728 33.3321 14.6824C33.3665 14.7975 33.3878 14.916 33.3957 15.0359C33.4483 15.5172 33.5327 15.9944 33.6482 16.4645C33.75 16.8717 34.9054 20.3524 35.1743 20.675C35.2231 20.7464 35.2971 20.7967 35.3814 20.8158C35.4422 20.8181 35.5027 20.8057 35.5576 20.7795L36.1026 20.5705C36.149 20.5563 36.1919 20.5328 36.2289 20.5014C36.28 20.4417 36.3077 20.3655 36.307 20.2869C36.3461 19.8434 35.1879 16.3382 35.0408 15.9192C34.5957 14.6542 34.0034 13.4346 33.7136 12.125C33.6328 11.7615 33.5901 11.2017 33.324 10.9118C33.214 10.7918 33.2513 10.8427 33.1196 10.9054C33.053 10.9343 32.9887 10.968 32.927 11.0063C32.8499 11.0599 32.7858 11.1301 32.7392 11.2117C32.6927 11.2933 32.665 11.3843 32.6581 11.478Z" fill="#464353"/>
<path d="M34.3122 13.8782C34.4584 14.6515 34.6092 15.4231 34.7591 16.1965L36.8919 15.6376C36.9092 15.414 36.7902 15.2068 36.7102 15.0014C36.5159 14.5134 36.5113 13.9699 36.3542 13.4683C36.2352 13.0866 36.0281 12.7358 35.9163 12.3514C35.8518 12.1278 35.8191 11.897 35.7556 11.6707C35.6874 11.4485 35.6036 11.2313 35.5049 11.0209C35.3851 10.7157 35.229 10.4261 35.0398 10.1584C34.7673 10.2602 34.4766 10.3784 34.3213 10.6247C34.2416 10.7634 34.1961 10.9192 34.1886 11.0791C34.1514 11.558 34.3249 12.0397 34.2677 12.5159C34.2087 12.9694 34.2238 13.4295 34.3122 13.8782Z" fill="#F5811E"/>
<path d="M36.9273 24.1657C37.0472 24.6201 36.8737 25.0981 36.732 25.548C36.5187 26.2256 36.3732 26.9227 36.2978 27.6291C36.2886 27.8089 36.2525 27.9863 36.1907 28.1553C36.1234 28.3071 36.009 28.4352 35.9309 28.5797C35.7165 28.9596 35.7219 29.4231 35.7683 29.8575C35.7992 30.1438 35.8455 30.4291 35.9027 30.7108C35.9726 31.0553 36.0589 31.4152 35.9581 31.7514C36.1271 31.7142 36.2415 31.9332 36.2306 32.1049C36.2197 32.2767 36.1643 32.4685 36.247 32.6166C36.4559 32.6929 36.4577 32.9801 36.4514 33.2028C36.4548 33.5888 36.5036 33.9732 36.5967 34.3478C36.9128 35.8686 37.2483 37.385 37.6031 38.8973C38.3707 39.1354 39.2673 39.3835 39.9994 39.0536C40.1357 38.9927 40.2719 38.8955 40.3028 38.7482C40.3108 38.6689 40.3008 38.5888 40.2737 38.5138L39.9267 37.2505C39.8422 36.9452 39.7578 36.6298 39.8023 36.3163C39.8359 36.0827 39.9376 35.831 39.8232 35.6247C39.7841 35.5538 39.7223 35.4984 39.6769 35.4311C39.4953 35.1649 39.5906 34.8086 39.6052 34.486C39.6108 34.4136 39.6059 34.3407 39.5906 34.2697C39.5658 34.1868 39.531 34.1071 39.4871 34.0325C39.2003 33.4755 39.0626 32.8537 39.0874 32.2276C39.0983 32.1477 39.0873 32.0664 39.0556 31.9922C39.0336 31.9616 39.0138 31.9294 38.9966 31.8959C38.983 31.8376 38.9898 31.7763 39.0156 31.7223C38.9115 31.6433 38.8176 31.5517 38.7359 31.4497C38.7863 31.4184 38.8289 31.376 38.8605 31.3258C38.8921 31.2755 38.9119 31.2188 38.9184 31.1598C38.9248 31.1008 38.9178 31.0411 38.8978 30.9852C38.8779 30.9293 38.8455 30.8787 38.8031 30.8372C38.8401 30.8297 38.8744 30.8121 38.902 30.7863C38.9297 30.7606 38.9497 30.7276 38.9597 30.6912C38.9698 30.6548 38.9696 30.6162 38.9591 30.5799C38.9486 30.5436 38.9282 30.5109 38.9003 30.4855C38.8558 30.4546 38.7967 30.4409 38.7649 30.3946C38.7159 30.3273 38.7559 30.2337 38.7958 30.1619L39.0075 29.7793C39.1655 29.4949 39.2009 29.1432 39.3708 28.8705C39.6143 28.4734 39.7732 28.0308 39.9304 27.5928L40.5417 25.9051L40.9532 26.2623C41.0902 26.367 41.2051 26.498 41.2911 26.6476C41.3496 26.7955 41.3866 26.9509 41.401 27.1093C41.5518 28.0254 42.1277 28.8196 42.3411 29.7221C42.3884 29.9229 42.4202 30.1338 42.5355 30.3055C42.5768 30.3583 42.6139 30.4142 42.6463 30.4727C42.6764 30.5621 42.6921 30.6557 42.6927 30.7499C42.7117 30.9345 42.7703 31.1128 42.8643 31.2728C42.9583 31.4327 43.0857 31.5706 43.2377 31.6769C43.4403 31.8159 43.6919 31.9114 43.8018 32.1313C43.8238 32.1994 43.8543 32.2644 43.8926 32.3249C43.9907 32.443 44.2024 32.4566 44.2442 32.6048C44.2678 32.6875 44.2242 32.7865 44.2705 32.8592C44.2968 32.8929 44.3316 32.9189 44.3713 32.9347L44.9627 33.23C45.6239 33.5608 45.9619 34.3206 46.4496 34.874C46.6181 35.0543 46.7673 35.2517 46.8947 35.4629C47.1055 35.8401 47.2027 36.3136 47.5588 36.5535C47.6545 36.6031 47.7416 36.6679 47.8167 36.7452C47.9285 36.8925 47.8876 37.0988 47.8976 37.2842C47.9076 37.4696 48.0493 37.6904 48.2255 37.6341C48.1637 37.8586 48.1637 38.0956 48.2255 38.3202C48.9991 38.2804 49.7369 37.9815 50.3202 37.4714C50.4927 37.3205 50.659 37.1278 50.6608 36.8988C50.6634 36.8593 50.6546 36.8199 50.6354 36.7852C50.6004 36.7405 50.5544 36.7057 50.5018 36.6844C49.9486 36.3845 49.7824 35.6892 49.5026 35.1249C49.2583 34.6268 48.8968 34.1979 48.5943 33.7353C47.9366 32.7402 47.4879 31.536 46.4932 30.879C46.2743 30.7345 46.02 30.6063 45.9101 30.3673C45.8492 30.2337 45.842 30.081 45.7938 29.9429C45.7457 29.8048 45.6303 29.6703 45.4832 29.6703C45.5649 29.4703 45.5486 29.2268 45.554 29.0105C45.5596 28.9145 45.5485 28.8183 45.5213 28.726C45.4835 28.6268 45.4344 28.5323 45.3751 28.4443C45.1155 28.0047 44.9858 27.5006 45.0008 26.9902C45.0081 26.7276 45.0544 26.4568 44.9754 26.2059C44.9354 26.0796 44.8655 25.9642 44.8173 25.8424C44.7448 25.6218 44.7065 25.3913 44.7038 25.159L44.6493 24.2857C44.641 23.9948 44.6033 23.7055 44.5366 23.4223C44.355 22.7443 44.1733 19.9043 43.5511 19.5845C42.9289 19.2646 41.8597 21.4502 41.1594 21.4929C40.8495 21.5058 40.5434 21.5649 40.251 21.6683C39.785 21.8428 39.3944 22.1682 39.0138 22.4862L37.7258 23.5686C37.4533 23.7931 37.228 24.0076 36.9273 24.1657Z" fill="#464353"/>
<path d="M30.7451 5.62458C31.0285 5.23743 31.5154 5.03204 31.995 5.01477C32.4746 4.99751 32.947 5.14837 33.3766 5.36193C33.5034 5.43409 33.639 5.48967 33.7799 5.52733C34.007 5.57368 34.2595 5.51188 34.4648 5.61821C34.7373 5.76271 34.79 6.13077 34.7664 6.43613C34.7428 6.74149 34.6856 7.08047 34.8481 7.34493C34.9058 7.42035 34.9583 7.49959 35.0053 7.58212C35.0752 7.73934 35.0344 7.9211 34.9926 8.08741C34.8863 7.99653 34.8263 7.8593 34.7319 7.75388C34.6374 7.64846 34.473 7.57758 34.3558 7.65664C34.2386 7.73571 34.2405 7.8793 34.2341 8.00835C34.2277 8.1374 34.195 8.29189 34.0733 8.3337C34.0225 8.34527 33.9693 8.34133 33.9208 8.32237C33.8722 8.30342 33.8304 8.27032 33.8008 8.22737C33.5928 7.9729 33.6764 7.56667 33.4702 7.31039C33.353 7.16498 33.1577 7.0941 33.0496 6.94142C32.9642 6.82146 32.9424 6.66878 32.8679 6.53973C32.7934 6.41068 32.6199 6.31617 32.5046 6.40523C32.4652 6.44286 32.4324 6.48678 32.4074 6.53519C32.3354 6.63828 32.2309 6.71409 32.1105 6.75037C31.9902 6.78664 31.8612 6.78128 31.7443 6.73512C31.655 6.68026 31.5583 6.63834 31.4572 6.61062C31.3911 6.60731 31.3253 6.62257 31.2674 6.65469C31.2094 6.68681 31.1616 6.7345 31.1293 6.79238C31.0641 6.90801 31.0327 7.03962 31.0385 7.17226C31.0385 7.35401 31.0712 7.54759 30.9676 7.69299C30.9283 7.74773 30.879 7.79459 30.8223 7.83113C30.6706 7.92837 30.459 7.99381 30.3191 7.88293C30.2717 7.83875 30.2364 7.78311 30.2167 7.72136C30.1969 7.65961 30.1934 7.59383 30.2064 7.53032C30.2337 7.40383 30.2695 7.27934 30.3136 7.15771C30.3936 6.87599 30.2891 6.55882 30.3763 6.29345C30.4676 6.05446 30.5918 5.82935 30.7451 5.62458Z" fill="#464353"/>
<path d="M31.896 12.036C31.8823 12.1022 31.8893 12.171 31.9159 12.2332C31.9429 12.2755 31.9797 12.3107 32.0231 12.3359C32.3286 12.5262 32.676 12.6389 33.035 12.6639C33.0839 12.6648 33.1318 12.6772 33.1749 12.7003C33.2603 12.7566 33.2658 12.882 33.234 12.982C33.1916 13.0763 33.1696 13.1785 33.1695 13.2819C33.1958 13.4718 33.4211 13.5546 33.6109 13.5827C33.8771 13.6163 34.1687 13.5991 34.3794 13.4328C34.5222 13.3025 34.631 13.1394 34.6964 12.9575C35.2178 11.7588 35.4004 10.4337 35.9282 9.23867C35.9682 9.16064 35.9949 9.07648 36.0072 8.98966C36.0128 8.9462 36.0066 8.90204 35.9894 8.86177C35.9721 8.8215 35.9444 8.78658 35.9091 8.76065C35.811 8.69976 35.6584 8.73429 35.5921 8.63887C35.5594 8.5907 35.563 8.52527 35.5339 8.47437C35.4731 8.36623 35.3132 8.38349 35.2042 8.32079C35.1188 8.27535 35.0598 8.18174 34.9644 8.16357C34.9176 8.16092 34.8708 8.16923 34.8277 8.18785C34.7847 8.20647 34.7466 8.23487 34.7164 8.2708C34.4067 8.5598 34.2441 8.96967 34.0715 9.35682C33.8079 9.95025 33.4994 10.5226 33.1486 11.069C33.1895 11.0054 32.9524 10.5237 32.8597 10.5028C32.6971 10.4701 32.4891 10.7555 32.401 10.8618C32.1245 11.1972 31.9493 11.6045 31.896 12.036Z" fill="#F5811E"/>
<path opacity="0.1" d="M35.196 8.40527C35.1308 8.40636 35.0666 8.42212 35.0083 8.45138C34.95 8.48064 34.899 8.52265 34.859 8.57431C34.7619 8.70063 34.7428 8.86785 34.7183 9.02871C34.6356 9.53833 34.4538 10.0268 34.1832 10.4664" fill="black"/>
<path opacity="0.1" d="M35.6593 8.76807C35.5692 8.77007 35.4812 8.79552 35.404 8.84189C35.3267 8.88826 35.2629 8.95396 35.2187 9.03253C35.1586 9.17547 35.1212 9.32695 35.1079 9.48147C35.03 9.82404 34.8798 10.146 34.6674 10.4257" fill="black"/>
<path d="M57.2473 26.535V25.4063C57.247 24.5754 56.917 23.7786 56.3296 23.1911C55.7423 22.6037 54.9458 22.2737 54.1153 22.2737H9.56122C8.73071 22.2737 7.93421 22.6037 7.34687 23.1911C6.75953 23.7786 6.42944 24.5754 6.4292 25.4063V27.4875L57.2473 26.535Z" fill="#33323D"/>
<path d="M21.9559 20.9503C21.9559 20.9503 21.8287 28.8441 23.2276 31.4414C24.6265 34.0388 25.226 45.3378 25.226 45.3378C25.226 45.3378 39.8905 46.8555 50.1095 43.5203C60.3286 40.185 82.0728 38.8209 82.0728 38.8209L78.4085 14.1116C78.4085 14.1116 60.3059 12.9502 50.0078 17.864C39.7097 22.7779 21.9559 20.9503 21.9559 20.9503Z" fill="#FFD200"/>
<path opacity="0.1" d="M21.9559 20.9503C21.9559 20.9503 21.8287 28.8441 23.2276 31.4414C24.6265 34.0388 25.226 45.3378 25.226 45.3378C25.226 45.3378 39.8905 46.8555 50.1095 43.5203C60.3286 40.185 82.0728 38.8209 82.0728 38.8209L78.4085 14.1116C78.4085 14.1116 60.3059 12.9502 50.0078 17.864C39.7097 22.7779 21.9559 20.9503 21.9559 20.9503Z" fill="black"/>
<path d="M25.2013 23.8341C25.2013 23.8341 24.7426 30.3474 25.8935 32.4286C27.0444 34.5097 27.098 43.8003 27.098 43.8003C27.098 43.8003 40.2955 44.4129 49.6834 41.2157C59.0713 38.0186 78.799 35.9447 78.799 35.9447L76.5572 15.7376C76.5572 15.7376 60.234 15.5695 50.7071 20.0699C41.1803 24.5702 25.2013 23.8341 25.2013 23.8341Z" fill="#FFD200"/>
<path opacity="0.1" d="M50.5622 37.5158C52.44 37.2818 53.5556 33.8256 53.054 29.7963C52.5523 25.7669 50.6234 22.6902 48.7456 22.9242C46.8678 23.1582 45.7522 26.6143 46.2539 30.6437C46.7555 34.673 48.6844 37.7498 50.5622 37.5158Z" fill="black"/>
<path opacity="0.2" d="M68.4838 2.07471C68.4838 2.07471 50.8971 6.52781 42.6038 14.3662C34.3104 22.2045 16.8518 25.9161 16.8518 25.9161C16.8518 25.9161 19.1518 33.4673 21.2791 35.5102C23.4065 37.5532 27.4414 48.1243 27.4414 48.1243C27.4414 48.1243 41.8634 45.0653 50.5655 38.751C59.2676 32.4367 79.5485 24.462 79.5485 24.462L68.4838 2.07471Z" fill="black"/>
<path d="M16.5874 24.7855C16.5874 24.7855 18.8865 32.3376 21.012 34.3806C23.1376 36.4236 27.1743 46.9938 27.1743 46.9938C27.1743 46.9938 41.5981 43.9357 50.3011 37.6213C59.0041 31.307 79.2832 23.3351 79.2832 23.3351L68.2185 0.945068C68.2185 0.945068 50.6327 5.39817 42.3393 13.2365C34.046 21.0749 16.5874 24.7855 16.5874 24.7855Z" fill="#FFD200"/>
<path opacity="0.1" d="M16.5874 24.7855C16.5874 24.7855 18.8865 32.3376 21.012 34.3806C23.1376 36.4236 27.1743 46.9938 27.1743 46.9938C27.1743 46.9938 41.5981 43.9357 50.3011 37.6213C59.0041 31.307 79.2832 23.3351 79.2832 23.3351L68.2185 0.945068C68.2185 0.945068 50.6327 5.39817 42.3393 13.2365C34.046 21.0749 16.5874 24.7855 16.5874 24.7855Z" fill="black"/>
<path d="M20.5579 26.534C20.5579 26.534 22.1193 32.8747 23.8534 34.5014C25.5874 36.1282 28.486 44.9526 28.486 44.9526C28.486 44.9526 41.2339 41.4828 49.1884 35.5575C57.1429 29.6321 75.2846 21.6102 75.2846 21.6102L66.9541 3.05981C66.9541 3.05981 51.3675 7.91006 43.6801 15.1186C35.9927 22.3272 20.5579 26.534 20.5579 26.534Z" fill="#FFD200"/>
<path opacity="0.1" d="M48.8943 31.7695C50.6097 30.9703 50.6114 27.3384 48.8982 23.6575C47.1849 19.9765 44.4054 17.6404 42.6899 18.4396C40.9745 19.2388 40.9728 22.8707 42.686 26.5517C44.3993 30.2326 47.1788 32.5687 48.8943 31.7695Z" fill="black"/>
<path opacity="0.1" d="M58.45 27.6427V58.9962C58.45 59.3523 58.3799 59.7049 58.2437 60.0339C58.1074 60.3628 57.9078 60.6617 57.6561 60.9135C57.4044 61.1652 57.1055 61.3649 56.7767 61.5011C56.4478 61.6372 56.0954 61.7073 55.7395 61.7072H9.14073C8.42225 61.7069 7.73328 61.4212 7.22532 60.9128C6.71736 60.4044 6.43201 59.715 6.43201 58.9962V24.4819C7.76729 24.9781 7.76729 24.9781 9.14073 24.9363H55.7395C56.4574 24.9363 57.146 25.2213 57.6542 25.7287C58.1624 26.2361 58.4486 26.9244 58.45 27.6427Z" fill="black"/>
<path d="M58.45 28.0418V59.3953C58.4498 60.1144 58.1641 60.8039 57.6558 61.3123C57.1475 61.8206 56.4582 62.1062 55.7395 62.1062H9.14073C8.42225 62.106 7.73328 61.8203 7.22532 61.3119C6.71736 60.8035 6.43201 60.1141 6.43201 59.3953V24.8801C7.76729 25.3754 7.76729 25.3754 9.14073 25.3345H55.7395C56.4576 25.3345 57.1463 25.6196 57.6545 26.1272C58.1627 26.6348 58.4488 27.3234 58.45 28.0418Z" fill="#504F60"/>
<path opacity="0.1" d="M58.3174 39.6335V49.6603H48.598C47.2807 49.6426 46.0234 49.1065 45.0981 48.1683C44.1728 47.23 43.6541 45.965 43.6541 44.6469C43.6541 43.3289 44.1728 42.0638 45.0981 41.1256C46.0234 40.1873 47.2807 39.6513 48.598 39.6335H58.3174Z" fill="black"/>
<path d="M58.45 39.3662V49.3948H48.7306C47.4133 49.377 46.1559 48.841 45.2307 47.9028C44.3054 46.9645 43.7866 45.6995 43.7866 44.3814C43.7866 43.0633 44.3054 41.7983 45.2307 40.86C46.1559 39.9218 47.4133 39.3858 48.7306 39.368L58.45 39.3662Z" fill="#33323D"/>
<path opacity="0.1" d="M49.1966 46.602C50.2757 46.602 51.1504 45.7268 51.1504 44.6472C51.1504 43.5676 50.2757 42.6924 49.1966 42.6924C48.1175 42.6924 47.2427 43.5676 47.2427 44.6472C47.2427 45.7268 48.1175 46.602 49.1966 46.602Z" fill="black"/>
<path d="M49.3292 46.3367C50.4083 46.3367 51.2831 45.4614 51.2831 44.3818C51.2831 43.3022 50.4083 42.427 49.3292 42.427C48.2501 42.427 47.3754 43.3022 47.3754 44.3818C47.3754 45.4614 48.2501 46.3367 49.3292 46.3367Z" fill="#F5811E"/>
<path d="M75.3209 39.28C75.3982 40.117 74.765 40.9295 74.9494 41.7492C74.9894 41.9246 75.0648 42.09 75.092 42.2672C75.1683 42.7543 74.8786 43.2151 74.6015 43.6222L72.2216 47.1156C72.1263 47.2692 72.0122 47.4102 71.8819 47.5355C71.4277 47.9408 70.7446 47.899 70.1469 48.0199C69.7268 48.1052 69.3301 48.2807 68.9842 48.5342C68.9698 48.5466 68.9606 48.564 68.9586 48.583C68.9565 48.6019 68.9618 48.6209 68.9733 48.636C69.0721 48.7706 69.203 48.8783 69.354 48.9492C69.5051 49.0202 69.6715 49.0522 69.8381 49.0423C69.9008 49.125 69.8381 49.2458 69.7473 49.3049C69.6192 49.3958 69.4439 49.4176 69.4184 49.6339C69.4094 49.7094 69.4247 49.7858 69.462 49.852C69.5579 49.9989 69.7071 50.1029 69.8781 50.1419C70.7019 50.3936 71.5921 49.9511 72.2089 49.3485C72.8257 48.746 73.2681 47.9853 73.873 47.3719C74.2082 47.0329 74.5888 46.7421 74.934 46.4131C75.6225 45.757 76.1575 44.9591 76.6744 44.1602C76.8297 43.9194 76.986 43.6722 77.0514 43.3932C77.1168 43.1142 77.0859 42.8325 77.1595 42.5626C77.2557 42.2081 77.5146 41.9264 77.7299 41.6292C78.1523 41.0476 78.4339 40.336 78.3785 39.6199C78.3231 38.9038 77.8789 38.1958 77.2031 37.9523C76.9936 37.8681 76.7626 37.8541 76.5445 37.9123C76.2675 37.9977 76.0631 38.2267 75.8741 38.4457L75.42 38.9683C75.3067 39.0829 75.2172 39.2188 75.1565 39.3682C75.1274 39.4431 75.1205 39.5249 75.1366 39.6037C75.1527 39.6825 75.1912 39.755 75.2474 39.8125" fill="#FBBEBE"/>
<path opacity="0.05" d="M75.3209 39.28C75.3982 40.117 74.765 40.9295 74.9494 41.7492C74.9894 41.9246 75.0648 42.09 75.092 42.2672C75.1683 42.7543 74.8786 43.2151 74.6015 43.6222L72.2216 47.1156C72.1263 47.2692 72.0122 47.4102 71.8819 47.5355C71.4277 47.9408 70.7446 47.899 70.1469 48.0199C69.7268 48.1052 69.3301 48.2807 68.9842 48.5342C68.9698 48.5466 68.9606 48.564 68.9586 48.583C68.9565 48.6019 68.9618 48.6209 68.9733 48.636C69.0721 48.7706 69.203 48.8783 69.354 48.9492C69.5051 49.0202 69.6715 49.0522 69.8381 49.0423C69.9008 49.125 69.8381 49.2458 69.7473 49.3049C69.6192 49.3958 69.4439 49.4176 69.4184 49.6339C69.4094 49.7094 69.4247 49.7858 69.462 49.852C69.5579 49.9989 69.7071 50.1029 69.8781 50.1419C70.7019 50.3936 71.5921 49.9511 72.2089 49.3485C72.8257 48.746 73.2681 47.9853 73.873 47.3719C74.2082 47.0329 74.5888 46.7421 74.934 46.4131C75.6225 45.757 76.1575 44.9591 76.6744 44.1602C76.8297 43.9194 76.986 43.6722 77.0514 43.3932C77.1168 43.1142 77.0859 42.8325 77.1595 42.5626C77.2557 42.2081 77.5146 41.9264 77.7299 41.6292C78.1523 41.0476 78.4339 40.336 78.3785 39.6199C78.3231 38.9038 77.8789 38.1958 77.2031 37.9523C76.9936 37.8681 76.7626 37.8541 76.5445 37.9123C76.2675 37.9977 76.0631 38.2267 75.8741 38.4457L75.42 38.9683C75.3067 39.0829 75.2172 39.2188 75.1565 39.3682C75.1274 39.4431 75.1205 39.5249 75.1366 39.6037C75.1527 39.6825 75.1912 39.755 75.2474 39.8125" fill="black"/>
<path d="M77.1222 60.8274C76.6027 61.1445 75.955 61.1636 75.3509 61.09C75.2537 61.0782 75.1384 61.0709 75.0784 61.1463C74.9876 61.2554 75.0948 61.419 75.2056 61.5035C75.5619 61.7711 75.9805 61.9435 76.4219 62.0042C76.816 62.0601 77.2138 62.0866 77.6118 62.0833C78.7019 62.1024 79.7919 62.1206 80.8647 61.9643C80.9282 61.9595 80.9901 61.9415 81.0463 61.9115C81.1155 61.863 81.1636 61.7898 81.1808 61.7071C81.2544 61.4272 81.1127 61.1273 80.8983 60.9328C80.6839 60.7383 80.4087 60.6301 80.1398 60.5256L79.1951 60.1576C78.9735 60.0712 78.6183 59.8422 78.3776 59.8604C77.9252 59.8931 77.4974 60.6074 77.1222 60.8274Z" fill="#3F3D56"/>
<path opacity="0.05" d="M77.1222 60.8274C76.6027 61.1445 75.955 61.1636 75.3509 61.09C75.2537 61.0782 75.1384 61.0709 75.0784 61.1463C74.9876 61.2554 75.0948 61.419 75.2056 61.5035C75.5619 61.7711 75.9805 61.9435 76.4219 62.0042C76.816 62.0601 77.2138 62.0866 77.6118 62.0833C78.7019 62.1024 79.7919 62.1206 80.8647 61.9643C80.9282 61.9595 80.9901 61.9415 81.0463 61.9115C81.1155 61.863 81.1636 61.7898 81.1808 61.7071C81.2544 61.4272 81.1127 61.1273 80.8983 60.9328C80.6839 60.7383 80.4087 60.6301 80.1398 60.5256L79.1951 60.1576C78.9735 60.0712 78.6183 59.8422 78.3776 59.8604C77.9252 59.8931 77.4974 60.6074 77.1222 60.8274Z" fill="black"/>
<path d="M77.7844 48.2807C77.3911 48.8042 76.9841 49.4085 77.0813 50.0565C77.134 50.4055 77.3293 50.7135 77.4728 51.0362C77.6672 51.4742 77.769 51.945 77.8689 52.4139C78.016 53.0991 78.1641 53.7862 78.254 54.4823C78.3567 55.2684 77.8743 57.5431 77.8298 58.3347C77.8189 58.5255 77.7962 58.7318 77.6636 58.8691C77.6118 58.9236 77.5428 58.9672 77.5192 59.0381C77.5053 59.1064 77.5166 59.1774 77.5509 59.238C77.7726 59.7379 78.2259 60.1105 78.7318 60.3231C79.2378 60.5358 80.4577 60.903 81.0091 60.922C81.0817 60.9301 81.1553 60.9204 81.2234 60.8939C81.2968 60.8491 81.3545 60.7828 81.3888 60.7039C81.7839 59.9478 81.4042 57.2596 81.4096 56.4062C81.4151 55.6947 81.5831 54.9876 81.5523 54.2769C81.5268 53.7062 81.3706 53.1482 81.3188 52.5793C81.228 51.6469 81.3987 50.7099 81.5704 49.7884C81.7012 49.0813 81.8329 48.3743 82.001 47.6764C82.1036 47.2501 82.2226 46.8203 82.4552 46.4504C82.6368 46.1568 82.8921 45.9115 83.1037 45.6325C83.6912 44.8619 83.9522 43.8911 83.8304 42.9297C83.8177 42.8388 82.4679 43.2723 82.3489 43.3241C81.8634 43.5298 81.4166 43.8172 81.0281 44.1739C80.7157 44.4719 80.4695 44.87 80.1961 45.2035C79.8091 45.6755 79.427 46.1508 79.0497 46.6294C78.6192 47.1765 78.1974 47.7269 77.7844 48.2807Z" fill="#464353"/>
<path opacity="0.05" d="M77.7844 48.2488C77.3911 48.7723 76.9841 49.3776 77.0813 50.0246C77.134 50.3745 77.3293 50.6826 77.4728 51.0052C77.6672 51.4423 77.769 51.914 77.8689 52.382C78.016 53.0682 78.1641 53.7552 78.254 54.4505C78.3567 55.2375 77.8743 57.5113 77.8298 58.3028C77.8189 58.4937 77.7962 58.7009 77.6636 58.8381C77.6118 58.8917 77.5428 58.9354 77.5192 59.0063C77.5052 59.0746 77.5165 59.1456 77.5509 59.2062C77.7726 59.7069 78.2259 60.0786 78.7318 60.2967C79.2378 60.5149 80.4577 60.7048 81.0091 60.723C81.0818 60.731 81.1553 60.7213 81.2234 60.6948C81.2969 60.6506 81.3547 60.5845 81.3888 60.5058C81.7839 59.7496 81.4042 57.2341 81.4097 56.3798C81.4151 55.6673 81.5831 54.9612 81.5523 54.2496C81.5268 53.6789 81.3706 53.1209 81.3188 52.5529C81.228 51.6196 81.3988 50.6826 81.5704 49.7611C81.7012 49.0549 81.8329 48.3479 82.001 47.649C82.1036 47.2228 82.2226 46.7929 82.4552 46.4231C82.6368 46.1295 82.8921 45.8841 83.1037 45.6051C83.6914 44.8347 83.9524 43.8638 83.8304 42.9024C83.8177 42.8115 82.4679 43.245 82.3489 43.2968C81.8635 43.5031 81.4168 43.7908 81.0281 44.1474C80.7157 44.4446 80.4695 44.8427 80.1961 45.1762C79.8091 45.6482 79.427 46.1238 79.0497 46.603C78.6192 47.1459 78.1974 47.6945 77.7844 48.2488Z" fill="black"/>
<path d="M73.408 36.7516C74.6255 36.7516 75.6125 35.7641 75.6125 34.546C75.6125 33.3278 74.6255 32.3403 73.408 32.3403C72.1904 32.3403 71.2034 33.3278 71.2034 34.546C71.2034 35.7641 72.1904 36.7516 73.408 36.7516Z" fill="#FBBEBE"/>
<path d="M75.3936 34.4534C75.5972 34.7784 75.8643 35.0591 76.1788 35.2786C76.4932 35.4982 76.8487 35.6521 77.2239 35.7311L77.0577 36.3355C76.7706 37.3733 76.4482 38.4712 75.647 39.1909C75.7378 38.8392 75.6216 38.4639 75.4235 38.1585C75.2255 37.8532 74.9476 37.6133 74.675 37.3761L73.4061 36.2764C73.3694 36.2466 73.3386 36.2102 73.3152 36.1692C73.2839 36.0917 73.2839 36.005 73.3152 35.9274C73.4769 35.424 73.9384 35.1095 74.3144 34.7696C74.5031 34.5939 74.6716 34.3976 74.8167 34.1844C75.0702 33.8227 75.2273 34.1862 75.3936 34.4534Z" fill="#FBBEBE"/>
<path d="M70.5039 32.3284L70.4539 31.914C70.8018 32.0049 71.1325 31.7086 71.355 31.4024C71.5776 31.0961 71.7838 30.7353 72.1226 30.6072C72.5341 30.4527 72.9701 30.698 73.3634 30.9052C73.8038 31.1497 74.287 31.3071 74.7868 31.3687C74.8665 31.3714 74.9456 31.3842 75.0221 31.4069C75.2782 31.4978 75.4 31.8195 75.4372 32.1112C75.4744 32.4029 75.4644 32.7128 75.5907 32.9728C75.6815 33.17 75.8505 33.3163 75.954 33.5108C76.2266 34.0324 75.9631 34.7458 76.2475 35.2575L75.5407 34.6095C75.4763 34.5504 75.3854 34.4886 75.3137 34.5386C75.2573 34.5786 75.2528 34.6649 75.2301 34.734C75.162 34.9358 74.9094 34.9957 74.7269 34.9158C74.5443 34.8358 74.4108 34.6622 74.2727 34.5041C73.9602 34.1351 73.5878 33.8107 73.1518 33.6535C72.9606 33.582 72.7565 33.552 72.5529 33.5654C72.3493 33.5789 72.1509 33.6356 71.9709 33.7316C71.6412 33.9179 71.3995 34.3523 70.9953 34.3678C70.4412 34.3887 70.2105 33.3563 69.9543 32.9482C70.0481 32.8777 70.114 32.7763 70.1406 32.662C70.1672 32.5477 70.1527 32.4277 70.0997 32.323C70.1369 32.3075 70.4957 32.2648 70.5039 32.3284Z" fill="#464353"/>
<path d="M43.2359 19.4335C43.0588 19.5911 42.895 19.7632 42.7463 19.9479C42.5966 20.1352 42.5169 20.3688 42.521 20.6086C42.5218 20.6781 42.544 20.7457 42.5846 20.8022C42.6054 20.8292 42.634 20.849 42.6666 20.859C42.6991 20.8689 42.734 20.8684 42.7663 20.8576C42.8028 20.839 42.834 20.8115 42.8571 20.7776C42.9531 20.6622 43.055 20.5518 43.1623 20.4468C43.2014 20.4077 43.2532 20.3668 43.3058 20.3814C43.3295 20.3898 43.3507 20.4038 43.3676 20.4223C43.4287 20.4751 43.4732 20.5446 43.4957 20.6222C43.5275 20.7613 43.4466 20.9003 43.3549 21.0094C43.2632 21.1184 43.1551 21.2229 43.1178 21.3602C43.1037 21.3964 43.1037 21.4366 43.1178 21.4728C43.1354 21.4991 43.1599 21.5198 43.1887 21.5328C43.3188 21.6045 43.463 21.6467 43.6112 21.6564C43.7593 21.6661 43.9078 21.6432 44.0462 21.5892C44.2278 21.5156 44.3895 21.3892 44.5766 21.3238C44.6577 21.3016 44.7362 21.2712 44.811 21.2329C44.8645 21.1973 44.9105 21.1514 44.9462 21.0979C44.9819 21.0444 45.0066 20.9843 45.019 20.9212C45.0426 20.7951 45.0472 20.6661 45.0326 20.5386C45.01 20.0449 44.9043 19.5586 44.7202 19.1C44.7095 19.0704 44.6913 19.0441 44.6675 19.0236C44.6402 19.007 44.6086 18.9985 44.5766 18.9991C44.3441 18.9746 43.9626 18.8555 43.7382 18.9418C43.6598 18.9849 43.5921 19.0452 43.5402 19.1182C43.4984 19.1645 43.2359 19.3726 43.2359 19.4335Z" fill="#A1616A"/>
<path d="M43.1623 19.2281C43.1623 19.0064 42.8898 18.4711 43.3231 18.4357C43.3231 18.1985 42.9879 18.0513 43.0506 17.7995C43.0706 17.7159 43.1414 17.6477 43.1496 17.5623C43.1769 17.3197 42.739 17.1879 42.8117 16.9552C42.839 16.8644 42.9352 16.8117 42.9561 16.7217C43.0052 16.5118 42.63 16.4181 42.6228 16.2028C42.6228 16.1301 42.6636 16.0619 42.66 15.9892C42.66 15.8983 42.581 15.8292 42.5374 15.7502C42.4238 15.5475 42.4792 15.234 42.2721 15.1295C42.4093 15.1413 42.4538 14.9377 42.3975 14.8132C42.3412 14.6887 42.2258 14.5806 42.2249 14.4424C42.2317 14.3924 42.2317 14.3416 42.2249 14.2916C42.1868 14.1589 41.9697 14.148 41.9333 14.0189C41.9286 13.9694 41.9271 13.9196 41.9288 13.8699C41.9143 13.7672 41.8089 13.7018 41.7099 13.6727C41.607 13.6552 41.508 13.6198 41.4174 13.5682C41.3538 13.52 41.2802 13.44 41.2121 13.4773C41.1867 13.4927 41.1739 13.5218 41.1549 13.5436C41.0731 13.639 40.9169 13.5972 40.8142 13.5273C40.5108 13.321 40.36 12.9511 40.2956 12.5903C40.2311 12.2295 40.2329 11.8569 40.152 11.4997C40.1274 11.3884 40.0946 11.2791 40.0539 11.1726C40.0194 11.0817 39.9086 10.939 39.9013 10.8472C39.885 10.6382 40.3174 10.7809 40.4818 10.8018C40.6414 10.8174 40.7992 10.8478 40.9532 10.8927C41.1176 10.9548 41.2786 11.0255 41.4355 11.1044C42.0914 11.3943 42.8835 11.4298 43.4103 11.9169C43.5838 12.0768 43.7301 12.2868 43.9553 12.3595C44.0587 12.3793 44.1606 12.4057 44.2605 12.4385C44.5103 12.5558 44.5494 12.8875 44.6857 13.1274C44.7285 13.1908 44.7659 13.2576 44.7974 13.3273C44.8236 13.4095 44.8359 13.4955 44.8337 13.5818L44.8528 14.2116C44.8837 15.2667 44.9146 16.3245 44.8019 17.3733C44.7656 17.7195 44.7111 18.0758 44.8137 18.4084C44.841 18.4993 44.8791 18.5847 44.9046 18.6765C44.927 18.7841 44.9386 18.8937 44.9391 19.0037L44.9536 19.4117C44.9587 19.4435 44.9515 19.4759 44.9336 19.5026C44.9184 19.5149 44.9007 19.5237 44.8817 19.5283C44.8627 19.5328 44.8428 19.5331 44.8237 19.529C44.256 19.4781 43.6819 19.1582 43.146 19.3517" fill="#464353"/>
<path d="M69.0705 50.5817C72.7809 50.5817 75.7887 50.1467 75.7887 49.6102C75.7887 49.0736 72.7809 48.6387 69.0705 48.6387C65.3601 48.6387 62.3523 49.0736 62.3523 49.6102C62.3523 50.1467 65.3601 50.5817 69.0705 50.5817Z" fill="#504F60"/>
<path d="M74.8504 49.6575C74.7323 49.1513 74.6587 48.7069 74.6587 48.7069C74.6587 48.7069 74.686 48.1562 74.4389 47.7427V47.6045V46.5867C74.5092 46.4018 74.5952 46.2234 74.696 46.0532C74.8776 45.7333 74.696 44.561 74.696 44.561C74.696 44.561 74.0174 42.9079 74.1818 41.8591C74.3463 40.8104 72.7884 37.2024 72.7884 37.2024C72.798 36.8545 72.8471 36.5087 72.9347 36.1719C72.9513 36.101 72.958 36.0282 72.9547 35.9556C72.9547 35.9465 72.9547 35.9383 72.9547 35.9292C72.9547 35.9201 72.9547 35.9347 72.9547 35.9374C72.931 35.2458 72.3842 33.9499 72.3842 33.9499L72.4578 31.4797C72.4578 31.4797 72.8066 30.0257 72.238 28.0672C72.039 27.3847 71.9119 26.8385 71.831 26.4168C71.8219 26.3696 71.8128 26.326 71.8056 26.2796C72.9764 26.0979 73.8712 25.9524 73.8712 25.9524C73.8712 25.9524 73.1917 23.1088 72.733 22.6108C72.2743 22.1128 71.9073 20.5487 71.9073 20.5487C71.9073 20.5487 71.6684 18.5412 72.0545 17.9541C72.4405 17.3671 72.495 16.3547 72.495 16.3547C72.495 16.3547 73.3752 15.7185 73.486 15.4304C73.5969 15.1423 73.7794 14.5062 73.7794 14.169C73.7794 13.8318 73.6695 13.5328 73.7059 13.3511C73.7422 13.1693 73.4488 12.4977 73.596 12.1778C73.634 12.0796 73.6537 11.9751 73.6541 11.8697C73.6544 11.8667 73.6544 11.8637 73.6541 11.8607C73.6554 11.5807 73.6296 11.3013 73.5769 11.0264C73.3223 10.8113 73.0251 10.6524 72.7049 10.5602L72.6858 10.4838L72.6358 10.2839C72.6079 10.2655 72.5791 10.2485 72.5495 10.233V10.1603L72.5413 9.8713L72.6794 9.22242C72.9519 8.0937 71.445 7.92557 71.445 7.92557C71.3536 7.75243 71.2016 7.61911 71.018 7.55114C70.7155 7.44481 70.9681 9.24878 71.1089 9.36874C71.2151 9.45962 71.544 10.0213 71.7029 10.2993L71.7284 10.3448C71.7035 10.3672 71.6804 10.3915 71.6593 10.4175L71.7166 10.8092L71.7256 10.8692C71.6258 10.9932 71.5447 11.1313 71.4849 11.279C71.4849 11.279 71.7574 11.5807 71.7057 11.9152C71.6539 12.2496 71.7901 12.674 71.7965 12.6967C71.7801 12.6777 71.5867 12.4686 71.3932 12.5195C71.1997 12.5704 70.6592 12.7331 70.6592 12.7331C70.6592 12.7331 70.2559 12.804 70.2959 12.893C70.3359 12.9821 70.0234 13.3729 70.0234 13.3729L68.9388 12.3441C68.9279 12.3132 68.9161 12.2823 68.907 12.2533C68.8627 12.1049 68.8323 11.9528 68.8162 11.7989C68.9344 11.7708 69.0504 11.734 69.1632 11.6889C69.2771 11.6497 69.38 11.5837 69.4629 11.4962C69.5728 11.3663 69.5937 11.19 69.6382 11.0282C69.7236 10.7119 69.9107 10.4311 70.0406 10.1303C70.2606 9.622 70.3315 9.06157 70.245 8.51447C70.2284 8.34587 70.1713 8.18377 70.0788 8.04189C69.9017 7.79834 69.5801 7.69928 69.3467 7.5048C69.1132 7.31031 68.9624 7.01314 68.6899 6.86864C68.4437 6.73686 68.1449 6.75231 67.8669 6.79775C67.3241 6.88731 66.8026 7.07715 66.3291 7.35757C66.171 7.44845 65.9966 7.56023 65.815 7.52661C65.6587 7.49843 65.5425 7.37393 65.4444 7.25397C65.4455 7.249 65.447 7.24414 65.4489 7.23943C65.4445 7.235 65.4405 7.23013 65.4371 7.22489C65.3221 7.48011 65.2645 7.75743 65.2681 8.03735C65.2681 8.08097 65.2681 8.12823 65.2736 8.16731V8.21275C65.2736 8.22547 65.2736 8.23819 65.2736 8.25001C65.2735 8.26938 65.2708 8.28865 65.2654 8.30726C65.2425 8.36285 65.2078 8.41279 65.1637 8.45358C65.1303 8.49147 65.1 8.53188 65.0728 8.57445C65.0728 8.55991 65.0819 8.54537 65.0874 8.52992C65.0181 8.63111 64.979 8.74995 64.9747 8.87253C64.9697 8.96177 64.9989 9.04957 65.0565 9.11791C65.1108 9.17074 65.1702 9.21822 65.2336 9.25968C65.212 9.37965 65.2011 9.5013 65.2009 9.6232C65.203 9.98458 65.2982 10.3393 65.4774 10.6531C65.6565 10.9669 65.9136 11.2291 66.2237 11.4144C66.2364 11.4444 66.2482 11.4753 66.2601 11.5053C66.399 11.8688 66.5035 12.296 66.4572 12.6868C66.4572 12.7149 66.449 12.744 66.4444 12.7722C66.4399 12.8004 66.4172 12.8022 66.4054 12.8176C66.4054 12.8176 64.6132 12.8358 64.1917 12.4541C63.7702 12.0724 63.1271 13.3874 63.1271 13.3874C63.1271 13.3874 62.4849 13.5119 62.3559 13.3874C62.2269 13.2629 61.4757 13.3702 61.4757 13.3702C61.168 13.0963 60.7675 12.9501 60.3557 12.9612C60.1063 12.7715 59.831 12.6185 59.5382 12.5068L59.5182 12.4995C59.389 12.4524 59.2509 12.435 59.114 12.4486C59.114 12.4486 58.2329 11.7216 57.9758 11.329C57.7188 10.9364 56.4952 9.48688 56.4898 9.48052V9.41054L56.4761 9.1997C56.4398 9.20541 56.403 9.20844 56.3662 9.20879C56.3599 9.18789 56.3508 9.16335 56.3417 9.13518C56.2712 8.92952 56.1843 8.72985 56.0819 8.5381C56.0819 8.5381 56.0819 8.27182 56.1591 8.20457C56.2363 8.13732 56.1273 7.16036 56.1273 7.16036C56.1273 7.16036 55.3334 5.30369 54.6222 6.68961C54.6222 6.68961 53.2778 7.58659 54.406 8.6317C54.406 8.6317 54.8602 8.84981 54.9201 9.02249C54.9619 9.13427 55.1145 9.4478 55.2172 9.65864L55.2635 9.74952L55.2508 9.76043L55.2671 9.93492L55.2744 10.0022C55.0618 10.123 54.9174 10.243 54.9528 10.333C55.0154 10.4869 55.0584 10.6481 55.0809 10.8128C55.0809 10.8128 56.6415 12.7685 56.8431 13.6037C56.8431 13.6037 61.0279 16.092 62.4041 16.2692L62.1606 17.5097C62.1252 17.8463 62.107 18.1846 62.1061 18.523C62.1243 18.7893 61.9408 19.998 61.9408 19.998C61.9408 19.998 61.7019 21.7756 61.5003 22.0246C61.2986 22.2736 61.3349 23.3397 61.3349 23.3397C61.2873 23.85 61.1962 24.3553 61.0624 24.8501C60.8608 25.5253 61.007 26.3614 61.007 26.3614C61.007 26.3614 60.3103 27.9609 61.9799 26.8767C61.9799 26.8767 62.7974 26.8258 63.7439 26.7931C63.7439 26.824 63.7439 26.8558 63.7439 26.884C63.7439 27.0057 63.7439 27.1375 63.7375 27.2757C63.7248 28.1917 63.7194 29.4568 63.7612 30.4092C63.8347 32.0977 64.3489 35.4394 64.3489 35.4394V37.1216C64.3157 37.2793 64.2992 37.4402 64.2998 37.6014C64.2889 38.1933 64.4465 38.776 64.754 39.2818L64.883 40.4014C64.883 40.4014 65.1846 41.1393 65.19 41.5828C65.1888 41.6186 65.1846 41.6542 65.1773 41.6892C65.1655 41.7456 65.1607 41.8033 65.1628 41.8609C65.1455 42.3699 65.4516 43.5876 65.4516 43.5876C65.4516 43.5876 65.4698 44.8136 65.6533 44.8854C65.8104 44.9463 65.4434 45.5915 65.3344 45.7769C65.3315 45.7656 65.3294 45.754 65.3281 45.7424L65.3054 45.7788C65.2675 45.878 65.2481 45.9833 65.2481 46.0896C65.2378 46.1733 65.2514 46.2582 65.2875 46.3345C65.3235 46.4107 65.3804 46.4752 65.4516 46.5203C65.8004 46.7339 65.9875 46.9111 65.6914 46.982C65.5825 46.9989 65.4745 47.0217 65.368 47.0502C65.368 47.0365 65.3571 47.022 65.3526 47.0093C65.3108 47.0256 65.276 47.0559 65.254 47.0949C65.2319 47.134 65.2241 47.1795 65.2318 47.2237C65.2346 47.3679 65.2717 47.5093 65.3399 47.6363C65.6333 48.2943 65.8368 48.5451 65.8368 48.5451L65.9776 48.5297C65.9568 48.5835 65.9293 48.6345 65.8958 48.6814C65.8422 48.7577 65.7712 48.82 65.6887 48.8632C65.6118 48.9093 65.5261 48.9387 65.4371 48.9495C65.3376 48.9528 65.2399 48.9769 65.1504 49.0205C65.0609 49.064 64.9815 49.1259 64.9175 49.2022C64.7358 49.4394 64.6196 49.762 64.9811 50.0456L66.2937 50.4999C66.2937 50.4999 68.5518 50.7935 68.4319 50.2864C68.312 49.7793 68.2394 49.3358 68.2394 49.3358C68.2491 49.0262 68.1869 48.7185 68.0577 48.437C68.034 48.391 68.0073 48.3467 67.9778 48.3043L68.0577 48.2961C68.0577 48.2961 68.223 47.1756 68.4428 46.9629C68.4937 46.9138 68.5055 46.872 68.4937 46.8466C68.5164 46.7857 68.4583 46.7503 68.3847 46.7294L68.3684 46.7739C68.2964 46.7582 68.2231 46.75 68.1494 46.7493C68.1494 46.7493 68.0759 46.1632 68.3148 45.9496C68.334 45.9253 68.3481 45.8972 68.3561 45.8672C68.364 45.8372 68.3657 45.8058 68.3611 45.7751C68.3629 45.6947 68.3543 45.6144 68.3356 45.5361C68.3333 45.5411 68.3305 45.546 68.3275 45.5506C68.2076 45.0181 67.8006 44.172 67.8006 44.172C67.8006 44.172 67.7825 43.6394 67.9296 43.4259C68.0768 43.2123 67.9105 40.5286 67.9105 40.5286C67.9105 40.5286 67.966 39.2318 67.8006 38.6274C67.6353 38.0231 68.0023 37.3115 68.0023 37.3115C68.0023 37.3115 68.0023 37.2979 68.0023 37.2733V37.2642L67.9814 37.0598C67.9809 37.064 67.9809 37.0683 67.9814 37.0725C67.9442 36.729 67.8742 36.1064 67.8224 35.8193C67.7489 35.4103 67.8415 33.4564 67.8415 33.4564L68.1712 32.6203L68.7589 34.0607L69.383 35.9801C69.383 35.9801 69.6918 36.3854 69.6991 36.798C69.6991 36.818 69.6991 36.838 69.6991 36.858C69.6941 36.9005 69.6916 36.9433 69.6918 36.9861C69.6808 37.2286 69.7473 37.4684 69.8817 37.6705C69.8817 37.6705 70.047 38.5793 70.3041 38.8074C70.5611 39.0355 70.5611 39.4826 70.5611 39.4826C70.5611 39.4826 70.8727 40.7985 71.0153 41.0276C71.1388 41.222 71.1452 41.7546 71.1443 41.9209C71.1443 41.9509 71.1443 41.9682 71.1443 41.9682C71.1443 41.9682 71.1879 42.4389 71.1861 42.8333C71.1861 42.8824 71.1861 42.9297 71.1861 42.9742C71.1865 42.9709 71.1865 42.9675 71.1861 42.9642C71.186 43.072 71.1732 43.1793 71.1479 43.2841L71.1425 43.3023C71.1425 43.2796 71.1425 43.2578 71.1488 43.2359C71.085 43.5038 71.0545 43.7785 71.058 44.0539C71.0498 44.5264 71.1216 45.0863 71.4077 45.417C71.9037 45.986 72.2152 45.9151 72.2152 45.9151C72.2152 45.9151 71.9773 46.6257 71.683 46.7684C71.6718 46.7737 71.6614 46.7804 71.6521 46.7884C71.6521 46.7739 71.6466 46.7603 71.6448 46.7466C71.612 46.7821 71.587 46.824 71.5713 46.8697C71.5557 46.9154 71.5498 46.9639 71.554 47.012C71.5331 47.3246 71.7302 47.8299 71.9173 48.0653C71.9868 48.1334 72.072 48.1833 72.1653 48.2107C72.1505 48.2211 72.135 48.2305 72.119 48.2389C72.0863 48.2568 72.0526 48.2729 72.0181 48.287C71.9704 48.3073 71.9199 48.3205 71.8683 48.3261C71.7687 48.3288 71.6708 48.3527 71.5812 48.3963C71.4916 48.4398 71.4123 48.502 71.3487 48.5788C71.167 48.815 71.0507 49.1377 71.4123 49.4212L72.7248 49.8756C72.7248 49.8756 74.9685 50.1637 74.8504 49.6575Z" fill="url(#paint0_linear_1002_12413)"/>
<path d="M66.2292 50.4973L64.9575 50.0429C64.6069 49.7594 64.7186 49.4367 64.8957 49.1995C64.9567 49.1239 65.0332 49.0622 65.12 49.0186C65.2068 48.975 65.3019 48.9506 65.399 48.9469C65.4851 48.9359 65.5678 48.9065 65.6415 48.8605C65.7221 48.8167 65.7912 48.7544 65.8432 48.6788C65.9359 48.5315 65.9859 48.3612 65.9876 48.1871C65.9876 48.1871 67.3828 47.7782 67.7643 48.1871C67.8324 48.2612 67.8893 48.3447 67.9333 48.4352C68.06 48.7175 68.1221 49.0246 68.115 49.334C68.115 49.334 68.1858 49.7775 68.3012 50.2846C68.4165 50.7917 66.2292 50.4973 66.2292 50.4973Z" fill="#2D293D"/>
<path d="M72.446 49.8702L71.1743 49.4158C70.8237 49.1323 70.9354 48.8096 71.1125 48.5733C71.173 48.4974 71.2493 48.4355 71.336 48.3919C71.4227 48.3483 71.5178 48.324 71.6149 48.3207C71.6651 48.3155 71.7142 48.3023 71.7602 48.2816C71.7938 48.2674 71.8265 48.2514 71.8583 48.2335C72.2135 48.0381 72.2044 47.5582 72.2044 47.5582C72.2044 47.5582 73.5987 47.1493 73.9811 47.5582C74.0323 47.6136 74.0771 47.6746 74.1147 47.74C74.3536 48.1535 74.3272 48.7051 74.3272 48.7051C74.3272 48.7051 74.3981 49.1495 74.5089 49.6557C74.6197 50.1619 72.446 49.8702 72.446 49.8702Z" fill="#2D293D"/>
<path opacity="0.1" d="M67.7652 48.1861C67.8333 48.2602 67.8903 48.3438 67.9342 48.4343L65.845 48.6769C65.9378 48.5296 65.9878 48.3594 65.9894 48.1852C65.9894 48.1852 67.3837 47.7772 67.7652 48.1861Z" fill="black"/>
<path opacity="0.1" d="M74.1164 47.7417V48.1334C73.7912 48.6687 72.2189 48.5514 71.762 48.2833C71.7955 48.2691 71.8283 48.2531 71.8601 48.2352C72.2152 48.0398 72.2062 47.5599 72.2062 47.5599C72.2062 47.5599 73.6005 47.151 73.9829 47.5599C74.0341 47.6153 74.0789 47.6763 74.1164 47.7417Z" fill="black"/>
<path d="M74.3645 46.0532C74.2673 46.2239 74.1843 46.4023 74.1165 46.5867V47.9908C73.7604 48.5769 71.9138 48.3815 71.664 48.0616C71.4142 47.7417 71.1535 46.9093 71.4341 46.7648C71.7148 46.6203 71.9492 45.9114 71.9492 45.9114C71.9492 45.9114 71.6467 45.9823 71.1671 45.4134C70.6875 44.8445 70.8301 43.5831 70.9191 43.2814C71.0081 42.9797 70.9191 41.9663 70.9191 41.9663C70.9191 41.9663 70.9373 41.2548 70.7956 41.0239C70.6539 40.7931 70.3514 39.479 70.3514 39.479C70.3514 39.479 70.3514 39.0346 70.1025 38.8037C69.8536 38.5729 69.6937 37.6659 69.6937 37.6659C69.5482 37.4393 69.4856 37.1692 69.5166 36.9016C69.5693 36.4572 69.2141 35.9774 69.2141 35.9774L68.6101 34.0571L68.0414 32.6176L67.7217 33.4527C67.7217 33.4527 67.6308 35.4076 67.7044 35.8156C67.778 36.2237 67.8861 37.3088 67.8861 37.3088C67.8861 37.3088 67.5309 38.0194 67.6908 38.6238C67.8507 39.2281 67.7925 40.5268 67.7925 40.5268C67.7925 40.5268 67.9524 43.2096 67.8098 43.4231C67.6672 43.6367 67.6853 44.1702 67.6853 44.1702C67.6853 44.1702 68.412 45.7333 68.1831 45.9469C67.9542 46.1604 68.0233 46.7466 68.0233 46.7466C68.0233 46.7466 68.5201 46.7466 68.3076 46.9602C68.095 47.1737 67.9342 48.2934 67.9342 48.2934L65.786 48.5451C65.786 48.5451 65.5898 48.297 65.3054 47.6363C65.0211 46.9756 65.3581 47.0502 65.6443 46.9784C65.9304 46.9066 65.7496 46.7303 65.4117 46.5167C65.0738 46.3031 65.27 45.8233 65.27 45.8233C65.27 45.8233 65.7851 44.9527 65.607 44.8818C65.429 44.8109 65.4117 43.584 65.4117 43.584C65.4117 43.584 65.0566 42.1299 65.1456 41.7355C65.2346 41.3411 64.8613 40.4032 64.8613 40.4032L64.7368 39.2836C64.3567 38.6482 64.2181 37.8972 64.3462 37.1679V35.4412C64.3462 35.4412 63.8484 32.1005 63.7776 30.4119C63.7322 29.3304 63.7449 27.8546 63.7594 26.9339C63.7685 26.4177 63.7776 26.0751 63.7776 26.0751L71.4514 25.2754C71.4514 25.2754 71.4441 25.6298 71.5904 26.4159C71.6694 26.8376 71.792 27.3838 71.9846 28.0663C72.5351 30.0211 72.1981 31.4779 72.1981 31.4779L72.1263 33.9489C72.1263 33.9489 72.8012 35.6011 72.6595 36.17C72.5739 36.5078 72.5257 36.8541 72.516 37.2024C72.516 37.2024 74.0257 40.8104 73.8658 41.8591C73.7059 42.9079 74.3627 44.561 74.3627 44.561C74.3627 44.561 74.5425 45.7333 74.3645 46.0532Z" fill="#464353"/>
<path opacity="0.05" d="M69.9771 36.7944L72.3134 36.4827C72.3134 36.4827 70.9899 37.834 69.9771 36.7944Z" fill="black"/>
<path opacity="0.1" d="M71.9755 34.1987C71.9755 34.1987 72.0554 35.0257 71.5494 35.3365C71.5494 35.3365 72.4551 35.1948 71.9755 34.1987Z" fill="black"/>
<path opacity="0.1" d="M71.832 31.5688C71.832 31.5688 69.879 33.1774 69.1687 33.0438C68.4584 32.9102 71.832 31.5688 71.832 31.5688Z" fill="black"/>
<path opacity="0.1" d="M67.0813 37.5486C67.0813 37.5486 65.5979 37.8857 65.5534 38.4819C65.5089 39.0781 67.0813 37.5486 67.0813 37.5486Z" fill="black"/>
<path opacity="0.05" d="M67.4074 44.9609C67.4074 44.9609 65.3118 45.3517 65.9068 45.618C66.5017 45.8843 67.4791 46.0979 67.4791 46.0979C67.4791 46.0979 68.1558 46.1333 67.4074 44.9609Z" fill="black"/>
<g opacity="0.05">
<path opacity="0.05" d="M65.4835 46.0411C65.4308 46.0082 65.3862 45.9638 65.353 45.9112C65.3198 45.8587 65.2989 45.7993 65.2918 45.7375L65.27 45.7748C65.27 45.7748 65.0747 46.2547 65.4126 46.4673C65.4508 46.4919 65.488 46.5164 65.5216 46.54C65.5843 46.5282 65.6515 46.5191 65.716 46.5028C66.0021 46.4319 65.8214 46.2547 65.4835 46.0411Z" fill="black"/>
<path opacity="0.05" d="M68.1831 45.8984C68.2412 45.8457 68.2394 45.7094 68.204 45.5349C68.1131 45.6721 68.0868 45.8866 68.085 46.0493C68.107 45.9928 68.1404 45.9415 68.1831 45.8984Z" fill="black"/>
<path opacity="0.05" d="M67.8606 37.0569C67.7834 37.2671 67.7357 37.487 67.7189 37.7103C67.7594 37.5561 67.8138 37.4058 67.8815 37.2614L67.8606 37.0569Z" fill="black"/>
<path opacity="0.05" d="M72.6604 36.1244C72.6744 36.0606 72.6808 35.9953 72.6795 35.9299C72.6531 36.0626 72.635 36.1853 72.6213 36.2935C72.6331 36.238 72.6459 36.1853 72.6604 36.1244Z" fill="black"/>
<path opacity="0.05" d="M67.8107 43.3758C67.8398 43.3322 67.8561 43.185 67.8634 42.9805C67.7977 43.1387 67.7628 43.3081 67.7607 43.4794C67.7732 43.443 67.7899 43.4082 67.8107 43.3758Z" fill="black"/>
<path opacity="0.05" d="M68.2467 46.7273C68.1366 47.0838 68.0548 47.4484 68.0024 47.8179L65.8541 48.066C65.8541 48.066 65.6579 47.8178 65.3736 47.1572C65.3506 47.1061 65.3303 47.0539 65.3127 47.0008C65.1837 47.0599 65.131 47.1935 65.3018 47.5834C65.5861 48.2413 65.7832 48.4922 65.7832 48.4922L67.9315 48.2432C67.9315 48.2432 68.0914 47.1235 68.3039 46.91C68.4129 46.8073 68.3457 46.7537 68.2467 46.7273Z" fill="black"/>
<path opacity="0.05" d="M65.4126 43.5357C65.4126 43.5357 65.4298 44.7616 65.6079 44.8325C65.6987 44.6299 65.7578 44.4372 65.6778 44.4054C65.4962 44.3345 65.4825 43.1076 65.4825 43.1076C65.4825 43.1076 65.1274 41.6536 65.2164 41.2591C65.3054 40.8647 64.9321 39.9268 64.9321 39.9268L64.8076 38.8072C64.4275 38.1718 64.2889 37.4208 64.417 36.6915V34.9648C64.417 34.9648 63.9193 31.6241 63.8484 29.9355C63.803 28.8541 63.8157 27.3782 63.8302 26.4576C63.8302 26.2913 63.8357 26.144 63.8384 26.0195L63.7775 26.0259C63.7775 26.0259 63.7676 26.3676 63.7594 26.8847C63.7448 27.8053 63.7312 29.2812 63.7775 30.3618C63.8484 32.0503 64.3453 35.3919 64.3453 35.3919V37.1187C64.2178 37.8477 64.3567 38.5984 64.7368 39.2334L64.8603 40.3531C64.8603 40.3531 65.2336 41.2946 65.1446 41.6863C65.0556 42.078 65.4126 43.5357 65.4126 43.5357Z" fill="black"/>
<path opacity="0.05" d="M71.7366 47.587C71.562 47.3342 71.4457 47.0458 71.3959 46.7427C71.177 46.9408 71.4286 47.7096 71.6684 48.015C71.9164 48.3349 73.764 48.5303 74.121 47.9432V47.6051C73.6368 48.0804 71.9709 47.8896 71.7366 47.587Z" fill="black"/>
<path opacity="0.05" d="M74.4363 45.5787C74.3389 45.7494 74.2556 45.9278 74.1874 46.1122V46.3639C74.2283 46.273 74.2855 46.1513 74.3691 46.0077C74.4253 45.8677 74.4519 45.7176 74.4472 45.5669C74.4472 45.5669 74.439 45.5751 74.4363 45.5787Z" fill="black"/>
<path opacity="0.05" d="M71.8456 45.8596C71.9132 45.7227 71.9718 45.5815 72.021 45.437C72.021 45.437 71.7185 45.5079 71.2389 44.939C70.89 44.5255 70.8701 43.7439 70.92 43.2332C70.8292 43.5358 70.6884 44.7972 71.168 45.3661C71.4814 45.7378 71.7185 45.836 71.8456 45.8596Z" fill="black"/>
<path opacity="0.05" d="M70.9191 41.918C70.9504 42.2682 70.9622 42.6198 70.9545 42.9713C70.9634 42.9158 70.9755 42.8609 70.9908 42.8068C71.0817 42.5042 70.9908 41.4918 70.9908 41.4918C70.9908 41.4918 71.009 40.7802 70.8664 40.5494C70.7238 40.3185 70.4267 39.0026 70.4267 39.0026C70.4267 39.0026 70.4268 38.5582 70.1779 38.3274C69.929 38.0965 69.7691 37.1896 69.7691 37.1896C69.6223 36.9634 69.5581 36.6934 69.5874 36.4253C69.641 35.9809 69.2859 35.501 69.2859 35.501L68.6818 33.5816L68.1132 32.1421L67.7925 32.9782C67.7925 32.9782 67.7925 33.0836 67.7816 33.2508L68.0414 32.5719L68.61 34.0088L69.2141 35.9281C69.2141 35.9281 69.5693 36.408 69.5157 36.8524C69.4863 37.1205 69.5505 37.3905 69.6973 37.6167C69.6973 37.6167 69.8572 38.5255 70.1061 38.7545C70.355 38.9835 70.3541 39.4297 70.3541 39.4297C70.3541 39.4297 70.6566 40.7448 70.7983 40.9747C70.94 41.2046 70.9191 41.918 70.9191 41.918Z" fill="black"/>
</g>
<path d="M72.4106 9.2197L72.2771 9.86858L72.2852 10.1576L72.2907 10.3702L71.5495 10.4466L71.4668 10.293C71.3133 10.0149 70.9945 9.44963 70.8918 9.36239C70.7547 9.24788 70.5103 7.44301 70.801 7.55025C70.9799 7.61939 71.1269 7.75248 71.2134 7.92376C71.2134 7.92376 72.6731 8.09098 72.4106 9.2197Z" fill="#FFCDD3"/>
<path opacity="0.1" d="M72.2907 10.3703L71.5495 10.4466L71.4668 10.293C71.5665 10.1795 71.7025 10.104 71.8515 10.0795C72.0006 10.0549 72.1535 10.0829 72.2843 10.1585L72.2907 10.3703Z" fill="black"/>
<path d="M72.4778 10.7218L71.5004 10.9481L71.4795 10.8027L71.4241 10.411C71.4241 10.411 71.811 9.89477 72.3706 10.2819L72.4196 10.4809L72.4778 10.7218Z" fill="#F5811E"/>
<path d="M56.6451 9.29049L55.6013 9.8503L55.5105 9.654C55.4115 9.44589 55.2634 9.13236 55.2226 9.01785C55.1608 8.84518 54.7257 8.62706 54.7257 8.62706C53.6357 7.58286 54.9346 6.68497 54.9346 6.68497C55.6232 5.29905 56.388 7.15572 56.388 7.15572C56.388 7.15572 56.4952 8.1345 56.4198 8.19993C56.3444 8.26536 56.3444 8.53346 56.3444 8.53346C56.4439 8.72554 56.528 8.92519 56.596 9.13054C56.6278 9.2296 56.6451 9.29049 56.6451 9.29049Z" fill="#FFCDD3"/>
<path opacity="0.1" d="M56.6452 9.2905L55.6015 9.85031L55.5106 9.65401C55.6578 9.53042 56.1801 9.10874 56.3518 9.126C56.4337 9.13624 56.5165 9.13837 56.5988 9.13237C56.6279 9.22961 56.6452 9.2905 56.6452 9.2905Z" fill="black"/>
<path d="M56.7514 9.60596L55.5787 10.184L55.5551 9.93222L55.5387 9.75773C55.5387 9.75773 56.2182 9.17519 56.4189 9.19791C56.5204 9.21263 56.6235 9.21263 56.725 9.19791L56.7386 9.40875L56.7514 9.60596Z" fill="#F5811E"/>
<path d="M69.5683 13.5301C69.5683 13.5301 64.456 14.1072 65.4116 13.7964C66.0765 13.5792 66.3409 13.1602 66.3963 12.6876C66.4417 12.2941 66.34 11.8697 66.2064 11.5062C66.0863 11.1837 65.9341 10.8741 65.7523 10.582C65.7523 10.582 69.6582 8.43174 68.8779 10.3866C68.7576 10.6822 68.6829 10.9945 68.6563 11.3126C68.6328 11.6288 68.667 11.9466 68.7571 12.2505C68.9045 12.7437 69.1852 13.1865 69.5683 13.5301Z" fill="#FFCDD3"/>
<path opacity="0.1" d="M68.8753 10.3839C68.7549 10.6796 68.6802 10.9918 68.6536 11.3099C68.2857 11.6198 67.8824 11.5989 67.3638 11.5989C66.9659 11.5989 66.5244 11.6953 66.2065 11.5035C66.0863 11.181 65.9342 10.8714 65.7523 10.5793C65.7523 10.5793 69.6573 8.42906 68.8753 10.3839Z" fill="black"/>
<path d="M67.2947 11.7352C68.4621 11.7352 69.4084 10.7883 69.4084 9.62038C69.4084 8.45243 68.4621 7.50562 67.2947 7.50562C66.1273 7.50562 65.1809 8.45243 65.1809 9.62038C65.1809 10.7883 66.1273 11.7352 67.2947 11.7352Z" fill="#FFCDD3"/>
<path opacity="0.1" d="M69.5683 13.5301C69.5683 13.5301 64.456 14.1072 65.4116 13.7964C66.0765 13.5792 66.3409 13.1602 66.3963 12.6876C66.6506 12.415 67.162 12.2123 67.4863 12.1069C67.7861 12.0061 68.1098 12.0007 68.4128 12.0915C68.532 12.1274 68.6455 12.18 68.7498 12.2478C68.8988 12.7428 69.1821 13.1867 69.5683 13.5301Z" fill="black"/>
<path opacity="0.1" d="M72.4778 10.7219L71.5004 10.9482L71.4795 10.8028C71.5841 10.659 71.7305 10.5509 71.8988 10.4933C72.067 10.4358 72.2489 10.4315 72.4196 10.4811L72.4778 10.7219Z" fill="black"/>
<path opacity="0.1" d="M56.7514 9.60583L55.5787 10.1838L55.5551 9.93209C55.9349 9.72776 56.3297 9.55247 56.7359 9.40771L56.7514 9.60583Z" fill="black"/>
<path opacity="0.1" d="M71.5904 26.4176C69.6092 26.7339 66.7933 27.1374 66.3464 27.0011C65.9749 26.8884 64.7904 26.9002 63.7594 26.9357C63.7685 26.4195 63.7776 26.0768 63.7776 26.0768L71.4514 25.2771C71.4514 25.2771 71.4441 25.6315 71.5904 26.4176Z" fill="black"/>
<path d="M73.5651 25.9524C73.5651 25.9524 67.0458 27.0721 66.3464 26.8612C65.647 26.6504 62.0544 26.8785 62.0544 26.8785C60.4375 27.9627 61.1124 26.3632 61.1124 26.3632C61.1124 26.3632 60.9707 25.528 61.166 24.8528C61.2972 24.357 61.3868 23.8512 61.434 23.3406C61.434 23.3406 61.3986 22.2736 61.5939 22.0246C61.7892 21.7756 62.0208 19.9989 62.0208 19.9989C62.0208 19.9989 62.1979 18.7902 62.1807 18.5239C62.1634 18.2577 62.2334 17.5106 62.2334 17.5106L62.465 16.2665C61.1324 16.0893 57.0821 13.601 57.0821 13.601C56.8868 12.7658 55.3771 10.811 55.3771 10.811C55.3551 10.6466 55.3133 10.4855 55.2526 10.3311C55.1464 10.0467 56.7451 9.47778 56.7451 9.47778C56.7451 9.47778 57.935 10.9319 58.1839 11.3263C58.4328 11.7207 59.2848 12.4459 59.2848 12.4459C59.4172 12.4323 59.5509 12.4497 59.6754 12.4968L59.6963 12.5032C59.9819 12.6153 60.2496 12.7684 60.4911 12.9576C60.8917 12.9481 61.2803 13.0947 61.5748 13.3665C61.5748 13.3665 62.3015 13.2593 62.4277 13.3838C62.554 13.5083 63.1735 13.3838 63.1735 13.3838C63.1735 13.3838 63.7948 12.0688 64.2036 12.4505C64.6123 12.8322 66.3464 12.814 66.3464 12.814C66.5771 12.5068 67.1394 12.2869 67.4909 12.1778C67.7908 12.0774 68.1144 12.072 68.4175 12.1624C68.5482 12.2014 68.6712 12.2629 68.7808 12.3441L69.8354 13.3747C69.8354 13.3747 70.137 12.983 70.1016 12.8949C70.0661 12.8067 70.4567 12.7349 70.4567 12.7349C70.4567 12.7349 70.9718 12.575 71.1671 12.5213C71.3624 12.4677 71.5413 12.6795 71.5577 12.6986C71.5513 12.6758 71.4178 12.2442 71.4668 11.917C71.5159 11.5898 71.2533 11.2808 71.2533 11.2808C71.8747 9.75224 73.2781 11.0318 73.2781 11.0318C73.2781 11.0318 73.438 11.867 73.2963 12.1869C73.1545 12.5068 73.438 13.182 73.4025 13.3602C73.3671 13.5383 73.4743 13.84 73.4743 14.1781C73.4743 14.5161 73.2926 15.155 73.19 15.4395C73.0873 15.7239 72.2307 16.3637 72.2307 16.3637C72.2307 16.3637 72.1771 17.377 71.8038 17.9632C71.4305 18.5494 71.6648 20.5542 71.6648 20.5542C71.6648 20.5542 72.02 22.1182 72.4642 22.6163C72.9084 23.1143 73.5651 25.9524 73.5651 25.9524Z" fill="#3F3D56"/>
<path opacity="0.1" d="M64.0618 14.2581C64.0618 14.2581 63.8665 13.672 63.6885 13.622C63.5117 13.5569 63.3397 13.4798 63.1735 13.3911L63.2879 13.1721C63.2879 13.1721 63.9546 13.3539 64.0618 13.5511C64.169 13.7483 64.0618 14.2581 64.0618 14.2581Z" fill="black"/>
<path opacity="0.1" d="M60.4911 12.9612C60.4557 13.143 58.8743 13.2984 58.8743 13.2984L59.6736 12.4968L59.6936 12.5041C59.9803 12.6169 60.2489 12.7708 60.4911 12.9612Z" fill="black"/>
<path d="M55.9166 10.6637C55.9949 10.6637 56.0583 10.6002 56.0583 10.5219C56.0583 10.4436 55.9949 10.3801 55.9166 10.3801C55.8383 10.3801 55.7749 10.4436 55.7749 10.5219C55.7749 10.6002 55.8383 10.6637 55.9166 10.6637Z" fill="#575988"/>
<path d="M56.0983 10.9481C56.1765 10.9481 56.24 10.8846 56.24 10.8063C56.24 10.728 56.1765 10.6646 56.0983 10.6646C56.02 10.6646 55.9565 10.728 55.9565 10.8063C55.9565 10.8846 56.02 10.9481 56.0983 10.9481Z" fill="#575988"/>
<path d="M56.2763 11.2108C56.3546 11.2108 56.418 11.1473 56.418 11.069C56.418 10.9907 56.3546 10.9272 56.2763 10.9272C56.1981 10.9272 56.1346 10.9907 56.1346 11.069C56.1346 11.1473 56.1981 11.2108 56.2763 11.2108Z" fill="#575988"/>
<path d="M56.4625 11.4945C56.5408 11.4945 56.6042 11.431 56.6042 11.3527C56.6042 11.2744 56.5408 11.2109 56.4625 11.2109C56.3842 11.2109 56.3208 11.2744 56.3208 11.3527C56.3208 11.431 56.3842 11.4945 56.4625 11.4945Z" fill="#575988"/>
<path d="M73.2072 11.4525C73.2709 11.4525 73.3225 11.4008 73.3225 11.3371C73.3225 11.2734 73.2709 11.2217 73.2072 11.2217C73.1434 11.2217 73.0918 11.2734 73.0918 11.3371C73.0918 11.4008 73.1434 11.4525 73.2072 11.4525Z" fill="#575988"/>
<path d="M73.2253 11.7152C73.2891 11.7152 73.3407 11.6635 73.3407 11.5998C73.3407 11.536 73.2891 11.4844 73.2253 11.4844C73.1616 11.4844 73.11 11.536 73.11 11.5998C73.11 11.6635 73.1616 11.7152 73.2253 11.7152Z" fill="#575988"/>
<path d="M73.2409 11.9769C73.3046 11.9769 73.3562 11.9253 73.3562 11.8615C73.3562 11.7978 73.3046 11.7461 73.2409 11.7461C73.1771 11.7461 73.1255 11.7978 73.1255 11.8615C73.1255 11.9253 73.1771 11.9769 73.2409 11.9769Z" fill="#575988"/>
<path opacity="0.1" d="M64.0682 19.0745C64.0509 19.0536 68.0559 24.1129 71.1643 21.1893C71.167 21.1902 66.2555 21.8564 64.0682 19.0745Z" fill="black"/>
<path opacity="0.1" d="M61.77 21.7046C61.77 21.7046 64.1663 21.77 64.417 22.4598V23.1777C64.3487 23.2156 64.272 23.2355 64.194 23.2355C64.1159 23.2355 64.0392 23.2156 63.971 23.1777C63.7293 23.0469 62.2805 22.3108 61.77 22.6652V21.7046Z" fill="black"/>
<path d="M61.8146 21.7046C61.8146 21.7046 64.1064 21.7673 64.3462 22.4253V23.1087C64.2809 23.145 64.2074 23.164 64.1327 23.164C64.058 23.164 63.9845 23.145 63.9192 23.1087C63.6885 22.9851 62.3033 22.2826 61.8146 22.6207V21.7046Z" fill="#3F3D56"/>
<path opacity="0.1" d="M63.0781 16.499C63.3229 17.066 63.6349 17.6014 64.0074 18.094C64.4124 18.6383 64.9033 19.1132 65.4608 19.4999C65.4608 19.4999 63.1181 16.828 63.0781 16.499Z" fill="black"/>
<path opacity="0.1" d="M62.2942 13.7136C62.2942 13.7136 62.6939 15.4403 63.7239 16.0265L62.2942 13.7136Z" fill="black"/>
<path opacity="0.1" d="M61.6811 13.8882C61.6711 13.8564 61.3259 15.2514 63.0091 16.0266C63.0091 16.0266 62.2942 15.784 61.6811 13.8882Z" fill="black"/>
<path opacity="0.1" d="M72.1444 12.7304C72.1181 12.7304 72.9746 13.2757 73.2081 13.5301C73.2081 13.5301 72.6503 12.694 72.1444 12.7304Z" fill="black"/>
<path d="M66.7234 11.5372C66.7237 11.5833 66.7336 11.6289 66.7524 11.671C66.7712 11.7131 66.7986 11.7509 66.8327 11.7819C66.8669 11.8129 66.9071 11.8365 66.9508 11.8511C66.9945 11.8658 67.0408 11.8712 67.0867 11.8671C67.7308 11.9071 68.402 11.9352 68.9943 11.6853C69.1054 11.6456 69.2051 11.5795 69.285 11.4926C69.3903 11.3627 69.4112 11.1864 69.4539 11.0246C69.5375 10.7084 69.7155 10.4275 69.8436 10.1267C70.0603 9.6185 70.1329 9.06039 70.0534 8.51361C70.0367 8.346 69.9813 8.18456 69.8917 8.04194C69.721 7.79748 69.4094 7.69842 69.1832 7.50394C68.957 7.30945 68.8117 7.01228 68.5474 6.86778C68.3094 6.73509 68.0178 6.75145 67.7498 6.79689C67.2228 6.88644 66.7177 7.07616 66.2619 7.3558C66.1084 7.44668 65.9404 7.55846 65.7642 7.52484C65.6097 7.49576 65.4971 7.3658 65.4008 7.24402C65.277 7.53485 65.2249 7.85125 65.2491 8.16645C65.2558 8.2127 65.2543 8.25978 65.2446 8.3055C65.2224 8.36077 65.1886 8.41065 65.1456 8.45181C64.9866 8.63357 64.8876 8.92893 65.0447 9.11614C65.1129 9.19702 65.2182 9.24155 65.2846 9.32425C65.4035 9.47239 65.3636 9.68777 65.3609 9.8768C65.3543 9.94281 65.371 10.009 65.4081 10.064C65.4425 10.0961 65.4845 10.1187 65.5302 10.1297C65.5759 10.1407 65.6236 10.1396 65.6688 10.1267C65.7588 10.0996 65.8533 10.0906 65.9467 10.1004C66.0452 10.1324 66.1303 10.1964 66.1884 10.2821C66.4818 10.6647 66.598 11.081 66.7234 11.5372Z" fill="#2D293D"/>
<g opacity="0.1">
<path opacity="0.1" d="M69.3603 11.3317C69.2805 11.4185 69.1807 11.4847 69.0696 11.5243C68.4738 11.7724 67.8034 11.7443 67.1621 11.7061C67.0932 11.7068 67.0252 11.6915 66.9632 11.6616C66.8651 11.6043 66.8278 11.4844 66.7978 11.3753C66.6725 10.9209 66.5571 10.5038 66.2592 10.1248C66.2018 10.0374 66.1167 9.97177 66.0176 9.93849C65.9241 9.92967 65.8298 9.93861 65.7396 9.96484C65.6945 9.97788 65.6468 9.97904 65.6011 9.96821C65.5555 9.95738 65.5134 9.93494 65.4789 9.90305C65.4418 9.84806 65.4251 9.78184 65.4317 9.71583C65.4317 9.52499 65.4744 9.31142 65.3554 9.16329C65.2891 9.08058 65.1837 9.03605 65.1156 8.95426C65.0711 8.89396 65.0439 8.82273 65.0367 8.74816C65.0295 8.67359 65.0426 8.59846 65.0747 8.53076C64.9611 8.71252 64.913 8.94063 65.0447 9.09694C65.1128 9.17782 65.2182 9.22236 65.2845 9.30506C65.4035 9.4541 65.3635 9.66858 65.3608 9.85761C65.3538 9.92351 65.3702 9.98978 65.4071 10.0448C65.4416 10.077 65.4838 10.0997 65.5297 10.1107C65.5755 10.1217 65.6235 10.1206 65.6688 10.1075C65.7587 10.0804 65.8532 10.0714 65.9467 10.0812C66.0452 10.1132 66.1302 10.1772 66.1883 10.2629C66.4854 10.6419 66.6016 11.0581 66.727 11.5143C66.7417 11.6266 66.7977 11.7293 66.8841 11.8024C66.9464 11.8325 67.0149 11.8474 67.084 11.8461C67.728 11.886 68.3993 11.9151 68.9915 11.6643C69.1027 11.6249 69.2026 11.5587 69.2822 11.4716C69.3222 11.4204 69.353 11.3626 69.373 11.3008C69.3739 11.3126 69.3676 11.3226 69.3603 11.3317Z" fill="black"/>
<path opacity="0.1" d="M65.2491 8.24998C65.2777 8.21898 65.2996 8.18249 65.3136 8.14274C65.3218 8.09675 65.3218 8.04968 65.3136 8.00369C65.2959 7.74459 65.3296 7.48454 65.4126 7.23848L65.4008 7.22485C65.2765 7.51524 65.2245 7.83145 65.2491 8.14637C65.2518 8.18085 65.2518 8.2155 65.2491 8.24998Z" fill="black"/>
</g>
<path opacity="0.1" d="M66.3464 12.8186C66.3464 12.8186 68.987 13.1694 69.2241 12.7722L66.3464 12.8186Z" fill="black"/>
<path opacity="0.1" d="M71.4795 11.7251C71.4795 11.7251 72.9474 11.7251 73.2699 12.2776L71.4795 11.7251Z" fill="black"/>
<path d="M79.692 60.8137C79.2566 61.2032 78.6909 61.4147 78.1069 61.4063C77.958 61.4063 77.7518 61.4344 77.7509 61.5835C77.7545 61.6272 77.7695 61.6692 77.7945 61.7053C77.9788 62.0127 78.2698 62.2414 78.612 62.3478C78.9299 62.4441 79.2696 62.4278 79.6012 62.4105L80.5686 62.3605C80.7503 62.3505 80.9319 62.3414 81.1136 62.3187C81.2953 62.296 81.4933 62.2587 81.6831 62.2278C82.1496 62.1615 82.6214 62.1396 83.092 62.1624C83.2173 62.1669 83.3645 62.1624 83.439 62.0715C83.5135 61.9806 83.4753 61.8071 83.4472 61.6707C83.389 61.3899 83.4472 61.0955 83.3936 60.8137C83.3027 60.3194 82.8749 59.9404 82.4062 59.7614C81.9702 59.596 81.1981 59.406 80.7857 59.6823C80.3506 59.9722 80.0844 60.4566 79.692 60.8137Z" fill="#3F3D56"/>
<path d="M80.6531 44.2502C80.7385 44.6564 81.1318 44.9672 81.1427 45.3816C81.1527 45.7142 80.9156 45.9932 80.7448 46.2777C80.5839 46.5723 80.4481 46.88 80.3388 47.1974C80.0172 48.0239 79.6182 48.8181 79.147 49.5694C78.9199 49.9329 78.6656 50.3209 78.7174 50.7435C78.7535 50.9411 78.8233 51.1311 78.9235 51.3052L79.6048 52.6593C79.754 52.9296 79.8708 53.2167 79.9527 53.5145C80.0118 53.7716 80.0172 54.0379 80.0517 54.2997C80.1589 55.1303 80.5486 55.9664 80.3179 56.7716C80.2979 56.8406 80.227 56.9243 80.1716 56.8761C80.3969 57.2969 80.5777 57.7204 80.5604 58.1975C80.5513 58.4474 80.475 58.7082 80.5668 58.9409C80.6058 59.0381 80.674 59.129 80.673 59.2335C80.673 59.3026 80.6413 59.3671 80.634 59.4344C80.6149 59.6261 80.7911 59.7861 80.9737 59.8469C81.1563 59.9078 81.3552 59.9033 81.5396 59.9587C81.8939 60.0651 82.1473 60.3704 82.448 60.5822C82.7564 60.7948 83.12 60.9131 83.4944 60.923C83.5478 60.9287 83.6017 60.9179 83.6488 60.8921C83.6755 60.8687 83.6969 60.8399 83.7117 60.8077C83.7264 60.7754 83.7341 60.7403 83.7342 60.7049C83.7507 60.5351 83.7251 60.3639 83.6599 60.2064C83.5946 60.0489 83.4916 59.9098 83.36 59.8015C83.3023 59.7654 83.2545 59.7154 83.221 59.6561C83.204 59.6036 83.1997 59.5479 83.2083 59.4934C83.2631 58.7485 83.2497 58.0002 83.1683 57.2578C83.1316 57.0225 83.1197 56.784 83.1329 56.5462C83.152 56.3481 83.2119 56.1518 83.1901 55.9546C83.1683 55.7574 83.0675 55.5774 83.0084 55.3875C82.9031 55.0494 82.9321 54.6859 82.9176 54.3324C82.8994 53.718 82.7586 53.1146 82.6187 52.5148C82.5633 52.2794 82.5025 52.0331 82.3362 51.8586C82.1945 51.7105 81.9656 51.5687 82.0192 51.3715C82.0489 51.2988 82.0931 51.2329 82.1491 51.1779C82.2149 51.0953 82.2632 51.0002 82.291 50.8983C82.3188 50.7965 82.3255 50.69 82.3108 50.5854C82.3706 50.6007 82.4338 50.5947 82.4896 50.5685C82.5454 50.5423 82.5904 50.4975 82.6169 50.4418C83.7233 49.9193 84.6153 48.8741 85.0132 47.7154C85.0366 47.6294 85.0728 47.5473 85.1204 47.4719C85.223 47.3283 85.401 47.2665 85.5591 47.1874C86.0551 46.9375 86.3975 46.4695 86.7118 46.0114C86.8935 45.7461 87.0752 45.4716 87.1569 45.159C87.1999 44.9568 87.2203 44.7504 87.2178 44.5437L87.2459 43.4759C87.2521 43.4056 87.2453 43.3347 87.2259 43.2669C87.199 43.2035 87.1598 43.146 87.1106 43.0978C86.8085 42.7782 86.4117 42.5641 85.9788 42.4871C85.6881 42.4353 85.3911 42.4453 85.0967 42.4208C84.5263 42.3735 83.9631 42.1963 83.3927 42.239C82.4961 42.3054 81.6977 42.927 81.2753 43.7213C81.1272 44.0012 80.971 44.2447 80.6531 44.2502Z" fill="#464353"/>
<path d="M75.6752 37.3069C75.6873 37.4718 75.6651 37.6373 75.6098 37.7931C75.5399 37.9422 75.3646 38.0585 75.2111 37.9976C75.2574 37.8931 75.1348 37.774 75.0203 37.7868C74.964 37.7997 74.9117 37.8262 74.8679 37.8639C74.824 37.9016 74.79 37.9493 74.7687 38.0031C74.6928 38.1557 74.6674 38.3285 74.696 38.4965C74.7324 38.7056 74.8532 38.9064 74.8214 39.1163C74.7959 39.2908 74.6679 39.4644 74.736 39.6262C74.7802 39.7001 74.8357 39.7666 74.9004 39.8234C74.9902 39.934 75.0341 40.0748 75.0231 40.2169C75.0121 40.3589 74.9471 40.4913 74.8414 40.5868L76.56 40.6213C76.4973 40.9085 76.6263 41.202 76.7734 41.4574C77.1856 42.1595 77.7547 42.7565 78.4362 43.2016C79.1176 43.6467 79.8929 43.9278 80.7012 44.0229C80.6575 44.0484 80.62 44.0834 80.5914 44.1252C80.5629 44.167 80.544 44.2146 80.536 44.2646C80.5281 44.3146 80.5314 44.3657 80.5457 44.4143C80.56 44.4629 80.5848 44.5077 80.6185 44.5455C80.7584 44.6845 80.9955 44.6673 81.1708 44.5773C81.3461 44.4873 81.4833 44.3383 81.6432 44.2229C81.9254 44.0228 82.2697 43.93 82.6142 43.9611C82.8295 43.982 83.0384 44.052 83.2546 44.0629C83.8904 44.0965 84.4354 43.6385 85.0477 43.4513C85.4937 43.3141 85.9996 43.3141 86.3739 43.0351C86.5356 42.9151 86.6682 42.7179 86.621 42.5234C86.5819 42.4116 86.52 42.3092 86.4393 42.2226C86.224 41.9436 86.0968 41.6082 85.9424 41.2911C85.6365 40.6631 85.2153 40.0983 84.7007 39.6262C84.3123 39.2865 83.9007 38.9743 83.469 38.6919C83.3646 38.6148 83.2533 38.5476 83.1365 38.4911C82.9857 38.4247 82.8186 38.3929 82.6823 38.3093C82.4807 38.1821 82.3644 37.9576 82.2091 37.7768C81.8684 37.3787 81.3452 37.196 80.9256 36.8834C80.644 36.6735 80.3951 36.3972 80.059 36.2963C79.8955 36.2464 79.722 36.2427 79.5585 36.1936C79.187 36.0809 78.9163 35.7511 78.552 35.6175C78.2641 35.512 77.9461 35.5393 77.6437 35.502C77.3027 35.46 76.977 35.3359 76.6944 35.1403C76.6034 35.0662 76.5013 35.0067 76.3919 34.964C75.9314 34.8241 75.8941 35.682 75.8469 35.9792C75.7861 36.4208 75.6752 36.8598 75.6752 37.3069Z" fill="#F5811E"/>
<path d="M76.1239 40.1841C76.2011 41.022 75.5689 41.8335 75.7533 42.6542C75.7924 42.8287 75.8678 42.995 75.895 43.1722C75.9722 43.6584 75.6816 44.1192 75.4045 44.5263L73.0246 48.0206C72.9291 48.174 72.815 48.3151 72.6849 48.4405C72.2307 48.8449 71.5476 48.804 70.9499 48.924C70.5301 49.0103 70.1336 49.1857 69.7872 49.4384C69.7716 49.4504 69.7614 49.4681 69.7587 49.4876C69.7559 49.5072 69.761 49.527 69.7727 49.5429C69.8714 49.6773 70.0021 49.7849 70.153 49.8559C70.3039 49.9268 70.4701 49.9589 70.6365 49.9491C70.6992 50.0309 70.6365 50.1527 70.5502 50.2117C70.4231 50.3026 70.2469 50.3235 70.2214 50.5407C70.2128 50.6162 70.2281 50.6925 70.265 50.7588C70.3612 50.9053 70.5103 51.0088 70.6811 51.0478C71.5049 51.3005 72.3951 50.857 73.0119 50.2545C73.6287 49.6519 74.071 48.8913 74.676 48.2787C75.0112 47.9388 75.3918 47.6489 75.737 47.32C76.4255 46.6629 76.9614 45.8659 77.4774 45.067C77.6327 44.8262 77.7899 44.579 77.8544 44.3C77.9188 44.021 77.8889 43.7384 77.9625 43.4685C78.0587 43.1149 78.3176 42.8323 78.5329 42.536C78.9553 41.9544 79.2378 41.2428 79.1815 40.5258C79.1251 39.8087 78.6819 39.1017 78.0061 38.8581C77.7964 38.7748 77.5656 38.7608 77.3475 38.8182C77.0704 38.9036 76.8661 39.1326 76.6771 39.3525L76.2229 39.8742C76.1124 39.9897 76.0256 40.1259 75.9677 40.275C75.9384 40.3501 75.9314 40.432 75.9475 40.511C75.9636 40.59 76.0022 40.6627 76.0585 40.7203" fill="#FBBEBE"/>
<path d="M77.3302 36.747C77.0177 36.7652 76.6735 36.7961 76.4528 37.0197C76.3602 37.1223 76.2853 37.2396 76.2311 37.3668C76.0167 37.8039 75.8078 38.2611 75.7924 38.7482C75.7797 39.1371 75.8923 39.5179 75.9513 39.9023C76.0004 40.2222 75.8759 40.5485 75.8523 40.872C76.2402 40.753 76.7525 40.5912 77.104 40.3904C77.3438 40.2531 77.5755 40.0968 77.8371 40.0096C78.2104 39.8851 78.8363 40.1005 79.1914 40.2731C79.2105 40.0241 79.0234 39.5897 79.0434 39.3398C79.0462 39.2346 79.0648 39.1304 79.0988 39.0308C79.1519 38.9254 79.2149 38.8253 79.2868 38.7318C79.422 38.5119 79.4842 38.2548 79.4645 37.9974C79.4447 37.7399 79.3441 37.4954 79.1769 37.2987C78.8617 36.9442 78.3685 36.8115 77.8979 36.7534C77.6016 36.719 77.303 36.7087 77.005 36.7225" fill="#F5811E"/>
</g>
<defs>
<linearGradient id="paint0_linear_1002_12413" x1="64.4025" y1="50.5817" x2="64.4025" y2="6.1725" gradientUnits="userSpaceOnUse">
<stop stop-color="#808080" stop-opacity="0.25"/>
<stop offset="0.54" stop-color="#808080" stop-opacity="0.12"/>
<stop offset="1" stop-color="#808080" stop-opacity="0.1"/>
</linearGradient>
<clipPath id="clip0_1002_12413">
<rect width="95.3394" height="61.67" fill="white" transform="translate(0.252441 0.945068)"/>
</clipPath>
</defs>
</svg>
