<svg width="32" height="33" viewBox="0 0 32 33" fill="none" xmlns="http://www.w3.org/2000/svg">
<path d="M0.565372 31.7568C0.670282 32.0753 1.02962 32.2726 1.02962 32.2726C1.02962 32.2726 1.21887 31.9534 1.11396 31.6349C1.00905 31.3163 0.64971 31.119 0.64971 31.119C0.64971 31.119 0.460463 31.4382 0.565372 31.7568Z" fill="#FFD200"/>
<path d="M0.719427 31.6884C1.00729 31.9186 1.04246 32.2724 1.04246 32.2724C1.04246 32.2724 0.610894 32.2531 0.323029 32.0229C0.035163 31.7927 0 31.4389 0 31.4389C0 31.4389 0.431562 31.4582 0.719427 31.6884Z" fill="#F5811E"/>
<path d="M2.14963 6.38373L0.884766 5.55251L7.96796 0.357727H25.9289V4.92915L14.2922 11.3707L2.14963 6.38373Z" fill="#FFD200"/>
<path d="M29.2031 3.27171V0.461502H26.8184V1.14972L25.9284 0.357727L20.1101 5.55251L17.8334 6.79928L14.3032 27.9847L19.6271 32.3577H31.9998V5.76031L29.2031 3.27171Z" fill="#F5811E"/>
<path d="M20.1106 5.55255H0.884766V32.3577H20.1106V5.55255Z" fill="#FDE9DA"/>
<path d="M11.8888 25.8122H8.34717V32.3577H11.8888V25.8122Z" fill="#F5811E"/>
<path d="M4.55245 27.6823V26.6434H3.03467V27.6823H4.42599H4.55245Z" fill="#FFD200"/>
<path d="M4.42599 28.5136H3.03467V29.5525H4.55245V28.5136H4.42599Z" fill="#FFD200"/>
<path d="M7.08228 26.6434H5.56445V27.6823H7.08228V26.6434Z" fill="#FFD200"/>
<path d="M7.08228 28.5136H5.56445V29.5525H7.08228V28.5136Z" fill="#FFD200"/>
<path d="M14.924 27.6823V26.6434H13.4062V27.6823H14.7976H14.924Z" fill="#FFD200"/>
<path d="M14.7976 28.5136H13.4062V29.5525H14.924V28.5136H14.7976Z" fill="#FFD200"/>
<path d="M17.4539 26.6434H15.936V27.6823H17.4539V26.6434Z" fill="#FFD200"/>
<path d="M17.4539 28.5136H15.936V29.5525H17.4539V28.5136Z" fill="#FFD200"/>
<path d="M25.5496 6.90314V5.86423H24.0317V6.90314H25.4231H25.5496Z" fill="#FFD200"/>
<path d="M25.4231 7.73434H24.0317V8.77325H25.5496V7.73434H25.4231Z" fill="#FFD200"/>
<path d="M28.0789 5.86417H26.561V6.90313H28.0789V5.86417Z" fill="#FFD200"/>
<path d="M28.0789 7.73434H26.561V8.77331H28.0789V7.73434Z" fill="#FFD200"/>
<path d="M25.5496 12.7212V11.6823H24.0317V12.7212H25.4231H25.5496Z" fill="#FFD200"/>
<path d="M25.4231 13.5526H24.0317V14.5915H25.5496V13.5526H25.4231Z" fill="#FFD200"/>
<path d="M28.0789 11.6823H26.561V12.7213H28.0789V11.6823Z" fill="#FFD200"/>
<path d="M28.0789 13.5526H26.561V14.5915H28.0789V13.5526Z" fill="#FFD200"/>
<path d="M25.5496 18.5395V17.5005H24.0317V18.5395H25.4231H25.5496Z" fill="#FFD200"/>
<path d="M25.4231 19.3706H24.0317V20.4095H25.5496V19.3706H25.4231Z" fill="#FFD200"/>
<path d="M28.0789 17.5005H26.561V18.5395H28.0789V17.5005Z" fill="#FFD200"/>
<path d="M28.0789 19.3707H26.561V20.4096H28.0789V19.3707Z" fill="#FFD200"/>
<path d="M25.5496 24.3576V23.3187H24.0317V24.3576H25.4231H25.5496Z" fill="#FFD200"/>
<path d="M25.4231 25.1889H24.0317V26.2278H25.5496V25.1889H25.4231Z" fill="#FFD200"/>
<path d="M28.0789 23.3187H26.561V24.3576H28.0789V23.3187Z" fill="#FFD200"/>
<path d="M28.0789 25.1889H26.561V26.2278H28.0789V25.1889Z" fill="#FFD200"/>
<path d="M17.707 6.90323H3.03467V9.39674H17.707V6.90323Z" fill="#FFD200"/>
<path d="M17.707 11.8901H3.03467V14.3836H17.707V11.8901Z" fill="#FFD200"/>
<path d="M17.707 16.877H3.03467V19.3705H17.707V16.877Z" fill="#FFD200"/>
<path d="M17.707 21.8642H3.03467V24.3577H17.707V21.8642Z" fill="#FFD200"/>
</svg>
