<svg width="100" height="83" viewBox="0 0 100 83" fill="none" xmlns="http://www.w3.org/2000/svg">
<path d="M91.6231 33.3497C90.3644 34.2508 88.9896 34.9775 87.5361 35.5099C87.1594 35.6512 86.7771 35.7811 86.3929 35.8979H69.3558C69.2824 35.7679 69.2089 35.6399 69.1355 35.5099C67.6626 32.8901 66.3142 30.1668 65.9375 27.2042C65.4949 23.7199 66.736 19.7743 69.8041 18.0623C70.2063 17.8384 70.632 17.6596 71.0735 17.5293C71.2562 17.4746 71.4427 17.4294 71.631 17.3899C72.781 17.1346 73.9783 17.1903 75.0997 17.5511C76.2211 17.912 77.2261 18.565 78.0115 19.443C78.7969 20.321 79.3342 21.3924 79.5683 22.5469C79.8024 23.7014 79.7247 24.8974 79.3434 26.012C81.9443 23.3451 81.4584 19.0209 80.562 15.4067C79.6636 11.7906 78.575 7.76957 80.4038 4.52261C81.4189 2.71646 83.2062 1.59396 85.2101 1.14384C85.2723 1.13065 85.3344 1.11747 85.3948 1.10428C87.7839 0.621304 90.2674 1.0564 92.35 2.32283C96.1827 4.73921 98.1528 9.3196 98.7912 13.8077C99.8214 21.0286 97.5426 29.0857 91.6231 33.3497Z" fill="#F2F2F2"/>
<path d="M73.0192 19.6902C74.4344 22.5667 74.8861 25.8223 74.3074 28.9753C73.8565 31.3562 72.8469 33.596 71.3617 35.5106C71.26 35.6406 71.1565 35.7706 71.0491 35.8986H70.3447C70.4577 35.7706 70.5688 35.6425 70.6761 35.5106C72.0078 33.8994 72.9771 32.0204 73.5182 30.0014C74.0593 27.9823 74.1595 25.8704 73.8121 23.8092C73.406 21.5298 72.4677 19.3785 71.0736 17.53C71.2563 17.4754 71.4428 17.4302 71.6311 17.3906C72.161 18.1145 72.6256 18.8841 73.0192 19.6902Z" fill="white"/>
<path d="M89.9437 21.7758C89.7923 23.3684 89.4097 24.9304 88.808 26.4127C88.2528 27.7241 87.505 28.9455 86.5894 30.0363C84.6851 32.2651 82.2732 34.0039 79.5569 35.1064C79.216 35.2495 78.8694 35.3851 78.5229 35.5094C78.1387 35.6488 77.7519 35.7781 77.3627 35.8974H75.2646C75.7788 35.7825 76.2873 35.6544 76.7921 35.5094C78.0387 35.1563 79.2524 34.6957 80.4194 34.1327C82.9433 32.9366 85.1345 31.1386 86.8004 28.8969C88.5877 26.4315 89.3768 23.4652 89.5105 20.4499C89.6155 17.202 89.2753 13.955 88.4992 10.7994C87.7477 7.58141 86.6047 4.46758 85.0959 1.52756C85.0621 1.461 85.0552 1.38402 85.0766 1.31253C85.098 1.24103 85.146 1.18047 85.2107 1.14335C85.2373 1.12485 85.2674 1.11182 85.2991 1.10503C85.3308 1.09824 85.3635 1.09782 85.3954 1.1038C85.4267 1.1126 85.4557 1.12811 85.4804 1.14925C85.5051 1.17039 85.5249 1.19665 85.5385 1.22621C85.725 1.58971 85.9076 1.9532 86.0828 2.32046C87.5456 5.3823 88.6229 8.61373 89.2902 11.9408C89.9362 15.1501 90.2827 18.5062 89.9437 21.7758Z" fill="white"/>
<path d="M93.4484 69.4649H50.4475C49.3951 69.4649 48.3858 69.8829 47.6417 70.6271C46.8976 71.3712 46.4795 72.3805 46.4795 73.4329C46.4795 74.4853 46.8976 75.4945 47.6417 76.2387C48.3858 76.9828 49.3951 77.4009 50.4475 77.4009H89.0216L92.1663 82.2344C92.2338 82.342 92.3274 82.4306 92.4384 82.4922C92.5494 82.5538 92.6742 82.5863 92.8012 82.5866C92.8775 82.5868 92.9535 82.576 93.0268 82.5543C93.1869 82.5094 93.3277 82.4128 93.4272 82.2796C93.5268 82.1464 93.5796 81.9841 93.5774 81.8178V77.3984C94.6181 77.3646 95.6037 76.9232 96.3218 76.1692C97.0399 75.4153 97.4329 74.4092 97.416 73.3682C97.3991 72.3271 96.9736 71.3344 96.2314 70.6042C95.4891 69.874 94.4896 69.4648 93.4484 69.4648V69.4649ZM93.4484 76.89H93.0641V81.8178C93.0645 81.873 93.047 81.9268 93.0141 81.9712C92.9813 82.0155 92.9349 82.048 92.882 82.0636C92.8291 82.0793 92.7725 82.0774 92.7208 82.0581C92.6691 82.0388 92.625 82.0032 92.5953 81.9567L89.3019 76.89H50.4475C49.5309 76.89 48.6519 76.5259 48.0038 75.8778C47.3557 75.2297 46.9916 74.3507 46.9916 73.4341C46.9916 72.5176 47.3557 71.6385 48.0038 70.9904C48.6519 70.3423 49.5309 69.9782 50.4475 69.9782H93.4484C94.365 69.9782 95.244 70.3423 95.8921 70.9904C96.5402 71.6385 96.9043 72.5176 96.9043 73.4341C96.9043 74.3507 96.5402 75.2297 95.8921 75.8778C95.244 76.5259 94.365 76.89 93.4484 76.89Z" fill="#3F3D56"/>
<path d="M74.509 52.5742H4.88767C3.83562 52.5742 2.82665 52.9922 2.08274 53.7361C1.33882 54.48 0.920898 55.4889 0.920898 56.541C0.920898 57.5931 1.33882 58.602 2.08274 59.3459C2.82665 60.0898 3.83562 60.5078 4.88767 60.5078H5.52753V65.1801C5.52494 65.3461 5.57727 65.5083 5.67639 65.6415C5.7755 65.7748 5.91586 65.8715 6.07562 65.9167C6.14976 65.9381 6.22657 65.949 6.30376 65.9489C6.43052 65.9491 6.55525 65.9171 6.66629 65.8559C6.77732 65.7948 6.87102 65.7065 6.93864 65.5992L10.247 60.5078H74.509C75.561 60.5078 76.57 60.0898 77.3139 59.3459C78.0578 58.602 78.4758 57.5931 78.4758 56.541C78.4758 55.4889 78.0578 54.48 77.3139 53.7361C76.57 52.9922 75.561 52.5742 74.509 52.5742ZM74.509 59.9969H9.96927L6.50961 65.319C6.47962 65.3654 6.43542 65.4009 6.3836 65.4201C6.33178 65.4393 6.27513 65.4413 6.22212 65.4257C6.1691 65.41 6.12257 65.3777 6.08946 65.3334C6.05635 65.2892 6.03845 65.2354 6.03843 65.1801V59.9969H4.88768C3.97112 59.9969 3.0921 59.6328 2.44399 58.9847C1.79589 58.3366 1.43178 57.4576 1.43178 56.541C1.43178 55.6244 1.79589 54.7454 2.44399 54.0973C3.0921 53.4492 3.97112 53.0851 4.88768 53.0851H74.509C75.4256 53.0851 76.3046 53.4492 76.9527 54.0973C77.6008 54.7454 77.9649 55.6244 77.9649 56.541C77.9649 57.4576 77.6008 58.3366 76.9527 58.9847C76.3046 59.6328 75.4256 59.9969 74.509 59.9969Z" fill="#CCCCCC"/>
<path d="M47.8886 18.7852H4.88767C3.83562 18.7852 2.82666 19.2031 2.08274 19.947C1.33883 20.6909 0.920898 21.6999 0.920898 22.7519C0.920898 23.804 1.33883 24.813 2.08274 25.5569C2.82666 26.3008 3.83562 26.7187 4.88767 26.7187H5.52753V31.391C5.52494 31.5571 5.57727 31.7193 5.67639 31.8525C5.7755 31.9857 5.91586 32.0824 6.07562 32.1276C6.14966 32.1498 6.22646 32.1615 6.30376 32.1623C6.43071 32.162 6.55551 32.1295 6.66652 32.068C6.77754 32.0064 6.87115 31.9177 6.93864 31.8102L10.2469 26.7187H47.8886C48.9406 26.7187 49.9496 26.3008 50.6935 25.5569C51.4374 24.813 51.8554 23.804 51.8554 22.7519C51.8554 21.6999 51.4374 20.6909 50.6935 19.947C49.9496 19.2031 48.9406 18.7852 47.8886 18.7852ZM47.8886 26.2078H9.96927L6.50961 31.5324C6.47911 31.5783 6.43465 31.6133 6.38279 31.632C6.33093 31.6507 6.27442 31.6523 6.2216 31.6364C6.16879 31.6206 6.12247 31.5882 6.08948 31.544C6.0565 31.4998 6.0386 31.4462 6.03843 31.391V26.2078H4.88767C3.97111 26.2078 3.09209 25.8437 2.44399 25.1956C1.79588 24.5475 1.43178 23.6685 1.43178 22.7519C1.43178 21.8354 1.79588 20.9564 2.44399 20.3082C3.09209 19.6601 3.97111 19.296 4.88767 19.296H47.8886C48.8051 19.296 49.6842 19.6601 50.3323 20.3082C50.9804 20.9564 51.3445 21.8354 51.3445 22.7519C51.3445 23.6685 50.9804 24.5475 50.3323 25.1956C49.6842 25.8437 48.8051 26.2078 47.8886 26.2078Z" fill="#CCCCCC"/>
<path d="M93.449 35.6797H33.2988C32.2468 35.6797 31.2378 36.0976 30.4939 36.8415C29.75 37.5854 29.332 38.5944 29.332 39.6465C29.332 40.6985 29.75 41.7075 30.4939 42.4514C31.2378 43.1953 32.2468 43.6132 33.2988 43.6132H88.0252L92.1668 49.9844C92.2343 50.0919 92.3279 50.1806 92.4389 50.2422C92.5499 50.3038 92.6748 50.3362 92.8017 50.3365C92.8782 50.3359 92.9542 50.3242 93.0273 50.3018C93.1876 50.2572 93.3286 50.1607 93.4282 50.0274C93.5278 49.8942 93.5805 49.7316 93.5779 49.5653V43.6133C94.6186 43.5795 95.6043 43.138 96.3224 42.3841C97.0405 41.6301 97.4334 40.6241 97.4165 39.583C97.3996 38.542 96.9741 37.5493 96.2319 36.8191C95.4897 36.0888 94.4902 35.6796 93.449 35.6797V35.6797ZM93.449 43.1024H93.0646V49.5653C93.0665 49.6206 93.0497 49.675 93.0168 49.7195C92.984 49.7641 92.937 49.7963 92.8836 49.8108C92.8308 49.8278 92.774 49.8268 92.7219 49.8079C92.6698 49.7891 92.6255 49.7534 92.5958 49.7066L88.3029 43.1024H33.2988C32.3822 43.1024 31.5032 42.7383 30.8551 42.0902C30.207 41.442 29.8429 40.563 29.8429 39.6465C29.8429 38.7299 30.207 37.8509 30.8551 37.2028C31.5032 36.5547 32.3822 36.1906 33.2988 36.1906H93.4489C94.3655 36.1906 95.2445 36.5547 95.8926 37.2028C96.5407 37.8509 96.9048 38.7299 96.9048 39.6465C96.9048 40.563 96.5407 41.442 95.8926 42.0902C95.2445 42.7383 94.3655 43.1024 93.4489 43.1024H93.449Z" fill="#3F3D56"/>
<path d="M51.6004 75.609C52.7313 75.609 53.6481 74.6923 53.6481 73.5614C53.6481 72.4304 52.7313 71.5137 51.6004 71.5137C50.4695 71.5137 49.5527 72.4304 49.5527 73.5614C49.5527 74.6923 50.4695 75.609 51.6004 75.609Z" fill="#F36B09"/>
<path d="M57.743 75.609C58.8739 75.609 59.7907 74.6923 59.7907 73.5614C59.7907 72.4304 58.8739 71.5137 57.743 71.5137C56.6121 71.5137 55.6953 72.4304 55.6953 73.5614C55.6953 74.6923 56.6121 75.609 57.743 75.609Z" fill="#F36B09"/>
<path d="M63.8856 75.609C65.0165 75.609 65.9333 74.6923 65.9333 73.5614C65.9333 72.4304 65.0165 71.5137 63.8856 71.5137C62.7547 71.5137 61.8379 72.4304 61.8379 73.5614C61.8379 74.6923 62.7547 75.609 63.8856 75.609Z" fill="#F36B09"/>
<path d="M67.6885 55.5273H11.7072C11.429 55.5274 11.1623 55.638 10.9656 55.8347C10.7689 56.0314 10.6583 56.2982 10.6582 56.5764V56.7599C10.6583 57.0381 10.7689 57.3049 10.9656 57.5016C11.1623 57.6983 11.429 57.8089 11.7072 57.809H67.6885C67.9666 57.8084 68.2331 57.6977 68.4297 57.5011C68.6263 57.3045 68.737 57.038 68.7375 56.7599V56.5764C68.737 56.2983 68.6263 56.0318 68.4297 55.8352C68.2331 55.6386 67.9666 55.5279 67.6885 55.5273Z" fill="#CCCCCC"/>
<path d="M46.0604 21.4844H6.71506C6.43699 21.4849 6.17047 21.5956 5.97384 21.7922C5.77722 21.9888 5.66653 22.2554 5.66602 22.5334V22.7169C5.66653 22.995 5.77722 23.2615 5.97384 23.4582C6.17046 23.6548 6.43699 23.7655 6.71506 23.766H46.0604C46.3385 23.7655 46.605 23.6548 46.8016 23.4582C46.9982 23.2615 47.1089 22.995 47.1094 22.7169V22.5334C47.1089 22.2554 46.9982 21.9888 46.8016 21.7922C46.605 21.5956 46.3385 21.4849 46.0604 21.4844Z" fill="#CCCCCC"/>
<path d="M83.0477 38.6328H43.7024C43.4243 38.6333 43.1578 38.744 42.9611 38.9406C42.7645 39.1373 42.6538 39.4038 42.6533 39.6819V39.8654C42.6538 40.1434 42.7645 40.41 42.9611 40.6066C43.1578 40.8032 43.4243 40.9139 43.7024 40.9144H83.0477C83.3255 40.9138 83.5917 40.803 83.7879 40.6063C83.9842 40.4097 84.0943 40.1432 84.0943 39.8654V39.6819C84.0943 39.404 83.9842 39.1376 83.7879 38.9409C83.5917 38.7442 83.3255 38.6334 83.0477 38.6328Z" fill="#F36B09"/>
</svg>
