<svg width="100" height="100" viewBox="0 0 100 100" fill="none" xmlns="http://www.w3.org/2000/svg">
    <path opacity="0.6" d="M99.408 50.0842C99.408 77.372 77.2868 99.4932 49.9989 99.4932C22.711 99.4932 0.589844 77.372 0.589844 50.0842C0.589844 22.7963 22.711 0.67511 49.9989 0.67511C77.2868 0.67511 99.408 22.7963 99.408 50.0842ZM9.88671 50.0842C9.88671 72.2375 27.8456 90.1964 49.9989 90.1964C72.1523 90.1964 90.1111 72.2375 90.1111 50.0842C90.1111 27.9308 72.1523 9.97198 49.9989 9.97198C27.8456 9.97198 9.88671 27.9308 9.88671 50.0842Z" fill="#03A66D"/>
    <path d="M94.7936 50.0842C97.3421 50.0842 99.4303 48.0138 99.1927 45.4764C98.5348 38.4524 96.3782 31.6318 92.8478 25.4827C88.5494 17.9962 82.3645 11.7665 74.9092 7.41414C67.4539 3.06181 58.9884 0.73876 50.3558 0.676399C43.2656 0.625179 36.2659 2.10049 29.8259 4.98087C27.4996 6.02136 26.7233 8.8577 27.9762 11.0769C29.2291 13.296 32.0362 14.0522 34.3843 13.0619C39.4015 10.9458 44.8121 9.86523 50.2892 9.90479C57.3093 9.95551 64.1937 11.8447 70.2565 15.3841C76.3193 18.9235 81.3489 23.9896 84.8445 30.0778C87.5716 34.8278 89.2907 40.0706 89.9147 45.4799C90.2067 48.0116 92.2452 50.0842 94.7936 50.0842Z" fill="#03A66D"/>
    <path d="M26.91 58.0842C26.91 57.3642 26.966 56.7162 27.078 56.1402C27.19 55.5642 27.382 55.0282 27.654 54.5322C27.942 54.0362 28.326 53.5722 28.806 53.1402C29.302 52.6922 29.926 52.2602 30.678 51.8442C31.334 51.4922 31.91 51.1882 32.406 50.9322C32.902 50.6602 33.318 50.4122 33.654 50.1882C34.006 49.9642 34.27 49.7402 34.446 49.5162C34.622 49.2762 34.71 49.0042 34.71 48.7002C34.71 48.3802 34.622 48.0922 34.446 47.8362C34.27 47.5642 34.022 47.3482 33.702 47.1882C33.382 47.0282 32.982 46.9482 32.502 46.9482C32.118 46.9482 31.758 46.9962 31.422 47.0922C31.102 47.1882 30.798 47.3242 30.51 47.5002C30.238 47.6762 29.982 47.8762 29.742 48.1002C29.502 48.3082 29.286 48.5322 29.094 48.7722L27.054 46.4202C27.278 46.1962 27.574 45.9562 27.942 45.7002C28.326 45.4282 28.774 45.1802 29.286 44.9562C29.814 44.7162 30.39 44.5242 31.014 44.3802C31.654 44.2202 32.334 44.1402 33.054 44.1402C34.142 44.1402 35.07 44.3162 35.838 44.6682C36.606 45.0042 37.19 45.4762 37.59 46.0842C38.006 46.6922 38.214 47.4042 38.214 48.2202C38.214 48.7802 38.11 49.2762 37.902 49.7082C37.694 50.1402 37.43 50.5242 37.11 50.8602C36.79 51.1802 36.438 51.4682 36.054 51.7242C35.686 51.9802 35.326 52.2042 34.974 52.3962C34.478 52.6522 34.03 52.8922 33.63 53.1162C33.23 53.3242 32.878 53.5402 32.574 53.7642C32.27 53.9722 31.998 54.1882 31.758 54.4122C31.534 54.6362 31.334 54.8922 31.158 55.1802H38.478V58.0842H26.91ZM46.5529 61.6602C45.3209 61.6602 44.2089 61.3962 43.2169 60.8682C42.2249 60.3402 41.4729 59.6202 40.9609 58.7082L42.8089 56.7882C43.2569 57.4122 43.8169 57.9082 44.4889 58.2762C45.1609 58.6442 45.8569 58.8282 46.5769 58.8282C47.1529 58.8282 47.6569 58.7082 48.0889 58.4682C48.5369 58.2282 48.8889 57.8922 49.1449 57.4602C49.4009 57.0282 49.5289 56.5322 49.5289 55.9722C49.5289 55.4122 49.4089 54.9242 49.1689 54.5082C48.9289 54.0922 48.6009 53.7722 48.1849 53.5482C47.7689 53.3082 47.2969 53.1882 46.7689 53.1882C46.2409 53.1882 45.7449 53.3082 45.2809 53.5482C44.8329 53.7722 44.4729 54.1002 44.2009 54.5322H41.3929L43.3609 44.3802H51.7609V47.3082H45.6889L44.9929 51.1242C45.2009 50.9322 45.4889 50.7722 45.8569 50.6442C46.2249 50.5002 46.6809 50.4282 47.2249 50.4282C48.2969 50.4282 49.2569 50.6602 50.1049 51.1242C50.9529 51.5882 51.6169 52.2362 52.0969 53.0682C52.5769 53.8842 52.8169 54.8282 52.8169 55.9002C52.8169 57.0362 52.5449 58.0362 52.0009 58.9002C51.4569 59.7802 50.7129 60.4602 49.7689 60.9402C48.8249 61.4202 47.7529 61.6602 46.5529 61.6602ZM59.074 48.0762C58.338 48.0762 57.674 47.9162 57.082 47.5962C56.49 47.2602 56.01 46.8202 55.642 46.2762C55.29 45.7162 55.114 45.1002 55.114 44.4282C55.114 43.7562 55.29 43.1482 55.642 42.6042C56.01 42.0442 56.49 41.6042 57.082 41.2842C57.674 40.9642 58.338 40.8042 59.074 40.8042C59.81 40.8042 60.474 40.9642 61.066 41.2842C61.674 41.6042 62.154 42.0442 62.506 42.6042C62.858 43.1482 63.034 43.7562 63.034 44.4282C63.034 45.1002 62.858 45.7162 62.506 46.2762C62.154 46.8202 61.674 47.2602 61.066 47.5962C60.474 47.9162 59.81 48.0762 59.074 48.0762ZM59.074 46.4682C59.394 46.4682 59.682 46.3722 59.938 46.1802C60.194 45.9882 60.394 45.7402 60.538 45.4362C60.698 45.1322 60.778 44.8042 60.778 44.4522C60.778 44.0682 60.698 43.7242 60.538 43.4202C60.378 43.1162 60.17 42.8762 59.914 42.7002C59.658 42.5082 59.378 42.4122 59.074 42.4122C58.754 42.4122 58.466 42.5082 58.21 42.7002C57.954 42.8762 57.746 43.1162 57.586 43.4202C57.442 43.7242 57.37 44.0602 57.37 44.4282C57.37 44.7962 57.45 45.1402 57.61 45.4602C57.77 45.7642 57.978 46.0122 58.234 46.2042C58.49 46.3802 58.77 46.4682 59.074 46.4682ZM68.338 58.3242C67.602 58.3242 66.938 58.1642 66.346 57.8442C65.754 57.5242 65.274 57.0922 64.906 56.5482C64.554 55.9882 64.378 55.3722 64.378 54.7002C64.378 54.0122 64.554 53.3962 64.906 52.8522C65.274 52.3082 65.754 51.8762 66.346 51.5562C66.938 51.2202 67.602 51.0522 68.338 51.0522C69.074 51.0522 69.738 51.2202 70.33 51.5562C70.938 51.8762 71.418 52.3082 71.77 52.8522C72.122 53.3962 72.298 54.0042 72.298 54.6762C72.298 55.3482 72.122 55.9642 71.77 56.5242C71.418 57.0682 70.938 57.5082 70.33 57.8442C69.738 58.1642 69.074 58.3242 68.338 58.3242ZM68.338 56.7162C68.658 56.7162 68.946 56.6202 69.202 56.4282C69.458 56.2362 69.658 55.9882 69.802 55.6842C69.962 55.3802 70.042 55.0522 70.042 54.7002C70.042 54.3162 69.962 53.9722 69.802 53.6682C69.658 53.3642 69.45 53.1242 69.178 52.9482C68.922 52.7562 68.642 52.6602 68.338 52.6602C68.034 52.6602 67.746 52.7562 67.474 52.9482C67.218 53.1242 67.01 53.3722 66.85 53.6922C66.706 53.9962 66.634 54.3242 66.634 54.6762C66.634 55.0602 66.714 55.4042 66.874 55.7082C67.034 56.0122 67.242 56.2602 67.498 56.4522C67.754 56.6282 68.034 56.7162 68.338 56.7162ZM56.482 56.9562L63.226 49.0602L69.466 40.8522L70.93 42.1482L64.354 49.9242L57.922 58.2522L56.482 56.9562Z" fill="#1E2329"/>
    </svg>
    