<svg width="136" height="25" viewBox="0 0 136 25" fill="none" xmlns="http://www.w3.org/2000/svg">
<path d="M12.6723 0.920517C12.5459 0.664515 12.2852 0.502441 11.9997 0.502441C11.7142 0.502441 11.4535 0.664515 11.3272 0.920517L8.26886 7.11734L1.43026 8.11105C1.14774 8.1521 0.913034 8.34998 0.824815 8.62149C0.736597 8.893 0.810169 9.19105 1.0146 9.39032L5.96306 14.2139L4.79489 21.0248C4.74663 21.3062 4.86229 21.5906 5.09325 21.7584C5.32421 21.9262 5.63041 21.9483 5.8831 21.8155L11.9997 18.5998L18.1164 21.8155C18.369 21.9483 18.6752 21.9262 18.9062 21.7584C19.1372 21.5906 19.2528 21.3062 19.2046 21.0248L18.0364 14.2139L22.9849 9.39032C23.1893 9.19105 23.2629 8.893 23.1746 8.62149C23.0864 8.34998 22.8517 8.1521 22.5692 8.11105L15.7306 7.11734L12.6723 0.920517Z" fill="#F36B09"/>
<path d="M40.6723 0.920517C40.5459 0.664515 40.2852 0.502441 39.9997 0.502441C39.7142 0.502441 39.4535 0.664515 39.3272 0.920517L36.2689 7.11734L29.4303 8.11105C29.1477 8.1521 28.913 8.34998 28.8248 8.62149C28.7366 8.893 28.8102 9.19105 29.0146 9.39032L33.9631 14.2139L32.7949 21.0248C32.7466 21.3062 32.8623 21.5906 33.0933 21.7584C33.3242 21.9262 33.6304 21.9483 33.8831 21.8155L39.9997 18.5998L46.1164 21.8155C46.369 21.9483 46.6752 21.9262 46.9062 21.7584C47.1372 21.5906 47.2528 21.3062 47.2046 21.0248L46.0364 14.2139L50.9849 9.39032C51.1893 9.19105 51.2629 8.893 51.1746 8.62149C51.0864 8.34998 50.8517 8.1521 50.5692 8.11105L43.7306 7.11734L40.6723 0.920517Z" fill="#F36B09"/>
<path d="M68.6723 0.920517C68.5459 0.664515 68.2852 0.502441 67.9997 0.502441C67.7142 0.502441 67.4535 0.664515 67.3272 0.920517L64.2689 7.11734L57.4303 8.11105C57.1477 8.1521 56.913 8.34998 56.8248 8.62149C56.7366 8.893 56.8102 9.19105 57.0146 9.39032L61.9631 14.2139L60.7949 21.0248C60.7466 21.3062 60.8623 21.5906 61.0933 21.7584C61.3242 21.9262 61.6304 21.9483 61.8831 21.8155L67.9997 18.5998L74.1164 21.8155C74.369 21.9483 74.6752 21.9262 74.9062 21.7584C75.1372 21.5906 75.2528 21.3062 75.2046 21.0248L74.0364 14.2139L78.9849 9.39032C79.1893 9.19105 79.2629 8.893 79.1746 8.62149C79.0864 8.34998 78.8517 8.1521 78.5692 8.11105L71.7306 7.11734L68.6723 0.920517Z" fill="#F36B09"/>
<path d="M96.6723 0.920517C96.5459 0.664515 96.2852 0.502441 95.9997 0.502441C95.7142 0.502441 95.4535 0.664515 95.3272 0.920517L92.2689 7.11734L85.4303 8.11105C85.1477 8.1521 84.913 8.34998 84.8248 8.62149C84.7366 8.893 84.8102 9.19105 85.0146 9.39032L89.9631 14.2139L88.7949 21.0248C88.7466 21.3062 88.8623 21.5906 89.0933 21.7584C89.3242 21.9262 89.6304 21.9483 89.8831 21.8155L95.9997 18.5998L102.116 21.8155C102.369 21.9483 102.675 21.9262 102.906 21.7584C103.137 21.5906 103.253 21.3062 103.205 21.0248L102.036 14.2139L106.985 9.39032C107.189 9.19105 107.263 8.893 107.175 8.62149C107.086 8.34998 106.852 8.1521 106.569 8.11105L99.7306 7.11734L96.6723 0.920517Z" fill="#F36B09"/>
<path d="M124.672 0.920517C124.546 0.664515 124.285 0.502441 124 0.502441C123.714 0.502441 123.454 0.664515 123.327 0.920517L120.269 7.11734L113.43 8.11105C113.148 8.1521 112.913 8.34998 112.825 8.62149C112.737 8.893 112.81 9.19105 113.015 9.39032L117.963 14.2139L116.795 21.0248C116.747 21.3062 116.862 21.5906 117.093 21.7584C117.324 21.9262 117.63 21.9483 117.883 21.8155L124 18.5998L130.116 21.8155C130.369 21.9483 130.675 21.9262 130.906 21.7584C131.137 21.5906 131.253 21.3062 131.205 21.0248L130.036 14.2139L134.985 9.39032C135.189 9.19105 135.263 8.893 135.175 8.62149C135.086 8.34998 134.852 8.1521 134.569 8.11105L127.731 7.11734L124.672 0.920517Z" fill="#F36B09"/>
</svg>
