<svg width="413" height="505" viewBox="0 0 413 505" fill="none" xmlns="http://www.w3.org/2000/svg">
<path d="M414.75 1.6156H0.885254V504.165H414.75V1.6156Z" fill="#EAEAEA"/>
<path d="M294.692 67.3365L299.122 105.267L327.525 129.217L334.04 127.383L354.626 107.444C354.626 107.444 391.368 43.5012 390.847 42.8136C390.325 42.2407 361.792 2.3623 361.792 2.3623L300.555 57.0231L294.692 67.3365Z" fill="#EAEAEA"/>
<path d="M320.157 326.606L312.45 339.355L354.212 358.885L361.919 346.136L320.157 326.606Z" fill="#EAEAEA"/>
<path d="M366.215 347.085L358.508 359.834L373.924 367.044L381.632 354.295L366.215 347.085Z" fill="#EAEAEA"/>
<path d="M383.347 354.115L373.621 370.202L405.025 384.889L414.751 368.803L383.347 354.115Z" fill="#EAEAEA"/>
<path d="M263.942 3.73775L261.597 23.2186L264.333 27.3439L276.059 25.5104L300.033 1.3313L263.942 3.73775Z" fill="#EAEAEA"/>
<path d="M372.084 4.19604C376.905 9.12354 382.768 20.9266 382.768 20.9266L399.185 23.4477C399.185 23.4477 403.485 5.34197 403.354 5.11279C403.224 4.76901 372.084 4.19604 372.084 4.19604Z" fill="#EAEAEA"/>
<path d="M398.925 34.105L392.41 42.5849L399.316 45.6789L398.925 34.105Z" fill="#EAEAEA"/>
<path d="M384.723 136.551L392.932 170.47C392.932 170.47 402.182 173.564 402.182 173.335C402.182 172.991 406.351 123.487 406.351 122.914C406.351 122.456 400.619 115.237 400.619 115.237L384.723 136.551Z" fill="#EAEAEA"/>
<path d="M387.458 408.71C383.419 415.241 374.039 417.533 366.612 413.981L316.32 389.458C308.893 385.906 306.287 377.655 310.326 371.123C314.365 364.591 323.746 362.299 331.173 365.852L381.465 390.375C388.892 394.042 391.498 402.178 387.458 408.71Z" fill="#EAEAEA"/>
<path d="M21.471 376.853C22.9042 377.426 141.078 436.556 141.078 436.556L150.329 453.057L133.261 497.748C133.261 497.748 16.9108 503.593 15.4776 500.384C14.0444 497.175 0.494104 430.482 0.754686 428.649C0.884977 426.815 21.471 376.853 21.471 376.853Z" fill="#EAEAEA"/>
<path d="M352.671 495.113C352.671 495.113 346.547 490.185 346.417 489.727C346.287 489.269 346.547 483.539 346.547 483.539C346.547 483.539 347.85 470.361 361.661 470.475C364.918 470.475 365.961 471.392 370.521 481.132C371.693 483.653 374.299 485.487 377.296 485.716C379.902 485.945 382.768 485.029 384.592 480.903C385.765 478.382 385.113 475.403 383.029 473.34L371.693 461.881C368.306 458.443 367.785 453.401 370.521 449.619L403.875 402.063L409.738 489.383C409.738 489.383 401.139 504.166 397.1 502.676C393.061 501.072 352.671 495.113 352.671 495.113Z" fill="#EAEAEA"/>
<path d="M208.047 404.928L214.041 403.553L236.711 415.126L226.028 433.003L230.979 435.18L228.764 439.42L198.667 423.835L208.047 404.928Z" fill="#EAEAEA"/>
<path d="M229.546 375.019C229.546 375.019 240.621 346.256 246.745 346.027C246.745 346.027 251.696 346.141 256.386 348.777C260.947 351.413 262.51 356.684 259.904 360.924L253.52 371.352C250.263 376.738 243.357 379.832 236.582 378.686C233.846 378.113 231.37 377.082 229.546 375.019Z" fill="#EAEAEA"/>
<path d="M260.426 323.796L256.126 332.963L267.722 336.745L280.1 328.953L286.744 332.734L296.386 330.328L304.203 321.962L301.988 318.181L260.426 323.796Z" fill="#EAEAEA"/>
<path d="M283.356 297.44L277.493 294.117L332.085 195.223L336.384 194.65L341.987 200.953L332.997 208.057L283.356 297.44Z" fill="#EAEAEA"/>
<path d="M279.447 432.316C282.574 434.608 286.353 436.097 290.131 437.702C292.607 438.733 295.473 439.764 297.948 438.733C300.815 437.587 301.727 434.149 300.554 431.514C299.512 428.878 297.036 426.93 294.561 425.096C290.131 421.659 283.486 417.419 277.362 420.513C271.89 423.034 275.929 429.68 279.447 432.316Z" fill="#EAEAEA"/>
<path d="M305.897 424.294C310.066 425.44 314.626 425.211 319.056 424.523C322.053 424.065 324.919 423.377 327.786 422.575C329.219 422.117 330.652 421.658 331.434 420.512C332.606 418.793 331.303 416.501 329.349 415.47C327.395 414.439 325.049 414.439 322.704 414.439C320.489 414.439 318.014 414.439 316.059 413.522C313.323 412.262 312.02 409.626 309.545 408.136C307.069 406.646 303.551 406.417 300.685 407.105C295.343 408.48 295.213 415.356 297.558 418.908C299.512 421.544 302.639 423.377 305.897 424.294Z" fill="#EAEAEA"/>
<g opacity="0.5">
<path opacity="0.5" d="M9.55957 379.717L53.1892 399.77L66.1267 410.313L65.0256 415.126L45.757 446.295" stroke="#1E2329" stroke-width="0.5206" stroke-miterlimit="10" stroke-linecap="round" stroke-linejoin="round" stroke-dasharray="2.08 2.08"/>
<path opacity="0.5" d="M62.8233 437.013L57.8685 444.462L38.187 448.243L30.6172 456.609L30.0666 466.235L22.6345 478.496L10.1099 489.039" stroke="#1E2329" stroke-width="0.5206" stroke-miterlimit="10" stroke-linecap="round" stroke-linejoin="round" stroke-dasharray="2.08 2.08"/>
<path opacity="0.5" d="M54.0146 496.487L22.6343 478.496" stroke="#1E2329" stroke-width="0.5206" stroke-miterlimit="10" stroke-linecap="round" stroke-linejoin="round" stroke-dasharray="2.08 2.08"/>
<path opacity="0.5" d="M39.9755 470.589L30.0659 466.234" stroke="#1E2329" stroke-width="0.5206" stroke-miterlimit="10" stroke-linecap="round" stroke-linejoin="round" stroke-dasharray="2.08 2.08"/>
<path opacity="0.5" d="M69.2912 475.173L78.9255 460.734L79.6137 454.317L75.0718 450.535L57.8677 444.462" stroke="#1E2329" stroke-width="0.5206" stroke-miterlimit="10" stroke-linecap="round" stroke-linejoin="round" stroke-dasharray="2.08 2.08"/>
<g opacity="0.5">
<path opacity="0.5" d="M317.582 43.8446L314.279 46.2511" stroke="#1E2329" stroke-width="0.5206" stroke-miterlimit="10" stroke-linecap="round" stroke-linejoin="round"/>
<path opacity="0.5" d="M319.509 45.449L316.206 47.97" stroke="#1E2329" stroke-width="0.5206" stroke-miterlimit="10" stroke-linecap="round" stroke-linejoin="round"/>
<path opacity="0.5" d="M321.299 47.1681L317.996 49.5745" stroke="#1E2329" stroke-width="0.5206" stroke-miterlimit="10" stroke-linecap="round" stroke-linejoin="round"/>
<path opacity="0.5" d="M323.225 48.7723L319.922 51.2934" stroke="#1E2329" stroke-width="0.5206" stroke-miterlimit="10" stroke-linecap="round" stroke-linejoin="round"/>
<path opacity="0.5" d="M325.152 50.491L321.849 52.8975" stroke="#1E2329" stroke-width="0.5206" stroke-miterlimit="10" stroke-linecap="round" stroke-linejoin="round"/>
<path opacity="0.5" d="M326.941 52.0957L323.638 54.6167" stroke="#1E2329" stroke-width="0.5206" stroke-miterlimit="10" stroke-linecap="round" stroke-linejoin="round"/>
</g>
<g opacity="0.5">
<path opacity="0.5" d="M350.201 15.9988L346.898 18.4053" stroke="#1E2329" stroke-width="0.5206" stroke-miterlimit="10" stroke-linecap="round" stroke-linejoin="round"/>
<path opacity="0.5" d="M352.127 17.6031L348.824 20.1241" stroke="#1E2329" stroke-width="0.5206" stroke-miterlimit="10" stroke-linecap="round" stroke-linejoin="round"/>
<path opacity="0.5" d="M354.055 19.3222L350.751 21.7287" stroke="#1E2329" stroke-width="0.5206" stroke-miterlimit="10" stroke-linecap="round" stroke-linejoin="round"/>
<path opacity="0.5" d="M355.844 20.9261L352.541 23.4472" stroke="#1E2329" stroke-width="0.5206" stroke-miterlimit="10" stroke-linecap="round" stroke-linejoin="round"/>
<path opacity="0.5" d="M357.771 22.6453L354.467 25.0517" stroke="#1E2329" stroke-width="0.5206" stroke-miterlimit="10" stroke-linecap="round" stroke-linejoin="round"/>
<path opacity="0.5" d="M359.697 24.2499L356.394 26.7709" stroke="#1E2329" stroke-width="0.5206" stroke-miterlimit="10" stroke-linecap="round" stroke-linejoin="round"/>
</g>
<path opacity="0.5" d="M366.166 103.548C365.478 103.089 332.721 87.5047 332.721 87.5047" stroke="#1E2329" stroke-width="0.5206" stroke-miterlimit="10" stroke-linecap="round" stroke-linejoin="round" stroke-dasharray="2.08 2.08"/>
<path opacity="0.5" d="M360.385 26.1976L395.619 49.2308" stroke="#1E2329" stroke-width="0.5206" stroke-miterlimit="10" stroke-linecap="round" stroke-linejoin="round" stroke-dasharray="2.08 2.08"/>
<g opacity="0.5">
<g opacity="0.5">
<g opacity="0.5">
<path opacity="0.5" d="M68.604 84.6399L69.8427 85.2129" stroke="#1E2329" stroke-width="0.5206" stroke-linecap="round" stroke-linejoin="round"/>
<path opacity="0.5" d="M72.3208 86.3589L99.2968 99.0787L127.512 120.737L142.101 128.758L144.716 130.706" stroke="#1E2329" stroke-width="0.5206" stroke-linecap="round" stroke-linejoin="round" stroke-dasharray="2.08 2.08"/>
<path opacity="0.5" d="M145.678 131.508L146.779 132.425" stroke="#1E2329" stroke-width="0.5206" stroke-linecap="round" stroke-linejoin="round"/>
</g>
</g>
<path opacity="0.5" d="M142.926 129.102L197.153 123.831L234.176 153.969L227.432 160.042" stroke="#1E2329" stroke-width="0.5206" stroke-miterlimit="10" stroke-linecap="round" stroke-linejoin="round" stroke-dasharray="2.08 2.08"/>
<path opacity="0.5" d="M336.576 171.501L325.979 163.709L310.151 157.75L266.108 153.396L233.627 153.854" stroke="#1E2329" stroke-width="0.5206" stroke-miterlimit="10" stroke-linecap="round" stroke-linejoin="round" stroke-dasharray="2.08 2.08"/>
<path opacity="0.5" d="M309.737 120.278L311.802 191.555" stroke="#1E2329" stroke-width="0.5206" stroke-miterlimit="10" stroke-linecap="round" stroke-linejoin="round" stroke-dasharray="2.08 2.08"/>
<path opacity="0.5" d="M336.849 139.759L304.643 207.025" stroke="#1E2329" stroke-width="0.5206" stroke-miterlimit="10" stroke-linecap="round" stroke-linejoin="round" stroke-dasharray="2.08 2.08"/>
<path opacity="0.5" d="M299.277 217.912L207.889 377.54" stroke="#1E2329" stroke-width="0.5206" stroke-miterlimit="10" stroke-linecap="round" stroke-linejoin="round" stroke-dasharray="2.08 2.08"/>
<path opacity="0.5" d="M162.194 455.577L157.79 454.432L156.276 443.66L7.35693 372.268" stroke="#1E2329" stroke-width="0.5206" stroke-miterlimit="10" stroke-linecap="round" stroke-linejoin="round" stroke-dasharray="2.08 2.08"/>
<path opacity="0.5" d="M135.631 497.29L157.79 454.432" stroke="#1E2329" stroke-width="0.5206" stroke-miterlimit="10" stroke-linecap="round" stroke-linejoin="round" stroke-dasharray="2.08 2.08"/>
<path opacity="0.5" d="M253.032 495.915C251.931 495.456 173.756 458.557 173.756 458.557" stroke="#1E2329" stroke-width="0.5206" stroke-miterlimit="10" stroke-linecap="round" stroke-linejoin="round" stroke-dasharray="2.08 2.08"/>
<path opacity="0.5" d="M163.434 496.258L180.776 461.536" stroke="#1E2329" stroke-width="0.5206" stroke-miterlimit="10" stroke-linecap="round" stroke-linejoin="round" stroke-dasharray="2.08 2.08"/>
<path opacity="0.5" d="M321.023 495.8C319.372 494.998 250.418 463.256 221.239 449.848C214.22 446.64 211.743 439.191 215.734 433.461L235.416 404.699" stroke="#1E2329" stroke-width="0.5206" stroke-miterlimit="10" stroke-linecap="round" stroke-linejoin="round" stroke-dasharray="2.08 2.08"/>
<path opacity="0.5" d="M8.04552 318.868C8.04552 317.607 159.029 208.63 159.029 208.63C159.029 208.63 109.756 143.082 52.2257 114.663L0.750977 139.186" stroke="#1E2329" stroke-width="0.5206" stroke-miterlimit="10" stroke-linecap="round" stroke-linejoin="round" stroke-dasharray="2.08 2.08"/>
<path opacity="0.5" d="M260.052 46.022L266.383 39.7194L217.11 3.96643" stroke="#1E2329" stroke-width="0.5206" stroke-miterlimit="10" stroke-linecap="round" stroke-linejoin="round" stroke-dasharray="2.08 2.08"/>
<path opacity="0.5" d="M257.85 45.564C257.162 45.4494 212.431 12.6758 212.431 12.6758L209.816 14.3947L195.777 4.19592" stroke="#1E2329" stroke-width="0.5206" stroke-miterlimit="10" stroke-linecap="round" stroke-linejoin="round" stroke-dasharray="2.08 2.08"/>
<path opacity="0.5" d="M191.373 13.5924L180.638 5.11255" stroke="#1E2329" stroke-width="0.5206" stroke-miterlimit="10" stroke-linecap="round" stroke-linejoin="round" stroke-dasharray="2.08 2.08"/>
<path opacity="0.5" d="M240.92 60.4604C240.782 60.1166 229.084 51.9805 229.084 51.9805L200.318 77.3056L225.78 98.849L167.011 147.895" stroke="#1E2329" stroke-width="0.5206" stroke-miterlimit="10" stroke-linecap="round" stroke-linejoin="round" stroke-dasharray="2.08 2.08"/>
<g opacity="0.5">
<path opacity="0.5" d="M296.387 86.1293L297.213 89.7963" stroke="#1E2329" stroke-width="0.5206" stroke-miterlimit="10" stroke-linecap="round" stroke-linejoin="round"/>
<path opacity="0.5" d="M299.14 85.6711L299.828 89.3381" stroke="#1E2329" stroke-width="0.5206" stroke-miterlimit="10" stroke-linecap="round" stroke-linejoin="round"/>
<path opacity="0.5" d="M301.754 85.2126L302.58 88.765" stroke="#1E2329" stroke-width="0.5206" stroke-miterlimit="10" stroke-linecap="round" stroke-linejoin="round"/>
<path opacity="0.5" d="M304.506 84.7541L305.332 88.3065" stroke="#1E2329" stroke-width="0.5206" stroke-miterlimit="10" stroke-linecap="round" stroke-linejoin="round"/>
<path opacity="0.5" d="M307.122 84.2956L307.947 87.848" stroke="#1E2329" stroke-width="0.5206" stroke-miterlimit="10" stroke-linecap="round" stroke-linejoin="round"/>
<path opacity="0.5" d="M309.874 83.8376L310.699 87.39" stroke="#1E2329" stroke-width="0.5206" stroke-miterlimit="10" stroke-linecap="round" stroke-linejoin="round"/>
</g>
<path opacity="0.5" d="M408.695 67.336C408.282 67.336 300.24 56.4496 300.24 56.4496" stroke="#1E2329" stroke-width="0.5206" stroke-miterlimit="10" stroke-linecap="round" stroke-linejoin="round" stroke-dasharray="2.08 2.08"/>
<path opacity="0.5" d="M405.805 87.0463L359.835 62.2943" stroke="#1E2329" stroke-width="0.5206" stroke-miterlimit="10" stroke-linecap="round" stroke-linejoin="round" stroke-dasharray="2.08 2.08"/>
<path opacity="0.5" d="M310.149 85.3275L349.788 125.32" stroke="#1E2329" stroke-width="0.5206" stroke-miterlimit="10" stroke-linecap="round" stroke-linejoin="round" stroke-dasharray="2.08 2.08"/>
<path opacity="0.5" d="M315.38 63.0965C315.793 62.6381 380.48 9.00861 380.48 9.00861L399.198 43.5011L409.108 53.1269" stroke="#1E2329" stroke-width="0.5206" stroke-miterlimit="10" stroke-linecap="round" stroke-linejoin="round" stroke-dasharray="2.08 2.08"/>
<path opacity="0.5" d="M414.751 18.1761C414.338 17.9469 383.233 14.5092 383.233 14.5092" stroke="#1E2329" stroke-width="0.5206" stroke-miterlimit="10" stroke-linecap="round" stroke-linejoin="round" stroke-dasharray="2.08 2.08"/>
<path opacity="0.5" d="M408.007 23.3327L374.424 93.4636" stroke="#1E2329" stroke-width="0.5206" stroke-miterlimit="10" stroke-linecap="round" stroke-linejoin="round" stroke-dasharray="2.08 2.08"/>
<path opacity="0.5" d="M370.157 168.866L395.619 158.667L409.658 145.603" stroke="#1E2329" stroke-width="0.5206" stroke-miterlimit="10" stroke-linecap="round" stroke-linejoin="round" stroke-dasharray="2.08 2.08"/>
<path opacity="0.5" d="M340.566 173.907L343.731 177.116L331.482 206.452L235.689 365.278L189.169 444.118L303.267 499.695" stroke="#1E2329" stroke-width="0.5206" stroke-miterlimit="10" stroke-linecap="round" stroke-linejoin="round" stroke-dasharray="2.08 2.08"/>
<path opacity="0.5" d="M284.55 396.906L331.758 420.168" stroke="#1E2329" stroke-width="0.5206" stroke-miterlimit="10" stroke-linecap="round" stroke-linejoin="round" stroke-dasharray="2.08 2.08"/>
<path opacity="0.5" d="M344.971 402.979L313.453 449.504" stroke="#1E2329" stroke-width="0.5206" stroke-miterlimit="10" stroke-linecap="round" stroke-linejoin="round" stroke-dasharray="2.08 2.08"/>
<path opacity="0.5" d="M301.204 366.768C301.204 366.309 311.113 351.527 311.113 351.527L321.573 346.485L411.035 387.28" stroke="#1E2329" stroke-width="0.5206" stroke-miterlimit="10" stroke-linecap="round" stroke-linejoin="round" stroke-dasharray="2.08 2.08"/>
<path opacity="0.5" d="M317.718 314.629L411.309 357.945" stroke="#1E2329" stroke-width="0.5206" stroke-miterlimit="10" stroke-linecap="round" stroke-linejoin="round" stroke-dasharray="2.08 2.08"/>
<path opacity="0.5" d="M298.588 405.272L293.909 412.606C291.982 415.7 293.083 419.596 296.662 421.429L309.324 428.305C312.765 430.138 313.866 433.92 311.801 436.899L305.47 445.952" stroke="#1E2329" stroke-width="0.5206" stroke-miterlimit="10" stroke-linecap="round" stroke-linejoin="round" stroke-dasharray="2.08 2.08"/>
<path opacity="0.5" d="M73.146 289.647L94.4791 303.971L160.818 332.275" stroke="#1E2329" stroke-width="0.5206" stroke-miterlimit="10" stroke-linecap="round" stroke-linejoin="round" stroke-dasharray="2.08 2.08"/>
<path opacity="0.5" d="M198.529 305.575L166.46 316.806L158.753 341.672" stroke="#1E2329" stroke-width="0.5206" stroke-miterlimit="10" stroke-linecap="round" stroke-linejoin="round" stroke-dasharray="2.08 2.08"/>
<path opacity="0.5" d="M72.3197 345.454C71.3563 344.995 14.9268 333.307 14.9268 333.307" stroke="#1E2329" stroke-width="0.5206" stroke-miterlimit="10" stroke-linecap="round" stroke-linejoin="round" stroke-dasharray="2.08 2.08"/>
<path opacity="0.5" d="M91.8639 273.718L8.18311 337.088" stroke="#1E2329" stroke-width="0.5206" stroke-miterlimit="10" stroke-linecap="round" stroke-linejoin="round" stroke-dasharray="2.08 2.08"/>
<path opacity="0.5" d="M213.395 232.236V238.424L179.124 281.396C179.124 281.396 152.423 272.687 151.322 271.656C150.221 270.624 129.026 248.852 129.026 248.852L114.437 249.768" stroke="#1E2329" stroke-width="0.5206" stroke-miterlimit="10" stroke-linecap="round" stroke-linejoin="round" stroke-dasharray="2.08 2.08"/>
<path opacity="0.5" d="M191.235 280.479L186.693 293.772" stroke="#1E2329" stroke-width="0.5206" stroke-miterlimit="10" stroke-linecap="round" stroke-linejoin="round" stroke-dasharray="2.08 2.08"/>
<path opacity="0.5" d="M179.122 281.396L189.307 284.49" stroke="#1E2329" stroke-width="0.5206" stroke-miterlimit="10" stroke-linecap="round" stroke-linejoin="round" stroke-dasharray="2.08 2.08"/>
<path opacity="0.5" d="M230.46 297.898L250.83 301.565" stroke="#1E2329" stroke-width="0.5206" stroke-miterlimit="10" stroke-linecap="round" stroke-linejoin="round" stroke-dasharray="2.08 2.08"/>
<path opacity="0.5" d="M260.74 243.236L218.211 236.017L212.843 255.956" stroke="#1E2329" stroke-width="0.5206" stroke-miterlimit="10" stroke-linecap="round" stroke-linejoin="round" stroke-dasharray="2.08 2.08"/>
<path opacity="0.5" d="M162.193 274.864C162.193 274.864 207.199 242.893 206.786 242.434C206.374 241.976 170.727 209.546 170.727 209.546" stroke="#1E2329" stroke-width="0.5206" stroke-miterlimit="10" stroke-linecap="round" stroke-linejoin="round" stroke-dasharray="2.08 2.08"/>
<path opacity="0.5" d="M166.736 220.203L175.545 214.13" stroke="#1E2329" stroke-width="0.5206" stroke-miterlimit="10" stroke-linecap="round" stroke-linejoin="round" stroke-dasharray="2.08 2.08"/>
<path opacity="0.5" d="M96.1307 152.021L10.6606 211.953" stroke="#1E2329" stroke-width="0.5206" stroke-miterlimit="10" stroke-linecap="round" stroke-linejoin="round" stroke-dasharray="2.08 2.08"/>
<path opacity="0.5" d="M28.8281 198.545L36.5356 207.254L45.4817 201.066L97.3693 252.977" stroke="#1E2329" stroke-width="0.5206" stroke-miterlimit="10" stroke-linecap="round" stroke-linejoin="round" stroke-dasharray="2.08 2.08"/>
<path opacity="0.5" d="M335.749 266.843L303.268 253.55" stroke="#1E2329" stroke-width="0.5206" stroke-miterlimit="10" stroke-linecap="round" stroke-linejoin="round" stroke-dasharray="2.08 2.08"/>
<path opacity="0.5" d="M349.65 213.786L363.827 203.931L361.762 199.806L374.149 191.097L367.818 186.513L380.755 177.46" stroke="#1E2329" stroke-width="0.5206" stroke-miterlimit="10" stroke-linecap="round" stroke-linejoin="round" stroke-dasharray="2.08 2.08"/>
<path opacity="0.5" d="M181.188 378.227L203.76 383.499L192.336 394.156L171.691 427.617L165.222 428.992L8.4585 357.486" stroke="#1E2329" stroke-width="0.5206" stroke-miterlimit="10" stroke-linecap="round" stroke-linejoin="round" stroke-dasharray="2.08 2.08"/>
<g opacity="0.5">
<path opacity="0.5" d="M155.451 440.107L159.304 441.94" stroke="#1E2329" stroke-width="0.5206" stroke-miterlimit="10" stroke-linecap="round" stroke-linejoin="round"/>
<path opacity="0.5" d="M156.688 438.045L160.542 439.878" stroke="#1E2329" stroke-width="0.5206" stroke-miterlimit="10" stroke-linecap="round" stroke-linejoin="round"/>
<path opacity="0.5" d="M157.927 436.096L161.78 437.815" stroke="#1E2329" stroke-width="0.5206" stroke-miterlimit="10" stroke-linecap="round" stroke-linejoin="round"/>
<path opacity="0.5" d="M159.304 434.034L163.157 435.868" stroke="#1E2329" stroke-width="0.5206" stroke-miterlimit="10" stroke-linecap="round" stroke-linejoin="round"/>
<path opacity="0.5" d="M160.543 431.971L164.397 433.805" stroke="#1E2329" stroke-width="0.5206" stroke-miterlimit="10" stroke-linecap="round" stroke-linejoin="round"/>
<path opacity="0.5" d="M161.781 430.023L165.635 431.742" stroke="#1E2329" stroke-width="0.5206" stroke-miterlimit="10" stroke-linecap="round" stroke-linejoin="round"/>
</g>
<g opacity="0.5">
<path opacity="0.5" d="M174.168 427.731L170.728 430.023" stroke="#1E2329" stroke-width="0.5206" stroke-miterlimit="10" stroke-linecap="round" stroke-linejoin="round"/>
<path opacity="0.5" d="M175.956 429.45L172.516 431.742" stroke="#1E2329" stroke-width="0.5206" stroke-miterlimit="10" stroke-linecap="round" stroke-linejoin="round"/>
<path opacity="0.5" d="M177.747 431.284L174.168 433.461" stroke="#1E2329" stroke-width="0.5206" stroke-miterlimit="10" stroke-linecap="round" stroke-linejoin="round"/>
<path opacity="0.5" d="M179.397 433.003L175.957 435.295" stroke="#1E2329" stroke-width="0.5206" stroke-miterlimit="10" stroke-linecap="round" stroke-linejoin="round"/>
<path opacity="0.5" d="M181.187 434.837L177.608 437.014" stroke="#1E2329" stroke-width="0.5206" stroke-miterlimit="10" stroke-linecap="round" stroke-linejoin="round"/>
<path opacity="0.5" d="M182.976 436.555L179.398 438.847" stroke="#1E2329" stroke-width="0.5206" stroke-miterlimit="10" stroke-linecap="round" stroke-linejoin="round"/>
</g>
<g opacity="0.5">
<path opacity="0.5" d="M180.912 458.099L184.903 459.703" stroke="#1E2329" stroke-width="0.5206" stroke-miterlimit="10" stroke-linecap="round" stroke-linejoin="round"/>
<path opacity="0.5" d="M182.014 456.036L186.006 457.64" stroke="#1E2329" stroke-width="0.5206" stroke-miterlimit="10" stroke-linecap="round" stroke-linejoin="round"/>
<path opacity="0.5" d="M183.114 453.973L187.106 455.578" stroke="#1E2329" stroke-width="0.5206" stroke-miterlimit="10" stroke-linecap="round" stroke-linejoin="round"/>
<path opacity="0.5" d="M184.354 451.911L188.345 453.515" stroke="#1E2329" stroke-width="0.5206" stroke-miterlimit="10" stroke-linecap="round" stroke-linejoin="round"/>
<path opacity="0.5" d="M185.454 449.733L189.445 451.452" stroke="#1E2329" stroke-width="0.5206" stroke-miterlimit="10" stroke-linecap="round" stroke-linejoin="round"/>
<path opacity="0.5" d="M186.554 447.671L190.546 449.39" stroke="#1E2329" stroke-width="0.5206" stroke-miterlimit="10" stroke-linecap="round" stroke-linejoin="round"/>
</g>
<g opacity="0.5">
<path opacity="0.5" d="M311.664 337.089L315.517 338.693" stroke="#1E2329" stroke-width="0.5206" stroke-miterlimit="10" stroke-linecap="round" stroke-linejoin="round"/>
<path opacity="0.5" d="M312.766 335.025L316.757 336.63" stroke="#1E2329" stroke-width="0.5206" stroke-miterlimit="10" stroke-linecap="round" stroke-linejoin="round"/>
<path opacity="0.5" d="M313.866 332.848L317.858 334.567" stroke="#1E2329" stroke-width="0.5206" stroke-miterlimit="10" stroke-linecap="round" stroke-linejoin="round"/>
<path opacity="0.5" d="M315.105 330.786L318.959 332.505" stroke="#1E2329" stroke-width="0.5206" stroke-miterlimit="10" stroke-linecap="round" stroke-linejoin="round"/>
<path opacity="0.5" d="M316.206 328.723L320.197 330.442" stroke="#1E2329" stroke-width="0.5206" stroke-miterlimit="10" stroke-linecap="round" stroke-linejoin="round"/>
<path opacity="0.5" d="M317.307 326.66L321.299 328.265" stroke="#1E2329" stroke-width="0.5206" stroke-miterlimit="10" stroke-linecap="round" stroke-linejoin="round"/>
</g>
<g opacity="0.5">
<path opacity="0.5" d="M297.211 216.995L301.203 218.714" stroke="#1E2329" stroke-width="0.5206" stroke-miterlimit="10" stroke-linecap="round" stroke-linejoin="round"/>
<path opacity="0.5" d="M298.312 214.932L302.304 216.651" stroke="#1E2329" stroke-width="0.5206" stroke-miterlimit="10" stroke-linecap="round" stroke-linejoin="round"/>
<path opacity="0.5" d="M299.552 212.869L303.543 214.474" stroke="#1E2329" stroke-width="0.5206" stroke-miterlimit="10" stroke-linecap="round" stroke-linejoin="round"/>
<path opacity="0.5" d="M300.652 210.807L304.643 212.411" stroke="#1E2329" stroke-width="0.5206" stroke-miterlimit="10" stroke-linecap="round" stroke-linejoin="round"/>
<path opacity="0.5" d="M301.753 208.744L305.744 210.348" stroke="#1E2329" stroke-width="0.5206" stroke-miterlimit="10" stroke-linecap="round" stroke-linejoin="round"/>
<path opacity="0.5" d="M302.992 206.681L306.983 208.286" stroke="#1E2329" stroke-width="0.5206" stroke-miterlimit="10" stroke-linecap="round" stroke-linejoin="round"/>
</g>
<path opacity="0.5" d="M8.3208 29.0624L63.7869 71.691L57.8687 77.0768" stroke="#1E2329" stroke-width="0.5206" stroke-miterlimit="10" stroke-linecap="round" stroke-linejoin="round" stroke-dasharray="2.08 2.08"/>
<path opacity="0.5" d="M262.252 322.764L302.992 317.264L323.499 321.962L410.345 359.892" stroke="#1E2329" stroke-width="0.5206" stroke-miterlimit="10" stroke-linecap="round" stroke-linejoin="round" stroke-dasharray="2.08 2.08"/>
<path opacity="0.5" d="M297.899 394.843C297.899 394.729 298.45 393.812 299.276 392.666C302.441 388.312 309.323 386.707 314.691 389.228L372.359 416.272C377.864 418.908 379.791 424.638 376.625 429.221L374.01 433.232" stroke="#1E2329" stroke-width="0.5206" stroke-miterlimit="10" stroke-linecap="round" stroke-linejoin="round" stroke-dasharray="2.08 2.08"/>
</g>
<path opacity="0.5" d="M395.896 408.709C391.629 415.241 381.719 417.533 373.874 413.98L320.748 389.457C312.903 385.905 310.15 377.654 314.417 371.123C318.684 364.591 328.593 362.299 336.438 365.851L389.564 390.374C397.41 394.041 400.162 402.177 395.896 408.709Z" stroke="#1E2329" stroke-width="0.5543" stroke-miterlimit="10" stroke-linecap="round" stroke-linejoin="round" stroke-dasharray="2.22 2.22"/>
</g>
<path d="M221.685 98.9639C220.862 99.6515 220.862 100.797 221.822 101.485L256.948 129.216L261.887 161.99L251.871 199.462L216.745 168.751L225.115 161.875C225.938 161.188 225.938 160.042 225.115 159.354C224.292 158.667 222.92 158.667 222.097 159.354L199.32 178.033L149.788 134.602C148.964 133.915 147.592 133.915 146.769 134.488C145.946 135.175 145.946 136.321 146.632 137.009L196.713 180.898L192.871 187.773L153.767 216.88L120.15 183.648C120.013 183.534 120.013 183.419 119.876 183.19C119.739 183.075 119.602 182.961 119.327 182.846L94.6295 158.438C94.2179 158.094 93.6691 157.865 93.1202 157.75C92.5714 157.75 92.0226 157.865 91.611 158.208L48.6646 189.149C45.646 191.326 45.2343 194.993 47.7041 197.514L64.1692 214.932C66.6389 217.568 71.0296 218.026 74.3226 215.963L117.818 186.742L150.474 219.172L52.918 291.709L41.8041 280.135L73.3622 257.561C78.1645 254.123 78.8505 248.164 74.8715 243.924L43.1762 210.921C42.7646 210.577 42.3529 210.348 41.8041 210.234L22.4576 208.286C21.36 208.171 20.2623 208.859 20.1251 209.89C19.9879 210.921 20.8111 211.723 22.046 211.838L40.5692 213.671L49.8994 223.297L13.9507 249.654C11.7553 251.258 11.4809 254.123 13.2646 256.071L50.1738 294.345L5.30653 327.691C4.48327 328.379 4.34606 329.525 5.16931 330.213C5.58094 330.556 6.12978 330.786 6.81582 330.786C7.36466 330.786 7.77628 330.671 8.18791 330.327L84.8877 273.26L194.929 306.492L191.911 318.868C191.636 319.785 192.46 320.816 193.557 320.931C193.694 320.931 193.832 320.931 193.969 320.931C194.929 320.931 195.89 320.358 196.027 319.555L211.532 256.988C211.806 256.071 210.983 255.04 209.885 254.925C208.787 254.696 207.552 255.383 207.415 256.3L195.753 302.939L88.4551 270.51L99.7063 262.144C101.353 264.207 105.332 268.103 112.192 268.103C112.467 268.103 112.604 268.103 112.878 268.103C113.29 268.103 113.839 267.989 114.113 267.645L121.66 262.488C122.62 261.915 122.757 260.769 121.934 259.967C121.248 259.165 119.876 259.05 118.916 259.738L111.918 264.551C106.567 264.436 103.685 260.998 102.862 259.852L173.113 207.598L197.673 230.975C199.732 232.923 202.75 233.954 205.769 233.954C208.239 233.954 210.708 233.267 212.766 231.777L222.097 225.016C224.292 223.412 225.664 221.235 225.801 218.828C225.938 216.422 224.978 214.015 223.057 212.296L197.399 188.805L201.241 181.815L213.864 171.501L250.911 203.931L242.129 236.934C241.855 237.851 242.541 238.882 243.776 239.111C243.913 239.111 244.05 239.111 244.187 239.111C245.148 239.111 246.108 238.538 246.245 237.736L266.141 162.792C266.141 162.563 266.141 162.334 266.141 162.219L261.064 128.529C261.064 128.071 260.79 127.727 260.378 127.498L224.566 99.3077C223.88 98.1618 222.508 98.2764 221.685 98.9639ZM71.8529 213.442C70.4808 214.244 68.6971 214.015 67.7366 212.984L51.2715 195.566C50.3111 194.534 50.4483 192.93 51.6831 192.128L92.983 162.334L115.211 184.336L71.8529 213.442ZM16.4204 253.779C16.0088 253.321 16.0088 252.748 16.5577 252.289L52.3692 226.048L71.8529 246.445C74.3226 249.081 73.911 252.862 70.8924 255.04L39.3343 277.5L16.4204 253.779ZM219.901 214.588C221.136 215.62 221.685 217.109 221.548 218.484C221.411 219.974 220.587 221.235 219.352 222.266L210.022 229.027C207.415 230.975 203.299 230.746 200.966 228.454L176.406 205.077L194.792 191.44L219.901 214.588Z" fill="white" stroke="#FDECDD" stroke-width="0.5206" stroke-miterlimit="10"/>
<path d="M412.817 285.636L391.001 285.178L391.412 260.196L406.368 265.353C407.466 265.697 408.701 265.238 409.249 264.436C409.661 263.52 409.112 262.488 408.152 262.144L391.001 256.186C390.726 256.071 390.589 256.071 390.315 256.071C390.315 256.071 390.315 256.071 390.177 256.071H388.668L340.782 254.696C339.959 254.696 339.273 255.04 338.861 255.613L322.808 280.021C322.671 280.25 322.533 280.479 322.533 280.823L320.75 311.763L311.008 312.565L267.787 294.23L342.291 162.449L370.694 173.679L387.022 188.347L349.838 213.672C348.877 214.245 348.74 215.391 349.563 216.193C349.975 216.651 350.661 216.88 351.21 216.88C351.622 216.88 352.17 216.766 352.582 216.422L363.284 209.202L388.531 226.85C388.942 227.079 389.354 227.308 389.903 227.308C390.452 227.308 391.138 227.079 391.549 226.621C392.373 225.818 392.235 224.787 391.275 224.1L366.577 206.796L375.77 200.493L403.349 225.131C403.761 225.475 404.31 225.704 404.859 225.704C405.408 225.704 405.956 225.589 406.368 225.245C407.191 224.558 407.328 223.412 406.505 222.724L379.063 198.316L406.78 179.408C407.74 178.835 407.877 177.689 407.054 176.887C406.368 176.085 404.996 175.971 404.035 176.658L390.177 186.055L373.438 171.043C373.301 170.928 373.026 170.699 372.752 170.699L343.938 159.355L345.584 156.375C348.329 151.448 346.819 145.603 341.88 142.051L339.41 140.218L370.694 96.7868C371.242 95.9846 370.968 94.8387 370.008 94.3803C369.047 93.922 367.675 94.1512 367.126 94.9533L336.254 137.811L296.464 109.392C294.954 108.361 292.759 108.475 291.387 109.736C290.152 110.996 290.289 112.83 291.799 113.976L337.352 146.52C339.822 148.354 340.645 151.218 339.136 153.74L261.064 291.709L259.417 294.689L173.662 446.181L159.803 434.263C159.529 434.034 159.255 433.919 158.98 433.69L131.127 420.741C131.676 420.626 132.087 420.283 132.362 419.824L137.027 412.147C137.164 412.032 137.164 411.917 137.164 411.803L157.334 343.964C157.471 343.505 157.334 343.047 157.059 342.589C156.785 342.13 156.236 341.901 155.687 341.787L90.7874 329.181C89.6897 328.952 88.4549 329.525 88.1804 330.556C87.906 331.473 88.5921 332.505 89.8269 332.734L152.669 344.881L133.048 410.771L128.52 418.335C128.245 418.793 128.245 419.137 128.383 419.595L78.1642 396.333L97.3734 365.164C98.8827 362.872 99.0199 360.121 98.0595 357.6C96.9618 355.079 94.9037 353.131 92.0223 351.985L72.6758 344.651C71.5782 344.193 70.3433 344.651 69.7944 345.568C69.2456 346.485 69.7944 347.516 70.8921 347.975L90.2386 355.309C92.0223 355.996 93.3944 357.257 94.0804 358.746C94.7665 360.351 94.6293 361.955 93.6688 363.445L74.4595 394.614L5.99229 362.757C4.20857 361.955 2.15044 362.528 1.18997 363.903C0.22951 365.393 0.915555 367.112 2.56206 367.914L155.001 438.732L170.231 451.796L170.369 451.91L144.711 497.289C143.887 498.779 144.573 500.612 146.357 501.3C146.906 501.529 147.318 501.644 147.866 501.644C149.238 501.644 150.473 500.956 151.159 499.925L174.348 459.015L271.08 503.821C271.629 504.05 272.178 504.165 272.864 504.165C274.099 504.165 275.333 503.592 276.019 502.675C276.98 501.185 276.294 499.466 274.647 498.664L177.503 453.629L243.775 336.401L270.12 347.516L232.387 401.719C231.838 402.521 232.113 403.667 233.21 404.125C233.485 404.24 233.896 404.354 234.308 404.354C234.994 404.354 235.817 404.01 236.229 403.438L253.243 379.029L280.41 392.093L261.613 420.626C259.417 423.95 260.789 428.075 264.631 430.023L311.831 454.431C313.203 455.119 314.712 455.463 316.359 455.463C317.045 455.463 317.868 455.348 318.554 455.234C320.75 454.775 322.671 453.4 323.768 451.796L342.977 422.002L365.205 432.659C367.401 433.69 368.91 435.409 369.459 437.357C370.008 439.42 369.733 441.482 368.361 443.201L346.819 471.964C346.682 472.079 346.682 472.193 346.545 472.308L336.529 496.487C336.117 497.404 336.803 498.435 337.901 498.779C338.175 498.893 338.312 498.893 338.587 498.893C339.41 498.893 340.37 498.435 340.645 497.633L350.524 473.683L371.929 445.149C373.849 442.514 374.398 439.534 373.575 436.555C372.752 433.575 370.419 431.169 367.263 429.565L286.173 390.603L299.894 369.747C300.443 368.83 300.031 367.799 299.071 367.341C297.973 366.882 296.738 367.226 296.189 368.028L282.468 388.77L255.301 375.706L275.059 347.402C275.333 346.943 275.471 346.485 275.196 346.026C275.059 345.568 274.647 345.11 274.099 344.881L245.696 332.963L265.729 297.439L309.361 315.889C309.636 316.003 310.047 316.118 310.322 316.118C310.459 316.118 310.459 316.118 310.596 316.118L322.808 315.086L403.761 317.493H403.898C404.996 317.493 405.956 316.691 406.094 315.774C406.094 314.743 405.27 313.94 404.035 313.94L325.003 311.534L326.65 281.281L341.88 258.248L387.159 259.509L386.747 285.063L372.615 284.834C371.517 284.834 370.419 285.636 370.419 286.553C370.419 287.584 371.38 288.386 372.477 288.386L387.845 288.73H389.491L412.542 289.188C413.64 289.188 414.6 288.386 414.738 287.469C414.875 286.438 413.914 285.636 412.817 285.636ZM284.252 393.697L339.273 420.168L320.064 450.077C319.515 450.994 318.554 451.567 317.457 451.796C316.359 452.025 315.124 451.91 314.164 451.337L266.964 426.929C265.043 425.898 264.357 423.95 265.454 422.231L284.252 393.697Z" fill="white" stroke="#FDECDD" stroke-width="0.5206" stroke-miterlimit="10"/>
<path d="M288.643 109.048C289.054 109.392 289.603 109.507 290.152 109.507C290.701 109.507 291.25 109.277 291.661 108.934C292.484 108.246 292.484 107.1 291.524 106.413L237.464 63.3256L254.752 47.8555L283.429 67.3363C284.252 67.9093 285.487 67.9093 286.31 67.2217L359.442 3.9664C360.266 3.27884 360.266 2.13291 359.442 1.44536C358.619 0.757798 357.247 0.757798 356.424 1.44536L284.801 63.6693L255.987 44.1885C255.164 43.6156 253.792 43.6156 253.105 44.3031L233.073 62.2942C232.25 62.9818 232.25 64.1277 233.21 64.8153L288.643 109.048Z" fill="white" stroke="#FDECDD" stroke-width="0.5206" stroke-miterlimit="10"/>
<path d="M191.087 10.3838L71.4408 118.445C70.6175 119.133 70.7548 120.278 71.578 120.966C71.9896 121.31 72.5385 121.424 73.0873 121.424C73.6361 121.424 74.185 121.195 74.5966 120.851L194.243 12.7903L217.157 29.9792C220.724 32.7294 221.136 37.3132 218.117 40.5218L210.159 48.5433C209.473 49.3454 209.473 50.3768 210.433 51.0643C210.845 51.2935 211.257 51.5227 211.806 51.5227C212.354 51.5227 213.04 51.2935 213.452 50.8351L221.41 42.8136C225.938 38.2299 225.389 31.3543 220.038 27.3436L185.736 1.56014C184.913 0.872584 183.54 0.987177 182.717 1.67474C181.894 2.36229 182.031 3.50822 182.854 4.19578L191.087 10.3838Z" fill="white" stroke="#FDECDD" stroke-width="0.5206" stroke-miterlimit="10"/>
<path d="M49.2123 59.315C49.7611 59.315 50.31 59.0858 50.8588 58.742L111.094 4.08119C111.917 3.39363 111.78 2.2477 110.956 1.56014C110.133 0.872584 108.761 0.987177 107.938 1.67474L47.703 56.3356C46.8798 57.0231 47.017 58.1691 47.8402 58.8566C48.2518 59.2004 48.6635 59.315 49.2123 59.315Z" fill="white" stroke="#FDECDD" stroke-width="0.5206" stroke-miterlimit="10"/>
<path d="M22.1838 113.288L4.75822 122.685C3.79776 123.257 3.52334 124.289 4.07218 125.206C4.48381 125.779 5.16985 126.008 5.85589 126.008C6.26752 126.008 6.67915 125.893 6.95356 125.779L26.0256 115.465L42.3535 113.173L63.072 141.363C64.8557 143.884 63.8953 147.322 60.8767 148.926L6.40473 177.231C5.44427 177.804 5.03264 178.835 5.71869 179.752C6.13031 180.325 6.81636 180.554 7.5024 180.554C7.91403 180.554 8.32565 180.439 8.60007 180.325L63.072 152.02C68.1487 149.385 69.658 143.884 66.6394 139.644L46.3325 111.225L71.4418 90.4839C72.265 89.7963 72.265 88.6504 71.4418 87.9628L56.7604 75.243C55.9372 74.5555 54.5651 74.5555 53.7418 75.243C52.9185 75.9306 52.9185 77.0765 53.7418 77.7641L67.0511 89.338L43.3139 108.933C43.0395 108.933 42.6279 109.048 42.3535 109.163C42.0791 109.277 41.8046 109.506 41.6674 109.736L26.4372 111.798L4.89543 92.3174C4.07218 91.6298 2.70009 91.5152 1.87684 92.2028C1.05358 92.8903 0.916372 94.0363 1.73963 94.7238L22.1838 113.288Z" fill="white" stroke="#FDECDD" stroke-width="0.5206" stroke-miterlimit="10"/>
<path d="M267.819 66.0758L275.27 105.037" stroke="white" stroke-width="3.1236" stroke-miterlimit="10" stroke-linecap="round" stroke-linejoin="round"/>
<path d="M78.2323 225.24L69.7759 230.793L76.9797 238.006L85.4362 232.453L78.2323 225.24Z" fill="#FAC08E"/>
<path d="M98.8965 227.268L90.8101 233.172L98.4695 240.069L106.556 234.166L98.8965 227.268Z" fill="#FAC08E"/>
<path d="M120.952 199.884L110.765 207.321L116.06 212.09L126.247 204.652L120.952 199.884Z" fill="#FAC08E"/>
<path d="M320.204 314.284L407.402 354.162V316.002L325.433 313.252L320.204 314.284Z" fill="#FAC08E"/>
<path d="M359.21 221.12L363.309 216.88L392.846 232.121C392.846 232.121 394.966 228.225 395.531 228.339C396.096 228.454 414.751 237.048 414.751 237.048L411.784 246.445L359.21 221.12Z" fill="#FAC08E"/>
<path d="M379.279 170.813L384.084 166.802L391.715 172.99L386.769 177.001L379.279 170.813Z" fill="#FAC08E"/>
<path d="M349.6 260.654L349.176 277.499L363.168 278.187L362.461 293.313L328.684 292.969L327.554 309.127L410.936 312.221L407.968 294.459L373.908 293.771L374.615 278.301L389.737 278.76L389.878 261.227L349.6 260.654Z" fill="#FAC08E"/>
<path d="M273.001 334.452L279.644 337.775L284.166 331.931L277.665 328.951L273.001 334.452Z" fill="#FAC08E"/>
<path d="M302.115 322.076L296.462 330.441L302.115 333.192L307.627 324.826L302.115 322.076Z" fill="#FAC08E"/>
<path d="M73.3091 311.648L83.2019 321.045L88.9962 316.69L79.2448 307.752L73.3091 311.648Z" fill="#FAC08E"/>
<path d="M220.854 226.734L225.093 229.484L234.138 222.609L229.474 219.286L220.854 226.734Z" fill="#FAC08E"/>
<path d="M333.631 210.118L364.722 188.002L369.528 191.44L357.798 199.461L359.776 203.128L344.372 213.9L333.631 210.118Z" fill="#FAC08E"/>
<path d="M311.022 226.263H311.829V231.213H314.89V231.916H311.022V226.263ZM318.265 231.981C317.695 231.981 317.181 231.857 316.723 231.609C316.266 231.356 315.905 231.009 315.641 230.567C315.383 230.126 315.253 229.633 315.253 229.09C315.253 228.546 315.383 228.053 315.641 227.612C315.905 227.171 316.266 226.826 316.723 226.578C317.181 226.325 317.695 226.199 318.265 226.199C318.831 226.199 319.342 226.325 319.8 226.578C320.257 226.826 320.615 227.171 320.874 227.612C321.132 228.048 321.261 228.541 321.261 229.09C321.261 229.639 321.132 230.134 320.874 230.576C320.615 231.012 320.257 231.356 319.8 231.609C319.342 231.857 318.831 231.981 318.265 231.981ZM318.265 231.262C318.68 231.262 319.051 231.168 319.38 230.979C319.714 230.791 319.975 230.532 320.163 230.204C320.357 229.87 320.454 229.499 320.454 229.09C320.454 228.681 320.357 228.312 320.163 227.983C319.975 227.65 319.714 227.389 319.38 227.2C319.051 227.012 318.68 226.918 318.265 226.918C317.851 226.918 317.474 227.012 317.135 227.2C316.801 227.389 316.537 227.65 316.344 227.983C316.155 228.312 316.061 228.681 316.061 229.09C316.061 229.499 316.155 229.87 316.344 230.204C316.537 230.532 316.801 230.791 317.135 230.979C317.474 231.168 317.851 231.262 318.265 231.262ZM330.3 226.263L328.411 231.916H327.563L326.021 227.402L324.478 231.916H323.614L321.725 226.263H322.556L324.083 230.858L325.673 226.263H326.416L327.975 230.882L329.533 226.263H330.3ZM335.39 231.213V231.916H331.288V226.263H335.277V226.966H332.096V228.702H334.93V229.388H332.096V231.213H335.39ZM340.477 231.916L339.257 230.18C339.107 230.191 338.988 230.196 338.902 230.196H337.505V231.916H336.698V226.263H338.902C339.634 226.263 340.21 226.438 340.63 226.788C341.05 227.138 341.26 227.62 341.26 228.234C341.26 228.67 341.152 229.041 340.937 229.348C340.722 229.655 340.415 229.878 340.017 230.018L341.357 231.916H340.477ZM338.878 229.51C339.389 229.51 339.78 229.399 340.049 229.179C340.318 228.958 340.453 228.643 340.453 228.234C340.453 227.825 340.318 227.512 340.049 227.297C339.78 227.076 339.389 226.966 338.878 226.966H337.505V229.51H338.878ZM347.474 226.263L344.995 231.916H344.196L341.709 226.263H342.581L344.616 230.907L346.667 226.263H347.474ZM351.615 230.503H348.611L347.989 231.916H347.158L349.718 226.263H350.517L353.085 231.916H352.237L351.615 230.503ZM351.333 229.857L350.113 227.087L348.894 229.857H351.333ZM353.928 226.263H354.736V231.916H353.928V226.263ZM356.428 226.263H357.235V231.213H360.296V231.916H356.428V226.263ZM362.814 231.981C362.389 231.981 361.977 231.916 361.579 231.787C361.186 231.652 360.876 231.48 360.65 231.27L360.949 230.64C361.164 230.834 361.439 230.993 361.773 231.117C362.112 231.235 362.459 231.294 362.814 231.294C363.283 231.294 363.633 231.216 363.864 231.06C364.096 230.899 364.211 230.686 364.211 230.422C364.211 230.228 364.147 230.072 364.018 229.954C363.894 229.83 363.738 229.736 363.549 229.671C363.366 229.607 363.105 229.534 362.766 229.453C362.341 229.351 361.996 229.249 361.732 229.146C361.474 229.044 361.251 228.888 361.062 228.678C360.879 228.463 360.788 228.175 360.788 227.814C360.788 227.512 360.866 227.241 361.022 226.998C361.183 226.756 361.426 226.562 361.749 226.417C362.072 226.272 362.473 226.199 362.952 226.199C363.285 226.199 363.614 226.242 363.937 226.328C364.26 226.414 364.537 226.538 364.769 226.7L364.502 227.346C364.265 227.195 364.012 227.082 363.743 227.006C363.474 226.926 363.21 226.885 362.952 226.885C362.494 226.885 362.15 226.969 361.918 227.136C361.692 227.302 361.579 227.518 361.579 227.782C361.579 227.975 361.644 228.134 361.773 228.258C361.902 228.376 362.061 228.471 362.249 228.541C362.443 228.605 362.704 228.675 363.032 228.751C363.458 228.853 363.8 228.955 364.058 229.057C364.316 229.16 364.537 229.316 364.72 229.526C364.909 229.736 365.003 230.018 365.003 230.374C365.003 230.67 364.922 230.942 364.761 231.189C364.599 231.431 364.354 231.625 364.026 231.771C363.697 231.911 363.294 231.981 362.814 231.981ZM369.986 228.985C370.314 229.076 370.573 229.243 370.761 229.485C370.949 229.722 371.044 230.024 371.044 230.39C371.044 230.88 370.858 231.256 370.486 231.52C370.12 231.784 369.585 231.916 368.88 231.916H366.182V226.263H368.718C369.364 226.263 369.862 226.393 370.212 226.651C370.567 226.909 370.745 227.267 370.745 227.725C370.745 228.021 370.675 228.277 370.535 228.492C370.4 228.707 370.217 228.872 369.986 228.985ZM366.99 226.918V228.726H368.645C369.06 228.726 369.377 228.651 369.598 228.5C369.824 228.344 369.937 228.118 369.937 227.822C369.937 227.526 369.824 227.302 369.598 227.152C369.377 226.996 369.06 226.918 368.645 226.918H366.99ZM368.847 231.262C369.305 231.262 369.649 231.187 369.881 231.036C370.112 230.885 370.228 230.648 370.228 230.325C370.228 229.695 369.768 229.38 368.847 229.38H366.99V231.262H368.847ZM374.636 231.981C373.882 231.981 373.295 231.765 372.875 231.335C372.455 230.904 372.245 230.285 372.245 229.477V226.263H373.053V229.445C373.053 230.656 373.583 231.262 374.644 231.262C375.161 231.262 375.556 231.114 375.831 230.818C376.105 230.516 376.243 230.059 376.243 229.445V226.263H377.026V229.477C377.026 230.29 376.816 230.912 376.396 231.343C375.976 231.768 375.389 231.981 374.636 231.981ZM382.46 231.916L381.241 230.18C381.09 230.191 380.972 230.196 380.886 230.196H379.489V231.916H378.681V226.263H380.886C381.618 226.263 382.194 226.438 382.614 226.788C383.034 227.138 383.244 227.62 383.244 228.234C383.244 228.67 383.136 229.041 382.921 229.348C382.705 229.655 382.399 229.878 382 230.018L383.341 231.916H382.46ZM380.862 229.51C381.373 229.51 381.763 229.399 382.032 229.179C382.302 228.958 382.436 228.643 382.436 228.234C382.436 227.825 382.302 227.512 382.032 227.297C381.763 227.076 381.373 226.966 380.862 226.966H379.489V229.51H380.862ZM388.465 229.057H389.24V231.262C388.96 231.493 388.634 231.671 388.263 231.795C387.891 231.919 387.504 231.981 387.1 231.981C386.529 231.981 386.015 231.857 385.558 231.609C385.1 231.356 384.739 231.012 384.476 230.576C384.217 230.134 384.088 229.639 384.088 229.09C384.088 228.541 384.217 228.045 384.476 227.604C384.739 227.162 385.1 226.818 385.558 226.57C386.021 226.323 386.54 226.199 387.116 226.199C387.568 226.199 387.978 226.274 388.344 226.425C388.715 226.57 389.03 226.786 389.288 227.071L388.788 227.572C388.336 227.136 387.789 226.918 387.149 226.918C386.718 226.918 386.33 227.012 385.986 227.2C385.647 227.383 385.38 227.642 385.186 227.975C384.992 228.304 384.896 228.675 384.896 229.09C384.896 229.499 384.992 229.87 385.186 230.204C385.38 230.532 385.647 230.791 385.986 230.979C386.33 231.168 386.715 231.262 387.14 231.262C387.646 231.262 388.088 231.141 388.465 230.899V229.057Z" fill="#606161"/>
<path d="M154.029 344.555C153.604 344.555 153.192 344.491 152.793 344.361C152.4 344.227 152.091 344.054 151.865 343.845L152.164 343.215C152.379 343.408 152.653 343.567 152.987 343.691C153.326 343.81 153.674 343.869 154.029 343.869C154.497 343.869 154.847 343.791 155.079 343.635C155.31 343.473 155.426 343.26 155.426 342.997C155.426 342.803 155.361 342.647 155.232 342.528C155.108 342.404 154.952 342.31 154.764 342.246C154.581 342.181 154.32 342.108 153.98 342.028C153.555 341.925 153.211 341.823 152.947 341.721C152.688 341.619 152.465 341.462 152.277 341.252C152.094 341.037 152.002 340.749 152.002 340.388C152.002 340.087 152.08 339.815 152.236 339.573C152.398 339.331 152.64 339.137 152.963 338.991C153.286 338.846 153.687 338.773 154.166 338.773C154.5 338.773 154.828 338.817 155.151 338.903C155.474 338.989 155.752 339.113 155.983 339.274L155.717 339.92C155.48 339.769 155.227 339.656 154.957 339.581C154.688 339.5 154.425 339.46 154.166 339.46C153.709 339.46 153.364 339.543 153.133 339.71C152.906 339.877 152.793 340.092 152.793 340.356C152.793 340.55 152.858 340.709 152.987 340.833C153.116 340.951 153.275 341.045 153.464 341.115C153.657 341.18 153.919 341.25 154.247 341.325C154.672 341.427 155.014 341.53 155.272 341.632C155.531 341.734 155.752 341.89 155.935 342.1C156.123 342.31 156.217 342.593 156.217 342.948C156.217 343.244 156.136 343.516 155.975 343.764C155.813 344.006 155.568 344.2 155.24 344.345C154.912 344.485 154.508 344.555 154.029 344.555ZM158.44 339.541H156.502V338.838H161.178V339.541H159.24V344.491H158.44V339.541ZM165.836 344.491L164.617 342.754C164.466 342.765 164.348 342.771 164.262 342.771H162.865V344.491H162.057V338.838H164.262C164.994 338.838 165.57 339.013 165.99 339.363C166.41 339.713 166.62 340.195 166.62 340.808C166.62 341.244 166.512 341.616 166.297 341.923C166.081 342.23 165.775 342.453 165.376 342.593L166.717 344.491H165.836ZM164.238 342.084C164.749 342.084 165.139 341.974 165.408 341.753C165.678 341.532 165.812 341.217 165.812 340.808C165.812 340.399 165.678 340.087 165.408 339.872C165.139 339.651 164.749 339.541 164.238 339.541H162.865V342.084H164.238ZM172.026 343.788V344.491H167.924V338.838H171.913V339.541H168.732V341.277H171.566V341.963H168.732V343.788H172.026ZM177.436 343.788V344.491H173.334V338.838H177.323V339.541H174.141V341.277H176.976V341.963H174.141V343.788H177.436ZM179.866 339.541H177.928V338.838H182.603V339.541H180.665V344.491H179.866V339.541Z" fill="#606161"/>
<path d="M135.5 100.067C134.746 100.067 134.159 99.8517 133.739 99.421C133.319 98.9904 133.109 98.3713 133.109 97.5638V94.3499H133.917V97.5315C133.917 98.7427 134.447 99.3484 135.508 99.3484C136.025 99.3484 136.42 99.2003 136.695 98.9042C136.969 98.6028 137.107 98.1452 137.107 97.5315V94.3499H137.89V97.5638C137.89 98.3767 137.68 98.9984 137.26 99.4291C136.84 99.8544 136.253 100.067 135.5 100.067ZM144.407 94.3499V100.002H143.744L140.353 95.7873V100.002H139.545V94.3499H140.208L143.599 98.5651V94.3499H144.407ZM146.098 94.3499H146.906V100.002H146.098V94.3499ZM151.15 100.067C150.579 100.067 150.065 99.9432 149.608 99.6956C149.15 99.4426 148.789 99.0953 148.526 98.6539C148.267 98.2125 148.138 97.7199 148.138 97.1762C148.138 96.6325 148.267 96.1399 148.526 95.6985C148.789 95.257 149.15 94.9125 149.608 94.6649C150.065 94.4118 150.579 94.2853 151.15 94.2853C151.715 94.2853 152.227 94.4118 152.684 94.6649C153.142 94.9125 153.5 95.257 153.758 95.6985C154.017 96.1345 154.146 96.6271 154.146 97.1762C154.146 97.7253 154.017 98.2206 153.758 98.662C153.5 99.098 153.142 99.4426 152.684 99.6956C152.227 99.9432 151.715 100.067 151.15 100.067ZM151.15 99.3484C151.564 99.3484 151.936 99.2542 152.264 99.0657C152.598 98.8773 152.859 98.6189 153.048 98.2905C153.241 97.9568 153.338 97.5853 153.338 97.1762C153.338 96.7671 153.241 96.3983 153.048 96.0699C152.859 95.7361 152.598 95.4751 152.264 95.2866C151.936 95.0982 151.564 95.004 151.15 95.004C150.735 95.004 150.359 95.0982 150.019 95.2866C149.686 95.4751 149.422 95.7361 149.228 96.0699C149.04 96.3983 148.945 96.7671 148.945 97.1762C148.945 97.5853 149.04 97.9568 149.228 98.2905C149.422 98.6189 149.686 98.8773 150.019 99.0657C150.359 99.2542 150.735 99.3484 151.15 99.3484ZM160.241 94.3499V100.002H159.579L156.187 95.7873V100.002H155.38V94.3499H156.042L159.434 98.5651V94.3499H160.241Z" fill="#606161"/>
<path d="M233.741 192.394C233.689 192.605 233.612 192.802 233.509 192.986C233.403 193.169 233.292 193.307 233.176 193.401L232.85 193.137C232.96 193.039 233.059 192.913 233.148 192.761C233.236 192.608 233.301 192.449 233.341 192.284C233.441 191.876 233.373 191.65 233.137 191.605C233.058 191.591 232.989 191.606 232.93 191.653C232.871 191.699 232.821 191.763 232.781 191.843C232.738 191.92 232.685 192.032 232.621 192.179C232.538 192.38 232.459 192.543 232.384 192.668C232.31 192.79 232.21 192.888 232.086 192.963C231.961 193.038 231.807 193.058 231.624 193.023C231.388 192.979 231.223 192.847 231.13 192.626C231.033 192.405 231.025 192.13 231.105 191.803C231.146 191.632 231.21 191.464 231.294 191.3C231.379 191.137 231.47 191.007 231.569 190.91L231.894 191.179C231.705 191.364 231.576 191.599 231.506 191.884C231.458 192.081 231.454 192.238 231.494 192.354C231.535 192.47 231.609 192.538 231.717 192.558C231.802 192.574 231.876 192.558 231.94 192.509C232.003 192.46 232.057 192.395 232.1 192.315C232.144 192.232 232.2 192.116 232.268 191.966C232.354 191.765 232.434 191.606 232.508 191.487C232.579 191.365 232.674 191.268 232.795 191.196C232.915 191.124 233.064 191.104 233.241 191.137C233.477 191.181 233.64 191.317 233.732 191.544C233.822 191.768 233.825 192.051 233.741 192.394ZM234.326 189.217C234.368 189.297 234.394 189.389 234.402 189.496C234.407 189.602 234.396 189.708 234.37 189.815C234.307 190.074 234.188 190.262 234.012 190.378C233.836 190.494 233.617 190.527 233.355 190.478L231.925 190.21L231.818 190.647L231.43 190.574L231.537 190.137L230.967 190.03L231.081 189.564L231.651 189.671L231.831 188.932L232.219 189.005L232.039 189.744L233.449 190.008C233.59 190.035 233.707 190.021 233.799 189.967C233.891 189.91 233.954 189.816 233.985 189.687C234.02 189.544 234.009 189.415 233.951 189.3L234.326 189.217ZM232.558 187.829C232.427 187.72 232.341 187.578 232.301 187.405C232.261 187.231 232.269 187.031 232.324 186.805L232.781 186.89C232.772 186.916 232.762 186.951 232.75 186.996C232.689 187.249 232.717 187.463 232.836 187.637C232.952 187.808 233.15 187.92 233.432 187.973L234.73 188.216L234.616 188.682L232.011 188.194L232.12 187.747L232.558 187.829ZM234.368 184.179C234.404 184.185 234.451 184.197 234.509 184.215L233.999 186.304C234.235 186.318 234.444 186.254 234.626 186.112C234.806 185.966 234.927 185.767 234.988 185.514C235.063 185.206 235.019 184.939 234.855 184.712L235.223 184.511C235.332 184.654 235.401 184.819 235.43 185.008C235.461 185.193 235.45 185.392 235.397 185.606C235.331 185.878 235.216 186.109 235.054 186.298C234.888 186.487 234.689 186.621 234.457 186.7C234.226 186.775 233.983 186.789 233.728 186.741C233.475 186.693 233.261 186.596 233.085 186.447C232.909 186.296 232.79 186.113 232.726 185.897C232.659 185.678 232.656 185.446 232.716 185.2C232.776 184.954 232.887 184.746 233.048 184.576C233.207 184.403 233.401 184.282 233.63 184.213C233.86 184.141 234.106 184.129 234.368 184.179ZM233.114 185.274C233.06 185.498 233.083 185.698 233.183 185.876C233.284 186.051 233.443 186.172 233.66 186.24L234.063 184.589C233.837 184.573 233.637 184.629 233.462 184.755C233.285 184.878 233.169 185.051 233.114 185.274ZM235.094 181.204C235.13 181.211 235.177 181.223 235.234 181.241L234.725 183.329C234.961 183.343 235.17 183.279 235.352 183.137C235.532 182.991 235.652 182.792 235.714 182.54C235.789 182.232 235.745 181.965 235.581 181.737L235.948 181.537C236.058 181.68 236.127 181.845 236.156 182.033C236.186 182.218 236.175 182.418 236.123 182.632C236.057 182.904 235.942 183.134 235.78 183.324C235.613 183.513 235.415 183.647 235.183 183.725C234.952 183.801 234.709 183.814 234.454 183.766C234.201 183.719 233.987 183.621 233.811 183.473C233.635 183.322 233.516 183.138 233.452 182.923C233.385 182.704 233.382 182.471 233.442 182.225C233.502 181.979 233.613 181.771 233.774 181.602C233.933 181.428 234.127 181.307 234.356 181.239C234.586 181.167 234.832 181.155 235.094 181.204ZM233.84 182.3C233.786 182.523 233.809 182.724 233.909 182.902C234.01 183.077 234.169 183.198 234.386 183.266L234.789 181.614C234.563 181.599 234.362 181.655 234.188 181.781C234.01 181.904 233.895 182.077 233.84 182.3ZM236.741 179.322C236.783 179.401 236.808 179.494 236.817 179.6C236.822 179.706 236.811 179.813 236.785 179.92C236.722 180.179 236.602 180.366 236.427 180.482C236.251 180.598 236.032 180.632 235.77 180.583L234.34 180.314L234.233 180.752L233.845 180.679L233.952 180.242L233.382 180.135L233.495 179.668L234.066 179.775L234.246 179.037L234.634 179.11L234.454 179.848L235.864 180.113C236.005 180.139 236.122 180.125 236.214 180.071C236.306 180.014 236.368 179.921 236.4 179.792C236.435 179.649 236.423 179.52 236.366 179.404L236.741 179.322ZM235.055 175.615C235.135 175.287 235.295 175.046 235.535 174.892C235.772 174.733 236.076 174.688 236.446 174.758L237.945 175.039L237.832 175.505L236.387 175.234C236.134 175.187 235.93 175.211 235.773 175.307C235.616 175.403 235.51 175.563 235.455 175.786C235.394 176.039 235.421 176.252 235.536 176.426C235.648 176.599 235.843 176.712 236.121 176.764L237.463 177.016L237.349 177.482L234.744 176.994L234.853 176.547L235.247 176.621C235.135 176.502 235.063 176.356 235.029 176.184C234.997 176.008 235.005 175.819 235.055 175.615ZM235.755 172.745C235.842 172.389 235.997 172.134 236.22 171.979C236.444 171.821 236.731 171.775 237.081 171.841L238.654 172.136L238.546 172.578L238.202 172.513C238.304 172.614 238.37 172.743 238.4 172.901C238.428 173.055 238.417 173.231 238.369 173.429C238.299 173.717 238.172 173.935 237.988 174.084C237.806 174.229 237.599 174.28 237.37 174.237C237.141 174.194 236.977 174.077 236.88 173.886C236.78 173.694 236.773 173.419 236.861 173.059L237.041 172.321L236.948 172.303C236.745 172.265 236.575 172.294 236.438 172.391C236.302 172.487 236.206 172.649 236.15 172.875C236.113 173.027 236.103 173.181 236.12 173.337C236.133 173.492 236.171 173.627 236.231 173.744L235.83 173.872C235.754 173.719 235.711 173.545 235.7 173.35C235.687 173.154 235.705 172.953 235.755 172.745ZM238.024 173.283C238.068 173.104 238.066 172.943 238.019 172.799C237.969 172.654 237.877 172.539 237.744 172.453L237.38 172.385L237.205 173.103C237.108 173.499 237.194 173.721 237.463 173.772C237.594 173.796 237.71 173.765 237.809 173.679C237.909 173.593 237.981 173.461 238.024 173.283ZM237.021 167.559C237.1 167.235 237.258 166.997 237.493 166.845C237.73 166.69 238.035 166.647 238.409 166.717L239.908 166.998L239.794 167.464L238.349 167.193C238.097 167.146 237.892 167.169 237.736 167.261C237.581 167.351 237.477 167.502 237.425 167.716C237.367 167.952 237.397 168.154 237.513 168.322C237.627 168.489 237.823 168.598 238.101 168.651L239.443 168.902L239.329 169.369L237.884 169.098C237.632 169.05 237.428 169.073 237.271 169.166C237.116 169.255 237.012 169.407 236.96 169.62C236.902 169.857 236.932 170.059 237.049 170.226C237.162 170.393 237.358 170.503 237.637 170.555L238.978 170.806L238.864 171.273L236.26 170.784L236.369 170.337L236.757 170.41C236.646 170.291 236.574 170.149 236.542 169.984C236.507 169.818 236.514 169.638 236.561 169.444C236.61 169.243 236.695 169.073 236.814 168.933C236.934 168.792 237.083 168.695 237.261 168.64C237.134 168.515 237.049 168.358 237.005 168.171C236.963 167.98 236.968 167.776 237.021 167.559ZM239.401 163.558C239.437 163.564 239.483 163.576 239.541 163.594L239.031 165.683C239.268 165.697 239.477 165.633 239.659 165.491C239.838 165.345 239.959 165.146 240.02 164.893C240.096 164.585 240.051 164.318 239.887 164.091L240.255 163.89C240.364 164.033 240.433 164.198 240.463 164.387C240.493 164.572 240.482 164.771 240.43 164.985C240.363 165.257 240.249 165.488 240.086 165.677C239.92 165.866 239.721 166 239.49 166.079C239.259 166.154 239.016 166.168 238.76 166.12C238.508 166.072 238.293 165.975 238.117 165.826C237.942 165.675 237.822 165.492 237.758 165.276C237.692 165.057 237.688 164.825 237.748 164.579C237.808 164.333 237.919 164.125 238.08 163.955C238.239 163.782 238.433 163.661 238.663 163.592C238.893 163.52 239.139 163.508 239.401 163.558ZM238.147 164.653C238.092 164.877 238.115 165.077 238.215 165.255C238.317 165.43 238.476 165.551 238.692 165.619L239.095 163.968C238.869 163.952 238.669 164.008 238.494 164.134C238.317 164.257 238.201 164.43 238.147 164.653Z" fill="#818181"/>
<path d="M265.908 292.748C265.805 292.938 265.679 293.11 265.531 293.264C265.38 293.417 265.236 293.525 265.099 293.59L264.844 293.268C264.976 293.197 265.106 293.099 265.231 292.972C265.357 292.845 265.461 292.706 265.542 292.557C265.743 292.188 265.732 291.957 265.511 291.865C265.437 291.834 265.365 291.834 265.295 291.866C265.225 291.898 265.16 291.948 265.1 292.016C265.039 292.081 264.958 292.176 264.859 292.304C264.726 292.478 264.607 292.617 264.502 292.72C264.398 292.821 264.275 292.894 264.134 292.939C263.992 292.984 263.835 292.97 263.663 292.898C263.442 292.805 263.313 292.644 263.276 292.413C263.237 292.18 263.297 291.916 263.458 291.621C263.543 291.466 263.647 291.319 263.771 291.18C263.896 291.042 264.019 290.937 264.141 290.866L264.393 291.193C264.161 291.329 263.974 291.526 263.834 291.783C263.737 291.962 263.693 292.111 263.704 292.23C263.714 292.35 263.77 292.431 263.872 292.473C263.952 292.507 264.029 292.507 264.104 292.473C264.179 292.44 264.248 292.39 264.311 292.322C264.375 292.252 264.46 292.153 264.564 292.024C264.7 291.851 264.819 291.715 264.921 291.618C265.021 291.516 265.14 291.444 265.277 291.4C265.414 291.357 265.565 291.37 265.731 291.439C265.953 291.532 266.08 291.697 266.114 291.934C266.145 292.166 266.077 292.438 265.908 292.748ZM267.284 289.835C267.306 289.92 267.307 290.014 267.289 290.118C267.267 290.22 267.23 290.32 267.177 290.416C267.05 290.65 266.885 290.804 266.682 290.878C266.48 290.951 266.256 290.937 266.01 290.834L264.668 290.272L264.453 290.668L264.088 290.515L264.303 290.12L263.768 289.896L263.998 289.474L264.533 289.698L264.896 289.031L265.26 289.183L264.897 289.851L266.221 290.404C266.353 290.46 266.471 290.471 266.576 290.439C266.681 290.405 266.766 290.329 266.83 290.212C266.9 290.083 266.921 289.957 266.894 289.834L267.284 289.835ZM265.89 288.131C265.788 287.998 265.74 287.845 265.744 287.671C265.748 287.496 265.806 287.307 265.918 287.102L266.347 287.281C266.331 287.303 266.312 287.335 266.289 287.376C266.165 287.604 266.139 287.815 266.212 288.007C266.284 288.195 266.451 288.344 266.716 288.455L267.934 288.964L267.704 289.385L265.26 288.363L265.479 287.959L265.89 288.131ZM268.593 285.027C268.627 285.041 268.67 285.062 268.722 285.092L267.694 286.98C267.924 287.044 268.146 287.027 268.361 286.93C268.575 286.829 268.744 286.664 268.868 286.436C269.019 286.158 269.043 285.892 268.938 285.64L269.351 285.527C269.423 285.687 269.45 285.86 269.431 286.046C269.414 286.229 269.353 286.418 269.248 286.611C269.114 286.857 268.943 287.053 268.735 287.2C268.524 287.345 268.295 287.43 268.046 287.456C267.8 287.479 267.557 287.44 267.317 287.34C267.08 287.241 266.894 287.101 266.757 286.922C266.622 286.74 266.55 286.539 266.541 286.32C266.531 286.096 266.586 285.873 266.707 285.651C266.829 285.428 266.99 285.253 267.192 285.125C267.392 284.993 267.613 284.919 267.857 284.902C268.101 284.882 268.347 284.924 268.593 285.027ZM267.081 285.807C266.971 286.009 266.943 286.206 266.998 286.397C267.053 286.586 267.18 286.736 267.376 286.847L268.189 285.354C267.97 285.291 267.758 285.301 267.554 285.385C267.349 285.464 267.191 285.605 267.081 285.807ZM270.056 282.338C270.09 282.352 270.133 282.374 270.185 282.403L269.158 284.291C269.387 284.355 269.61 284.338 269.825 284.241C270.038 284.14 270.207 283.975 270.331 283.747C270.483 283.469 270.506 283.204 270.402 282.951L270.815 282.838C270.886 282.998 270.913 283.171 270.895 283.357C270.878 283.54 270.817 283.729 270.712 283.922C270.578 284.168 270.407 284.364 270.199 284.511C269.988 284.656 269.758 284.741 269.51 284.767C269.264 284.79 269.02 284.751 268.781 284.651C268.544 284.552 268.357 284.413 268.221 284.233C268.086 284.051 268.014 283.85 268.005 283.631C267.995 283.407 268.05 283.184 268.171 282.962C268.292 282.739 268.453 282.564 268.655 282.436C268.855 282.304 269.077 282.23 269.32 282.213C269.565 282.193 269.81 282.235 270.056 282.338ZM268.545 283.118C268.435 283.32 268.407 283.517 268.461 283.708C268.517 283.897 268.643 284.047 268.839 284.158L269.652 282.665C269.433 282.602 269.222 282.612 269.018 282.696C268.812 282.775 268.655 282.916 268.545 283.118ZM272.153 280.889C272.175 280.974 272.176 281.068 272.158 281.172C272.136 281.274 272.099 281.374 272.046 281.47C271.919 281.704 271.754 281.858 271.552 281.932C271.349 282.005 271.125 281.991 270.879 281.888L269.537 281.326L269.322 281.722L268.957 281.569L269.172 281.174L268.637 280.95L268.867 280.529L269.402 280.752L269.765 280.085L270.129 280.237L269.766 280.905L271.09 281.458C271.222 281.514 271.34 281.525 271.445 281.494C271.55 281.459 271.635 281.383 271.699 281.266C271.769 281.137 271.79 281.011 271.763 280.888L272.153 280.889ZM271.424 276.985C271.585 276.69 271.803 276.493 272.078 276.396C272.352 276.295 272.663 276.318 273.011 276.463L274.417 277.051L274.188 277.473L272.832 276.906C272.595 276.807 272.387 276.786 272.208 276.844C272.029 276.903 271.885 277.033 271.775 277.235C271.651 277.463 271.623 277.673 271.693 277.863C271.76 278.053 271.924 278.203 272.185 278.312L273.445 278.839L273.215 279.26L270.77 278.238L270.99 277.834L271.359 277.988C271.279 277.85 271.245 277.696 271.255 277.524C271.267 277.349 271.323 277.17 271.424 276.985ZM272.836 274.391C273.011 274.069 273.228 273.858 273.486 273.758C273.746 273.654 274.041 273.672 274.37 273.809L275.846 274.427L275.628 274.826L275.305 274.691C275.381 274.809 275.414 274.947 275.403 275.104C275.392 275.257 275.337 275.423 275.24 275.602C275.098 275.863 274.918 276.044 274.7 276.147C274.483 276.247 274.267 276.252 274.052 276.162C273.837 276.072 273.705 275.925 273.657 275.722C273.606 275.517 273.669 275.252 273.846 274.927L274.21 274.26L274.122 274.223C273.931 274.143 273.757 274.135 273.598 274.198C273.439 274.261 273.304 274.395 273.192 274.6C273.117 274.737 273.069 274.882 273.046 275.035C273.02 275.186 273.023 275.323 273.053 275.448L272.626 275.484C272.59 275.322 272.591 275.146 272.629 274.957C272.665 274.767 272.734 274.579 272.836 274.391ZM274.937 275.389C275.025 275.228 275.063 275.073 275.053 274.925C275.04 274.776 274.979 274.646 274.869 274.536L274.528 274.393L274.174 275.043C273.98 275.4 274.009 275.631 274.261 275.737C274.384 275.788 274.505 275.783 274.625 275.722C274.746 275.661 274.849 275.55 274.937 275.389ZM275.387 269.703C275.547 269.41 275.762 269.216 276.033 269.121C276.305 269.023 276.616 269.047 276.967 269.194L278.374 269.782L278.144 270.204L276.788 269.636C276.551 269.537 276.344 269.515 276.167 269.571C275.991 269.623 275.851 269.746 275.746 269.939C275.63 270.153 275.608 270.352 275.681 270.537C275.751 270.721 275.916 270.867 276.178 270.977L277.437 271.503L277.207 271.925L275.851 271.358C275.615 271.259 275.408 271.237 275.23 271.292C275.055 271.344 274.914 271.467 274.809 271.66C274.693 271.874 274.671 272.073 274.744 272.259C274.814 272.442 274.979 272.589 275.241 272.698L276.5 273.225L276.27 273.646L273.826 272.624L274.046 272.22L274.41 272.372C274.33 272.235 274.295 272.084 274.306 271.919C274.313 271.753 274.364 271.582 274.46 271.407C274.559 271.225 274.685 271.08 274.838 270.972C274.992 270.863 275.163 270.802 275.352 270.788C275.258 270.641 275.214 270.473 275.218 270.284C275.224 270.093 275.281 269.899 275.387 269.703ZM278.739 266.384C278.773 266.399 278.816 266.42 278.868 266.449L277.841 268.337C278.07 268.401 278.293 268.384 278.508 268.288C278.721 268.186 278.89 268.022 279.014 267.793C279.166 267.515 279.189 267.25 279.085 266.998L279.498 266.885C279.569 267.044 279.596 267.217 279.578 267.404C279.561 267.587 279.5 267.775 279.395 267.969C279.261 268.214 279.09 268.411 278.882 268.557C278.671 268.703 278.441 268.788 278.193 268.814C277.947 268.836 277.703 268.798 277.464 268.697C277.227 268.598 277.04 268.459 276.904 268.28C276.769 268.098 276.697 267.897 276.688 267.677C276.678 267.454 276.733 267.231 276.854 267.008C276.975 266.786 277.136 266.611 277.338 266.483C277.538 266.351 277.76 266.277 278.003 266.26C278.248 266.24 278.493 266.281 278.739 266.384ZM277.228 267.165C277.118 267.367 277.09 267.563 277.144 267.755C277.2 267.944 277.326 268.093 277.522 268.204L278.335 266.711C278.116 266.648 277.905 266.659 277.701 266.742C277.495 266.822 277.338 266.963 277.228 267.165Z" fill="#818181"/>
<path d="M99.3915 285.19C99.1849 285.124 98.9972 285.035 98.8282 284.922C98.6604 284.806 98.5397 284.689 98.4661 284.572L98.8017 284.281C98.8811 284.393 98.9907 284.498 99.1305 284.594C99.2703 284.691 99.4212 284.765 99.5832 284.817C99.9836 284.944 100.23 284.896 100.321 284.674C100.352 284.6 100.349 284.533 100.313 284.473C100.276 284.413 100.221 284.36 100.146 284.316C100.075 284.269 99.9705 284.209 99.8314 284.137C99.6407 284.042 99.4886 283.954 99.3748 283.872C99.2643 283.792 99.1827 283.689 99.13 283.565C99.0773 283.44 99.0866 283.291 99.1578 283.119C99.2494 282.897 99.4179 282.75 99.6632 282.678C99.9099 282.603 100.194 282.616 100.515 282.718C100.683 282.771 100.843 282.845 100.995 282.938C101.147 283.032 101.263 283.13 101.343 283.232L101.002 283.521C100.849 283.326 100.633 283.184 100.353 283.095C100.159 283.034 99.999 283.018 99.8719 283.047C99.7447 283.077 99.6602 283.142 99.6182 283.244C99.5851 283.324 99.5876 283.396 99.6257 283.46C99.6638 283.525 99.7197 283.581 99.7934 283.629C99.8703 283.677 99.9793 283.74 100.12 283.816C100.31 283.914 100.458 284.003 100.565 284.083C100.677 284.16 100.759 284.259 100.809 284.38C100.86 284.5 100.851 284.644 100.782 284.81C100.691 285.032 100.519 285.178 100.268 285.248C100.02 285.316 99.7282 285.296 99.3915 285.19ZM102.545 285.997C102.456 286.031 102.355 286.048 102.244 286.048C102.134 286.044 102.027 286.026 101.922 285.993C101.668 285.912 101.498 285.783 101.413 285.606C101.328 285.429 101.336 285.218 101.438 284.971L101.994 283.626L101.565 283.49L101.715 283.125L102.144 283.261L102.366 282.725L102.823 282.87L102.602 283.407L103.326 283.636L103.175 284.002L102.451 283.772L101.903 285.098C101.849 285.231 101.84 285.343 101.877 285.435C101.918 285.528 102.002 285.595 102.129 285.635C102.269 285.679 102.404 285.679 102.534 285.633L102.545 285.997ZM104.32 284.417C104.458 284.3 104.62 284.23 104.806 284.205C104.992 284.181 105.196 284.204 105.419 284.274L105.241 284.704C105.217 284.693 105.183 284.68 105.138 284.666C104.891 284.588 104.665 284.598 104.462 284.697C104.264 284.795 104.11 284.976 104.001 285.241L103.497 286.461L103.039 286.316L104.051 283.866L104.489 284.006L104.32 284.417ZM107.721 286.432C107.707 286.466 107.686 286.51 107.656 286.563L105.607 285.913C105.547 286.137 105.572 286.342 105.682 286.527C105.797 286.71 105.978 286.841 106.226 286.919C106.528 287.015 106.812 286.994 107.078 286.855L107.212 287.222C107.044 287.315 106.86 287.368 106.661 287.381C106.464 287.396 106.261 287.37 106.052 287.303C105.785 287.218 105.57 287.091 105.406 286.921C105.244 286.747 105.146 286.547 105.11 286.32C105.078 286.093 105.111 285.86 105.211 285.62C105.309 285.382 105.451 285.185 105.638 285.029C105.828 284.873 106.04 284.773 106.274 284.729C106.512 284.682 106.752 284.697 106.994 284.774C107.235 284.851 107.427 284.973 107.57 285.14C107.718 285.305 107.804 285.5 107.83 285.724C107.859 285.95 107.823 286.186 107.721 286.432ZM106.839 285.148C106.62 285.079 106.409 285.085 106.206 285.167C106.006 285.25 105.851 285.392 105.739 285.594L107.359 286.108C107.419 285.894 107.401 285.698 107.305 285.521C107.214 285.342 107.058 285.218 106.839 285.148ZM110.639 287.358C110.625 287.392 110.604 287.436 110.575 287.489L108.525 286.839C108.465 287.064 108.49 287.268 108.6 287.453C108.715 287.636 108.897 287.767 109.144 287.846C109.446 287.941 109.73 287.92 109.996 287.781L110.13 288.148C109.962 288.241 109.778 288.294 109.579 288.307C109.383 288.322 109.179 288.296 108.97 288.229C108.703 288.144 108.488 288.017 108.325 287.847C108.163 287.673 108.064 287.473 108.028 287.246C107.996 287.019 108.029 286.786 108.129 286.546C108.227 286.308 108.369 286.111 108.556 285.955C108.746 285.799 108.958 285.699 109.192 285.655C109.43 285.608 109.67 285.624 109.912 285.7C110.153 285.777 110.345 285.899 110.488 286.066C110.636 286.231 110.722 286.426 110.748 286.65C110.777 286.876 110.741 287.112 110.639 287.358ZM109.757 286.075C109.538 286.005 109.327 286.011 109.124 286.093C108.925 286.176 108.769 286.318 108.657 286.52L110.277 287.034C110.337 286.82 110.319 286.624 110.223 286.447C110.132 286.268 109.976 286.144 109.757 286.075ZM112.254 289.078C112.164 289.112 112.064 289.129 111.953 289.129C111.843 289.125 111.735 289.107 111.631 289.074C111.376 288.993 111.207 288.864 111.122 288.687C111.037 288.51 111.045 288.299 111.147 288.052L111.702 286.707L111.273 286.571L111.424 286.206L111.853 286.342L112.074 285.806L112.532 285.951L112.31 286.488L113.035 286.717L112.884 287.083L112.16 286.853L111.612 288.179C111.557 288.312 111.549 288.424 111.586 288.516C111.627 288.609 111.711 288.676 111.838 288.716C111.977 288.76 112.112 288.76 112.243 288.714L112.254 289.078ZM116.398 287.758C116.719 287.86 116.935 288.032 117.048 288.273C117.164 288.512 117.151 288.806 117.007 289.154L116.425 290.564L115.968 290.419L116.529 289.06C116.627 288.823 116.642 288.625 116.574 288.468C116.506 288.31 116.362 288.197 116.143 288.127C115.895 288.049 115.671 288.057 115.469 288.154C115.269 288.247 115.115 288.425 115.006 288.687L114.485 289.948L114.028 289.803L115.039 287.354L115.478 287.493L115.325 287.862C115.47 287.765 115.634 287.708 115.817 287.689C116.004 287.672 116.198 287.695 116.398 287.758ZM119.213 288.652C119.562 288.763 119.795 288.931 119.91 289.155C120.029 289.381 120.02 289.659 119.884 289.989L119.274 291.468L118.84 291.33L118.973 291.007C118.85 291.096 118.704 291.149 118.536 291.166C118.372 291.18 118.193 291.156 117.999 291.095C117.716 291.005 117.517 290.867 117.4 290.68C117.286 290.494 117.274 290.293 117.363 290.077C117.452 289.862 117.604 289.715 117.82 289.637C118.036 289.556 118.321 289.571 118.674 289.683L119.398 289.913L119.434 289.825C119.513 289.634 119.517 289.47 119.444 289.332C119.372 289.194 119.224 289.089 119.002 289.019C118.853 288.971 118.696 288.95 118.533 288.954C118.371 288.954 118.224 288.979 118.092 289.028L118.039 288.635C118.211 288.575 118.399 288.547 118.602 288.552C118.806 288.554 119.009 288.587 119.213 288.652ZM118.217 290.777C118.391 290.832 118.558 290.843 118.715 290.81C118.874 290.773 119.011 290.694 119.125 290.574L119.266 290.232L118.561 290.008C118.173 289.885 117.927 289.95 117.823 290.202C117.772 290.326 117.781 290.438 117.851 290.54C117.92 290.643 118.042 290.721 118.217 290.777ZM124.301 290.267C124.619 290.367 124.833 290.536 124.943 290.774C125.057 291.012 125.041 291.307 124.896 291.658L124.314 293.067L123.857 292.922L124.418 291.563C124.516 291.326 124.532 291.129 124.468 290.973C124.406 290.817 124.27 290.706 124.061 290.64C123.829 290.566 123.615 290.579 123.42 290.677C123.226 290.772 123.075 290.951 122.967 291.213L122.446 292.474L121.988 292.329L122.55 290.971C122.648 290.733 122.664 290.536 122.599 290.38C122.538 290.225 122.402 290.114 122.192 290.047C121.961 289.973 121.747 289.986 121.552 290.084C121.358 290.179 121.207 290.358 121.099 290.62L120.578 291.882L120.12 291.736L121.132 289.287L121.57 289.426L121.419 289.791C121.564 289.694 121.724 289.637 121.9 289.62C122.077 289.599 122.261 289.619 122.452 289.68C122.649 289.742 122.808 289.836 122.928 289.962C123.049 290.087 123.12 290.237 123.142 290.411C123.296 290.299 123.473 290.23 123.675 290.204C123.879 290.178 124.088 290.199 124.301 290.267ZM127.953 292.853C127.939 292.886 127.917 292.93 127.888 292.984L125.839 292.333C125.778 292.558 125.803 292.763 125.914 292.948C126.029 293.131 126.21 293.261 126.458 293.34C126.76 293.436 127.044 293.414 127.309 293.276L127.443 293.642C127.276 293.735 127.092 293.789 126.892 293.802C126.696 293.816 126.493 293.79 126.283 293.724C126.016 293.639 125.801 293.511 125.638 293.341C125.476 293.168 125.377 292.967 125.342 292.74C125.31 292.514 125.343 292.28 125.442 292.04C125.54 291.803 125.683 291.606 125.87 291.449C126.06 291.293 126.272 291.193 126.506 291.149C126.744 291.103 126.984 291.118 127.225 291.195C127.467 291.271 127.659 291.393 127.802 291.561C127.949 291.726 128.036 291.921 128.062 292.145C128.091 292.37 128.055 292.606 127.953 292.853ZM127.071 291.569C126.851 291.499 126.64 291.506 126.438 291.588C126.238 291.671 126.082 291.813 125.97 292.014L127.591 292.529C127.651 292.314 127.633 292.118 127.537 291.942C127.445 291.763 127.29 291.639 127.071 291.569Z" fill="#818181"/>
<path d="M188.324 374.41C188.22 374.6 188.093 374.772 187.945 374.926C187.794 375.078 187.649 375.186 187.512 375.25L187.258 374.928C187.391 374.858 187.52 374.759 187.646 374.632C187.772 374.506 187.876 374.368 187.958 374.219C188.16 373.85 188.15 373.62 187.929 373.527C187.855 373.495 187.783 373.496 187.713 373.527C187.643 373.559 187.578 373.609 187.518 373.677C187.456 373.741 187.375 373.837 187.275 373.964C187.142 374.138 187.023 374.276 186.917 374.379C186.813 374.48 186.69 374.552 186.549 374.597C186.407 374.641 186.25 374.627 186.078 374.555C185.857 374.462 185.728 374.3 185.692 374.069C185.653 373.836 185.715 373.573 185.876 373.277C185.961 373.122 186.066 372.976 186.191 372.838C186.316 372.7 186.439 372.595 186.561 372.524L186.813 372.851C186.58 372.987 186.393 373.184 186.252 373.441C186.154 373.619 186.11 373.768 186.12 373.887C186.131 374.007 186.186 374.088 186.288 374.131C186.368 374.164 186.445 374.164 186.52 374.131C186.595 374.098 186.664 374.048 186.727 373.981C186.792 373.911 186.877 373.812 186.981 373.683C187.117 373.51 187.237 373.375 187.339 373.278C187.44 373.177 187.559 373.104 187.696 373.061C187.833 373.018 187.985 373.032 188.15 373.102C188.372 373.195 188.499 373.36 188.531 373.597C188.563 373.829 188.493 374.101 188.324 374.41ZM189.708 371.502C189.729 371.586 189.731 371.681 189.712 371.784C189.69 371.886 189.652 371.986 189.599 372.082C189.471 372.316 189.306 372.469 189.103 372.542C188.901 372.615 188.677 372.6 188.431 372.497L187.09 371.932L186.874 372.327L186.51 372.173L186.726 371.779L186.191 371.554L186.422 371.133L186.957 371.358L187.322 370.691L187.686 370.845L187.321 371.511L188.643 372.068C188.775 372.124 188.893 372.136 188.998 372.104C189.104 372.069 189.189 371.994 189.253 371.877C189.323 371.748 189.345 371.622 189.318 371.499L189.708 371.502ZM188.318 369.794C188.217 369.661 188.169 369.508 188.174 369.334C188.178 369.159 188.237 368.97 188.349 368.765L188.777 368.946C188.762 368.968 188.742 368.999 188.72 369.04C188.595 369.268 188.569 369.478 188.641 369.671C188.712 369.859 188.879 370.009 189.144 370.12L190.36 370.632L190.129 371.053L187.687 370.025L187.908 369.621L188.318 369.794ZM191.03 366.697C191.064 366.711 191.107 366.733 191.159 366.762L190.126 368.648C190.355 368.712 190.578 368.696 190.793 368.599C191.007 368.499 191.177 368.335 191.302 368.107C191.454 367.829 191.478 367.564 191.374 367.311L191.787 367.199C191.859 367.359 191.885 367.532 191.866 367.718C191.849 367.902 191.787 368.09 191.681 368.283C191.547 368.528 191.375 368.724 191.167 368.87C190.955 369.015 190.725 369.1 190.477 369.125C190.231 369.147 189.988 369.107 189.748 369.007C189.511 368.907 189.325 368.767 189.189 368.588C189.055 368.405 188.983 368.204 188.975 367.985C188.965 367.761 189.021 367.538 189.143 367.316C189.265 367.094 189.426 366.919 189.628 366.792C189.829 366.661 190.051 366.587 190.294 366.571C190.539 366.552 190.785 366.594 191.03 366.697ZM189.516 367.473C189.406 367.675 189.377 367.872 189.431 368.064C189.486 368.252 189.612 368.402 189.808 368.514L190.625 367.023C190.406 366.96 190.195 366.97 189.991 367.053C189.785 367.131 189.627 367.272 189.516 367.473ZM192.502 364.012C192.535 364.027 192.578 364.048 192.63 364.077L191.597 365.963C191.827 366.027 192.049 366.011 192.265 365.915C192.478 365.814 192.648 365.65 192.773 365.422C192.925 365.144 192.949 364.879 192.846 364.627L193.259 364.515C193.33 364.674 193.356 364.847 193.337 365.033C193.32 365.217 193.258 365.405 193.153 365.598C193.018 365.843 192.847 366.039 192.638 366.185C192.426 366.33 192.196 366.415 191.948 366.44C191.702 366.462 191.459 366.423 191.219 366.322C190.983 366.222 190.796 366.082 190.66 365.903C190.526 365.72 190.454 365.519 190.446 365.3C190.436 365.076 190.492 364.854 190.614 364.631C190.736 364.409 190.898 364.235 191.1 364.107C191.3 363.976 191.522 363.902 191.766 363.886C192.01 363.867 192.256 363.909 192.502 364.012ZM190.987 364.789C190.877 364.99 190.848 365.187 190.902 365.379C190.957 365.567 191.083 365.718 191.279 365.829L192.096 364.338C191.878 364.275 191.666 364.285 191.462 364.368C191.256 364.447 191.098 364.587 190.987 364.789ZM194.602 362.569C194.624 362.654 194.625 362.748 194.606 362.852C194.584 362.954 194.547 363.053 194.494 363.15C194.366 363.384 194.201 363.537 193.998 363.61C193.796 363.683 193.571 363.668 193.326 363.564L191.985 363L191.768 363.394L191.404 363.241L191.621 362.846L191.086 362.621L191.317 362.2L191.851 362.425L192.216 361.759L192.58 361.912L192.215 362.579L193.538 363.136C193.67 363.191 193.788 363.203 193.892 363.172C193.998 363.137 194.083 363.061 194.147 362.944C194.218 362.816 194.239 362.69 194.212 362.567L194.602 362.569ZM193.884 358.664C194.046 358.369 194.265 358.173 194.54 358.077C194.815 357.976 195.125 357.999 195.473 358.146L196.878 358.737L196.647 359.158L195.293 358.588C195.056 358.488 194.848 358.467 194.669 358.525C194.49 358.583 194.345 358.712 194.235 358.914C194.11 359.142 194.082 359.352 194.151 359.543C194.217 359.732 194.381 359.882 194.642 359.992L195.9 360.522L195.669 360.943L193.227 359.915L193.448 359.511L193.817 359.666C193.737 359.529 193.703 359.374 193.714 359.202C193.726 359.027 193.783 358.848 193.884 358.664ZM195.303 356.074C195.479 355.752 195.697 355.542 195.956 355.442C196.216 355.339 196.511 355.357 196.839 355.496L198.314 356.117L198.095 356.516L197.773 356.38C197.848 356.498 197.88 356.636 197.87 356.793C197.858 356.946 197.803 357.112 197.705 357.29C197.562 357.551 197.382 357.732 197.163 357.834C196.946 357.933 196.73 357.938 196.515 357.847C196.3 357.757 196.169 357.61 196.122 357.406C196.071 357.201 196.135 356.937 196.313 356.612L196.678 355.946L196.59 355.909C196.4 355.829 196.225 355.82 196.066 355.882C195.907 355.945 195.771 356.079 195.659 356.283C195.584 356.421 195.535 356.565 195.512 356.718C195.486 356.869 195.488 357.006 195.518 357.131L195.09 357.166C195.055 357.004 195.056 356.828 195.095 356.639C195.131 356.45 195.201 356.261 195.303 356.074ZM197.402 357.077C197.49 356.916 197.53 356.761 197.52 356.613C197.507 356.464 197.446 356.334 197.337 356.223L196.996 356.08L196.64 356.729C196.445 357.085 196.473 357.317 196.725 357.423C196.848 357.475 196.969 357.47 197.09 357.409C197.21 357.348 197.314 357.237 197.402 357.077ZM197.869 351.392C198.029 351.1 198.244 350.907 198.516 350.812C198.788 350.715 199.1 350.74 199.45 350.887L200.855 351.479L200.625 351.9L199.27 351.33C199.033 351.23 198.826 351.207 198.649 351.262C198.473 351.314 198.332 351.437 198.226 351.629C198.11 351.843 198.087 352.042 198.16 352.227C198.229 352.411 198.394 352.558 198.655 352.668L199.913 353.198L199.683 353.619L198.328 353.048C198.091 352.949 197.884 352.926 197.707 352.981C197.531 353.033 197.39 353.155 197.285 353.348C197.168 353.562 197.145 353.761 197.218 353.946C197.287 354.13 197.452 354.277 197.714 354.387L198.972 354.917L198.741 355.338L196.299 354.309L196.52 353.906L196.884 354.059C196.804 353.921 196.77 353.77 196.781 353.606C196.788 353.44 196.84 353.269 196.936 353.094C197.036 352.913 197.162 352.768 197.316 352.66C197.47 352.552 197.641 352.491 197.83 352.477C197.737 352.33 197.693 352.162 197.698 351.973C197.704 351.782 197.761 351.588 197.869 351.392ZM201.23 348.083C201.264 348.097 201.307 348.119 201.359 348.148L200.326 350.033C200.556 350.098 200.778 350.082 200.993 349.985C201.207 349.885 201.377 349.72 201.502 349.492C201.654 349.215 201.678 348.95 201.574 348.697L201.987 348.585C202.059 348.745 202.085 348.918 202.066 349.104C202.049 349.287 201.987 349.476 201.882 349.668C201.747 349.914 201.575 350.11 201.367 350.256C201.155 350.401 200.925 350.485 200.677 350.511C200.431 350.533 200.188 350.493 199.948 350.392C199.711 350.293 199.525 350.153 199.389 349.974C199.255 349.791 199.183 349.59 199.175 349.371C199.165 349.147 199.221 348.924 199.343 348.702C199.465 348.48 199.626 348.305 199.829 348.178C200.029 348.047 200.251 347.973 200.494 347.956C200.739 347.937 200.985 347.979 201.23 348.083ZM199.716 348.859C199.606 349.061 199.577 349.258 199.631 349.449C199.686 349.638 199.812 349.788 200.008 349.9L200.825 348.409C200.606 348.345 200.395 348.355 200.191 348.438C199.985 348.517 199.827 348.657 199.716 348.859Z" fill="#818181"/>
<path d="M87.443 108.027C87.2699 107.896 87.1232 107.751 87.0031 107.59C86.8853 107.427 86.8126 107.279 86.785 107.147L87.2107 106.995C87.2456 107.125 87.3122 107.258 87.4103 107.394C87.5085 107.53 87.6255 107.649 87.7613 107.751C88.0969 108.004 88.3487 108.044 88.5166 107.873C88.5726 107.816 88.5943 107.754 88.5817 107.686C88.5691 107.619 88.5351 107.552 88.4799 107.485C88.4296 107.419 88.3512 107.329 88.2447 107.215C88.0976 107.063 87.9846 106.931 87.9057 106.817C87.8295 106.706 87.789 106.585 87.7841 106.453C87.7791 106.321 87.842 106.188 87.9726 106.055C88.1406 105.883 88.3546 105.806 88.6147 105.824C88.8771 105.84 89.1428 105.949 89.4118 106.151C89.553 106.258 89.679 106.379 89.7898 106.517C89.9006 106.654 89.9756 106.783 90.0149 106.903L89.5852 107.051C89.51 106.821 89.3553 106.618 89.1209 106.441C88.9584 106.319 88.8113 106.25 88.6794 106.233C88.5475 106.217 88.4431 106.248 88.3661 106.326C88.3055 106.388 88.2816 106.455 88.2946 106.527C88.3075 106.599 88.3404 106.669 88.3934 106.738C88.4489 106.808 88.5302 106.903 88.637 107.02C88.7818 107.175 88.8909 107.307 88.9645 107.416C89.043 107.525 89.0846 107.643 89.0892 107.77C89.0938 107.898 89.0331 108.026 88.9071 108.155C88.7392 108.326 88.5225 108.401 88.2571 108.379C87.9966 108.357 87.7253 108.239 87.443 108.027ZM90.157 109.84C90.0591 109.841 89.9572 109.822 89.8513 109.784C89.7477 109.743 89.652 109.69 89.5641 109.623C89.3511 109.463 89.2361 109.288 89.2192 109.097C89.2024 108.906 89.2872 108.716 89.4738 108.525L90.492 107.486L90.1325 107.215L90.4089 106.933L90.7685 107.204L91.1743 106.789L91.5578 107.078L91.152 107.492L91.7592 107.949L91.4828 108.232L90.8755 107.774L89.8713 108.8C89.771 108.902 89.722 109.002 89.7243 109.099C89.7292 109.197 89.785 109.287 89.8915 109.367C90.0087 109.455 90.1377 109.501 90.2786 109.503L90.157 109.84ZM92.4228 109.001C92.5966 108.942 92.7768 108.933 92.9633 108.974C93.1498 109.015 93.3363 109.106 93.5227 109.246L93.1973 109.578C93.1783 109.56 93.1502 109.536 93.1129 109.508C92.9052 109.352 92.6865 109.285 92.4571 109.306C92.2326 109.328 92.02 109.441 91.8194 109.646L90.8957 110.589L90.5122 110.3L92.3666 108.407L92.7342 108.683L92.4228 109.001ZM94.9342 112.003C94.9085 112.029 94.872 112.061 94.8247 112.1L93.1069 110.807C92.9676 110.992 92.917 111.187 92.9552 111.394C92.9984 111.6 93.1238 111.782 93.3316 111.938C93.5846 112.129 93.863 112.206 94.1667 112.17L94.1615 112.55C93.9677 112.578 93.7732 112.564 93.578 112.508C93.3856 112.455 93.2015 112.361 93.0257 112.229C92.802 112.061 92.6432 111.871 92.5494 111.66C92.4579 111.446 92.4366 111.229 92.4853 111.009C92.5367 110.792 92.6534 110.59 92.8354 110.404C93.015 110.221 93.2224 110.089 93.4576 110.01C93.6954 109.932 93.9339 109.913 94.173 109.953C94.4171 109.992 94.6403 110.087 94.8427 110.24C95.0451 110.392 95.1841 110.569 95.2596 110.771C95.3401 110.972 95.3519 111.179 95.2952 111.393C95.2411 111.609 95.1208 111.812 94.9342 112.003ZM94.5593 110.529C94.3755 110.391 94.1721 110.324 93.9489 110.33C93.7285 110.338 93.5283 110.415 93.3483 110.561L94.7066 111.583C94.8416 111.407 94.8955 111.223 94.8683 111.028C94.8461 110.834 94.7431 110.667 94.5593 110.529ZM97.3802 113.844C97.3546 113.87 97.3181 113.903 97.2708 113.941L95.553 112.648C95.4137 112.833 95.3631 113.029 95.4013 113.235C95.4445 113.442 95.5699 113.623 95.7776 113.779C96.0307 113.97 96.309 114.047 96.6128 114.011L96.6076 114.392C96.4137 114.42 96.2192 114.406 96.0241 114.35C95.8316 114.296 95.6475 114.203 95.4718 114.07C95.248 113.902 95.0893 113.712 94.9955 113.501C94.904 113.287 94.8827 113.071 94.9314 112.851C94.9828 112.633 95.0995 112.431 95.2814 112.245C95.4611 112.062 95.6684 111.931 95.9036 111.851C96.1415 111.774 96.3799 111.755 96.619 111.794C96.8631 111.833 97.0864 111.928 97.2888 112.081C97.4912 112.233 97.6302 112.41 97.7056 112.612C97.7861 112.813 97.798 113.021 97.7413 113.234C97.6872 113.45 97.5668 113.653 97.3802 113.844ZM97.0054 112.37C96.8216 112.232 96.6182 112.166 96.395 112.171C96.1745 112.179 95.9743 112.256 95.7944 112.402L97.1527 113.424C97.2876 113.249 97.3415 113.064 97.3143 112.87C97.2921 112.675 97.1891 112.509 97.0054 112.37ZM98.295 115.966C98.197 115.967 98.0951 115.948 97.9893 115.91C97.8857 115.869 97.79 115.815 97.7021 115.749C97.489 115.589 97.3741 115.413 97.3572 115.223C97.3403 115.032 97.4252 114.842 97.6118 114.651L98.63 113.612L98.2705 113.341L98.5469 113.059L98.9064 113.33L99.3123 112.915L99.6958 113.204L99.2899 113.618L99.8971 114.075L99.6207 114.358L99.0135 113.9L98.0093 114.926C97.909 115.028 97.86 115.128 97.8623 115.224C97.8672 115.323 97.9229 115.413 98.0295 115.493C98.1466 115.581 98.2757 115.627 98.4165 115.629L98.295 115.966ZM102.725 116.173C102.994 116.376 103.139 116.606 103.158 116.865C103.183 117.124 103.063 117.387 102.8 117.657L101.732 118.746L101.349 118.457L102.378 117.407C102.557 117.224 102.643 117.049 102.636 116.881C102.628 116.714 102.532 116.562 102.349 116.423C102.141 116.267 101.923 116.199 101.696 116.218C101.472 116.235 101.26 116.344 101.062 116.547L100.106 117.522L99.723 117.233L101.577 115.34L101.945 115.617L101.665 115.903C101.838 115.863 102.015 115.866 102.197 115.912C102.382 115.96 102.558 116.047 102.725 116.173ZM105.085 117.95C105.378 118.17 105.539 118.403 105.567 118.648C105.598 118.895 105.489 119.145 105.24 119.4L104.12 120.543L103.756 120.27L104.001 120.02C103.851 120.06 103.693 120.058 103.526 120.016C103.365 119.973 103.203 119.89 103.04 119.768C102.803 119.589 102.663 119.395 102.62 119.184C102.579 118.975 102.64 118.788 102.803 118.621C102.966 118.454 103.165 118.372 103.399 118.374C103.635 118.374 103.901 118.485 104.196 118.708L104.804 119.165L104.87 119.097C105.015 118.95 105.078 118.8 105.059 118.65C105.04 118.499 104.937 118.353 104.751 118.213C104.626 118.119 104.484 118.046 104.327 117.993C104.172 117.939 104.023 117.912 103.88 117.911L103.972 117.534C104.158 117.538 104.347 117.576 104.539 117.65C104.733 117.721 104.915 117.821 105.085 117.95ZM103.363 119.552C103.51 119.662 103.664 119.728 103.827 119.752C103.992 119.772 104.15 119.747 104.303 119.676L104.562 119.412L103.971 118.966C103.646 118.722 103.388 118.697 103.197 118.893C103.103 118.988 103.071 119.094 103.1 119.211C103.129 119.328 103.217 119.441 103.363 119.552ZM109.35 121.16C109.617 121.361 109.759 121.588 109.778 121.843C109.8 122.099 109.678 122.363 109.412 122.634L108.345 123.724L107.962 123.435L108.99 122.385C109.17 122.202 109.257 122.027 109.252 121.862C109.25 121.699 109.161 121.552 108.985 121.419C108.791 121.273 108.583 121.211 108.361 121.235C108.142 121.256 107.933 121.367 107.734 121.57L106.779 122.545L106.396 122.256L107.424 121.206C107.604 121.023 107.691 120.849 107.686 120.684C107.684 120.52 107.595 120.373 107.419 120.24C107.225 120.094 107.017 120.033 106.795 120.056C106.576 120.077 106.367 120.189 106.168 120.391L105.213 121.366L104.83 121.077L106.684 119.184L107.052 119.461L106.775 119.743C106.948 119.704 107.122 119.706 107.296 119.75C107.472 119.792 107.64 119.873 107.8 119.993C107.965 120.118 108.083 120.258 108.152 120.414C108.222 120.569 108.235 120.73 108.192 120.897C108.38 120.847 108.574 120.845 108.776 120.889C108.98 120.936 109.172 121.026 109.35 121.16ZM111.893 124.768C111.867 124.795 111.831 124.827 111.783 124.866L110.066 123.573C109.926 123.758 109.876 123.953 109.914 124.16C109.957 124.366 110.082 124.548 110.29 124.704C110.543 124.894 110.822 124.971 111.125 124.935L111.12 125.316C110.926 125.344 110.732 125.33 110.537 125.274C110.344 125.22 110.16 125.127 109.984 124.995C109.761 124.827 109.602 124.637 109.508 124.425C109.417 124.212 109.395 123.995 109.444 123.775C109.495 123.557 109.612 123.356 109.794 123.17C109.974 122.986 110.181 122.855 110.416 122.776C110.654 122.698 110.892 122.679 111.132 122.718C111.376 122.757 111.599 122.853 111.801 123.005C112.004 123.158 112.143 123.335 112.218 123.536C112.299 123.738 112.311 123.945 112.254 124.159C112.2 124.375 112.079 124.578 111.893 124.768ZM111.518 123.295C111.334 123.156 111.131 123.09 110.908 123.096C110.687 123.104 110.487 123.18 110.307 123.326L111.665 124.349C111.8 124.173 111.854 123.988 111.827 123.794C111.805 123.599 111.702 123.433 111.518 123.295Z" fill="#818181"/>
<ellipse opacity="0.3" cx="209.145" cy="126.313" rx="64.8139" ry="67.7731" fill="#F36B09"/>
<ellipse cx="209.145" cy="126.313" rx="15.795" ry="16.5162" fill="#F36B09"/>
<ellipse cx="209.145" cy="126.313" rx="5.60108" ry="5.76598" fill="white"/>
</svg>
